<?xml version="1.0" encoding="UTF-8"?>
<svg xmlns="http://www.w3.org/2000/svg" version="1.1" viewBox="0 0 2144 1120">
  <!-- Generator: Adobe Illustrator 29.3.1, SVG Export Plug-In . SVG Version: 2.1.0 Build 151)  -->
  <defs>
    <style>
      .st0 {
        fill: #fff;
      }
    </style>
  </defs>
  <g id="Layer_1">
    <path d="M0,0h2144v1120H0V0Z"/>
  </g>
  <g id="Layer_1_copy">
    <path class="st0" d="M96,48h15v15h-15v-15Z"/>
    <path class="st0" d="M112,48h15v15h-15v-15Z"/>
    <path class="st0" d="M128,48h15v15h-15v-15Z"/>
    <path class="st0" d="M240,48h15v15h-15v-15Z"/>
    <path class="st0" d="M336,48h15v15h-15v-15Z"/>
    <path class="st0" d="M400,48h15v15h-15v-15Z"/>
    <path class="st0" d="M480,48h15v15h-15v-15Z"/>
    <path class="st0" d="M592,48h15v15h-15v-15Z"/>
    <path class="st0" d="M960,48h15v15h-15v-15Z"/>
    <path class="st0" d="M976,48h15v15h-15v-15Z"/>
    <path class="st0" d="M992,48h15v15h-15v-15Z"/>
    <path class="st0" d="M1008,48h15v15h-15v-15Z"/>
    <path class="st0" d="M1248,48h15v15h-15v-15Z"/>
    <path class="st0" d="M1328,48h15v15h-15v-15Z"/>
    <path class="st0" d="M80,64h15v15h-15v-15Z"/>
    <path class="st0" d="M144,64h15v15h-15v-15Z"/>
    <path class="st0" d="M240,64h15v15h-15v-15Z"/>
    <path class="st0" d="M336,64h15v15h-15v-15Z"/>
    <path class="st0" d="M480,64h15v15h-15v-15Z"/>
    <path class="st0" d="M944,64h15v15h-15v-15Z"/>
    <path class="st0" d="M1248,64h15v15h-15v-15Z"/>
    <path class="st0" d="M1328,64h15v15h-15v-15Z"/>
    <path class="st0" d="M80,80h15v15h-15v-15Z"/>
    <path class="st0" d="M144,80h15v15h-15v-15Z"/>
    <path class="st0" d="M192,80h15v15h-15v-15Z"/>
    <path class="st0" d="M208,80h15v15h-15v-15Z"/>
    <path class="st0" d="M240,80h15v15h-15v-15Z"/>
    <path class="st0" d="M288,80h15v15h-15v-15Z"/>
    <path class="st0" d="M304,80h15v15h-15v-15Z"/>
    <path class="st0" d="M336,80h15v15h-15v-15Z"/>
    <path class="st0" d="M384,80h15v15h-15v-15Z"/>
    <path class="st0" d="M400,80h15v15h-15v-15Z"/>
    <path class="st0" d="M464,80h15v15h-15v-15Z"/>
    <path class="st0" d="M480,80h15v15h-15v-15Z"/>
    <path class="st0" d="M496,80h15v15h-15v-15Z"/>
    <path class="st0" d="M576,80h15v15h-15v-15Z"/>
    <path class="st0" d="M592,80h15v15h-15v-15Z"/>
    <path class="st0" d="M656,80h15v15h-15v-15Z"/>
    <path class="st0" d="M720,80h15v15h-15v-15Z"/>
    <path class="st0" d="M768,80h15v15h-15v-15Z"/>
    <path class="st0" d="M784,80h15v15h-15v-15Z"/>
    <path class="st0" d="M800,80h15v15h-15v-15Z"/>
    <path class="st0" d="M944,80h15v15h-15v-15Z"/>
    <path class="st0" d="M1040,80h15v15h-15v-15Z"/>
    <path class="st0" d="M1104,80h15v15h-15v-15Z"/>
    <path class="st0" d="M1136,80h15v15h-15v-15Z"/>
    <path class="st0" d="M1168,80h15v15h-15v-15Z"/>
    <path class="st0" d="M1184,80h15v15h-15v-15Z"/>
    <path class="st0" d="M1232,80h15v15h-15v-15Z"/>
    <path class="st0" d="M1248,80h15v15h-15v-15Z"/>
    <path class="st0" d="M1264,80h15v15h-15v-15Z"/>
    <path class="st0" d="M1328,80h15v15h-15v-15Z"/>
    <path class="st0" d="M1360,80h15v15h-15v-15Z"/>
    <path class="st0" d="M1376,80h15v15h-15v-15Z"/>
    <path class="st0" d="M80,96h15v15h-15v-15Z"/>
    <path class="st0" d="M144,96h15v15h-15v-15Z"/>
    <path class="st0" d="M176,96h15v15h-15v-15Z"/>
    <path class="st0" d="M224,96h15v15h-15v-15Z"/>
    <path class="st0" d="M240,96h15v15h-15v-15Z"/>
    <path class="st0" d="M272,96h15v15h-15v-15Z"/>
    <path class="st0" d="M320,96h15v15h-15v-15Z"/>
    <path class="st0" d="M336,96h15v15h-15v-15Z"/>
    <path class="st0" d="M400,96h15v15h-15v-15Z"/>
    <path class="st0" d="M480,96h15v15h-15v-15Z"/>
    <path class="st0" d="M592,96h15v15h-15v-15Z"/>
    <path class="st0" d="M656,96h15v15h-15v-15Z"/>
    <path class="st0" d="M720,96h15v15h-15v-15Z"/>
    <path class="st0" d="M752,96h15v15h-15v-15Z"/>
    <path class="st0" d="M816,96h15v15h-15v-15Z"/>
    <path class="st0" d="M960,96h15v15h-15v-15Z"/>
    <path class="st0" d="M976,96h15v15h-15v-15Z"/>
    <path class="st0" d="M992,96h15v15h-15v-15Z"/>
    <path class="st0" d="M1040,96h15v15h-15v-15Z"/>
    <path class="st0" d="M1104,96h15v15h-15v-15Z"/>
    <path class="st0" d="M1136,96h15v15h-15v-15Z"/>
    <path class="st0" d="M1152,96h15v15h-15v-15Z"/>
    <path class="st0" d="M1200,96h15v15h-15v-15Z"/>
    <path class="st0" d="M1248,96h15v15h-15v-15Z"/>
    <path class="st0" d="M1328,96h15v15h-15v-15Z"/>
    <path class="st0" d="M1344,96h15v15h-15v-15Z"/>
    <path class="st0" d="M1392,96h15v15h-15v-15Z"/>
    <path class="st0" d="M80,112h15v15h-15v-15Z"/>
    <path class="st0" d="M96,112h15v15h-15v-15Z"/>
    <path class="st0" d="M112,112h15v15h-15v-15Z"/>
    <path class="st0" d="M128,112h15v15h-15v-15Z"/>
    <path class="st0" d="M144,112h15v15h-15v-15Z"/>
    <path class="st0" d="M176,112h15v15h-15v-15Z"/>
    <path class="st0" d="M240,112h15v15h-15v-15Z"/>
    <path class="st0" d="M272,112h15v15h-15v-15Z"/>
    <path class="st0" d="M336,112h15v15h-15v-15Z"/>
    <path class="st0" d="M400,112h15v15h-15v-15Z"/>
    <path class="st0" d="M480,112h15v15h-15v-15Z"/>
    <path class="st0" d="M592,112h15v15h-15v-15Z"/>
    <path class="st0" d="M656,112h15v15h-15v-15Z"/>
    <path class="st0" d="M720,112h15v15h-15v-15Z"/>
    <path class="st0" d="M752,112h15v15h-15v-15Z"/>
    <path class="st0" d="M768,112h15v15h-15v-15Z"/>
    <path class="st0" d="M784,112h15v15h-15v-15Z"/>
    <path class="st0" d="M800,112h15v15h-15v-15Z"/>
    <path class="st0" d="M816,112h15v15h-15v-15Z"/>
    <path class="st0" d="M1008,112h15v15h-15v-15Z"/>
    <path class="st0" d="M1056,112h15v15h-15v-15Z"/>
    <path class="st0" d="M1072,112h15v15h-15v-15Z"/>
    <path class="st0" d="M1088,112h15v15h-15v-15Z"/>
    <path class="st0" d="M1104,112h15v15h-15v-15Z"/>
    <path class="st0" d="M1136,112h15v15h-15v-15Z"/>
    <path class="st0" d="M1200,112h15v15h-15v-15Z"/>
    <path class="st0" d="M1248,112h15v15h-15v-15Z"/>
    <path class="st0" d="M1328,112h15v15h-15v-15Z"/>
    <path class="st0" d="M1392,112h15v15h-15v-15Z"/>
    <path class="st0" d="M80,128h15v15h-15v-15Z"/>
    <path class="st0" d="M144,128h15v15h-15v-15Z"/>
    <path class="st0" d="M176,128h15v15h-15v-15Z"/>
    <path class="st0" d="M240,128h15v15h-15v-15Z"/>
    <path class="st0" d="M272,128h15v15h-15v-15Z"/>
    <path class="st0" d="M336,128h15v15h-15v-15Z"/>
    <path class="st0" d="M400,128h15v15h-15v-15Z"/>
    <path class="st0" d="M480,128h15v15h-15v-15Z"/>
    <path class="st0" d="M528,128h15v15h-15v-15Z"/>
    <path class="st0" d="M592,128h15v15h-15v-15Z"/>
    <path class="st0" d="M672,128h15v15h-15v-15Z"/>
    <path class="st0" d="M704,128h15v15h-15v-15Z"/>
    <path class="st0" d="M752,128h15v15h-15v-15Z"/>
    <path class="st0" d="M1008,128h15v15h-15v-15Z"/>
    <path class="st0" d="M1104,128h15v15h-15v-15Z"/>
    <path class="st0" d="M1136,128h15v15h-15v-15Z"/>
    <path class="st0" d="M1200,128h15v15h-15v-15Z"/>
    <path class="st0" d="M1248,128h15v15h-15v-15Z"/>
    <path class="st0" d="M1296,128h15v15h-15v-15Z"/>
    <path class="st0" d="M1328,128h15v15h-15v-15Z"/>
    <path class="st0" d="M1392,128h15v15h-15v-15Z"/>
    <path class="st0" d="M80,144h15v15h-15v-15Z"/>
    <path class="st0" d="M144,144h15v15h-15v-15Z"/>
    <path class="st0" d="M192,144h15v15h-15v-15Z"/>
    <path class="st0" d="M208,144h15v15h-15v-15Z"/>
    <path class="st0" d="M224,144h15v15h-15v-15Z"/>
    <path class="st0" d="M240,144h15v15h-15v-15Z"/>
    <path class="st0" d="M288,144h15v15h-15v-15Z"/>
    <path class="st0" d="M304,144h15v15h-15v-15Z"/>
    <path class="st0" d="M320,144h15v15h-15v-15Z"/>
    <path class="st0" d="M336,144h15v15h-15v-15Z"/>
    <path class="st0" d="M384,144h15v15h-15v-15Z"/>
    <path class="st0" d="M400,144h15v15h-15v-15Z"/>
    <path class="st0" d="M416,144h15v15h-15v-15Z"/>
    <path class="st0" d="M496,144h15v15h-15v-15Z"/>
    <path class="st0" d="M512,144h15v15h-15v-15Z"/>
    <path class="st0" d="M576,144h15v15h-15v-15Z"/>
    <path class="st0" d="M592,144h15v15h-15v-15Z"/>
    <path class="st0" d="M608,144h15v15h-15v-15Z"/>
    <path class="st0" d="M688,144h15v15h-15v-15Z"/>
    <path class="st0" d="M768,144h15v15h-15v-15Z"/>
    <path class="st0" d="M784,144h15v15h-15v-15Z"/>
    <path class="st0" d="M800,144h15v15h-15v-15Z"/>
    <path class="st0" d="M944,144h15v15h-15v-15Z"/>
    <path class="st0" d="M960,144h15v15h-15v-15Z"/>
    <path class="st0" d="M976,144h15v15h-15v-15Z"/>
    <path class="st0" d="M992,144h15v15h-15v-15Z"/>
    <path class="st0" d="M1056,144h15v15h-15v-15Z"/>
    <path class="st0" d="M1072,144h15v15h-15v-15Z"/>
    <path class="st0" d="M1088,144h15v15h-15v-15Z"/>
    <path class="st0" d="M1136,144h15v15h-15v-15Z"/>
    <path class="st0" d="M1200,144h15v15h-15v-15Z"/>
    <path class="st0" d="M1264,144h15v15h-15v-15Z"/>
    <path class="st0" d="M1280,144h15v15h-15v-15Z"/>
    <path class="st0" d="M1328,144h15v15h-15v-15Z"/>
    <path class="st0" d="M1392,144h15v15h-15v-15Z"/>
    <path class="st0" d="M128,208h15v15h-15v-15Z"/>
    <path class="st0" d="M464,208h15v15h-15v-15Z"/>
    <path class="st0" d="M528,208h15v15h-15v-15Z"/>
    <path class="st0" d="M576,208h15v15h-15v-15Z"/>
    <path class="st0" d="M592,208h15v15h-15v-15Z"/>
    <path class="st0" d="M608,208h15v15h-15v-15Z"/>
    <path class="st0" d="M656,208h15v15h-15v-15Z"/>
    <path class="st0" d="M720,208h15v15h-15v-15Z"/>
    <path class="st0" d="M752,208h15v15h-15v-15Z"/>
    <path class="st0" d="M768,208h15v15h-15v-15Z"/>
    <path class="st0" d="M784,208h15v15h-15v-15Z"/>
    <path class="st0" d="M800,208h15v15h-15v-15Z"/>
    <path class="st0" d="M816,208h15v15h-15v-15Z"/>
    <path class="st0" d="M112,224h15v15h-15v-15Z"/>
    <path class="st0" d="M464,224h15v15h-15v-15Z"/>
    <path class="st0" d="M528,224h15v15h-15v-15Z"/>
    <path class="st0" d="M560,224h15v15h-15v-15Z"/>
    <path class="st0" d="M624,224h15v15h-15v-15Z"/>
    <path class="st0" d="M656,224h15v15h-15v-15Z"/>
    <path class="st0" d="M672,224h15v15h-15v-15Z"/>
    <path class="st0" d="M704,224h15v15h-15v-15Z"/>
    <path class="st0" d="M720,224h15v15h-15v-15Z"/>
    <path class="st0" d="M752,224h15v15h-15v-15Z"/>
    <path class="st0" d="M96,240h15v15h-15v-15Z"/>
    <path class="st0" d="M464,240h15v15h-15v-15Z"/>
    <path class="st0" d="M528,240h15v15h-15v-15Z"/>
    <path class="st0" d="M560,240h15v15h-15v-15Z"/>
    <path class="st0" d="M624,240h15v15h-15v-15Z"/>
    <path class="st0" d="M656,240h15v15h-15v-15Z"/>
    <path class="st0" d="M688,240h15v15h-15v-15Z"/>
    <path class="st0" d="M720,240h15v15h-15v-15Z"/>
    <path class="st0" d="M752,240h15v15h-15v-15Z"/>
    <path class="st0" d="M80,256h15v15h-15v-15Z"/>
    <path class="st0" d="M176,256h15v15h-15v-15Z"/>
    <path class="st0" d="M192,256h15v15h-15v-15Z"/>
    <path class="st0" d="M208,256h15v15h-15v-15Z"/>
    <path class="st0" d="M224,256h15v15h-15v-15Z"/>
    <path class="st0" d="M240,256h15v15h-15v-15Z"/>
    <path class="st0" d="M272,256h15v15h-15v-15Z"/>
    <path class="st0" d="M288,256h15v15h-15v-15Z"/>
    <path class="st0" d="M304,256h15v15h-15v-15Z"/>
    <path class="st0" d="M320,256h15v15h-15v-15Z"/>
    <path class="st0" d="M336,256h15v15h-15v-15Z"/>
    <path class="st0" d="M464,256h15v15h-15v-15Z"/>
    <path class="st0" d="M480,256h15v15h-15v-15Z"/>
    <path class="st0" d="M496,256h15v15h-15v-15Z"/>
    <path class="st0" d="M512,256h15v15h-15v-15Z"/>
    <path class="st0" d="M528,256h15v15h-15v-15Z"/>
    <path class="st0" d="M560,256h15v15h-15v-15Z"/>
    <path class="st0" d="M624,256h15v15h-15v-15Z"/>
    <path class="st0" d="M656,256h15v15h-15v-15Z"/>
    <path class="st0" d="M688,256h15v15h-15v-15Z"/>
    <path class="st0" d="M720,256h15v15h-15v-15Z"/>
    <path class="st0" d="M752,256h15v15h-15v-15Z"/>
    <path class="st0" d="M768,256h15v15h-15v-15Z"/>
    <path class="st0" d="M784,256h15v15h-15v-15Z"/>
    <path class="st0" d="M800,256h15v15h-15v-15Z"/>
    <path class="st0" d="M96,272h15v15h-15v-15Z"/>
    <path class="st0" d="M464,272h15v15h-15v-15Z"/>
    <path class="st0" d="M528,272h15v15h-15v-15Z"/>
    <path class="st0" d="M560,272h15v15h-15v-15Z"/>
    <path class="st0" d="M624,272h15v15h-15v-15Z"/>
    <path class="st0" d="M656,272h15v15h-15v-15Z"/>
    <path class="st0" d="M720,272h15v15h-15v-15Z"/>
    <path class="st0" d="M752,272h15v15h-15v-15Z"/>
    <path class="st0" d="M112,288h15v15h-15v-15Z"/>
    <path class="st0" d="M464,288h15v15h-15v-15Z"/>
    <path class="st0" d="M528,288h15v15h-15v-15Z"/>
    <path class="st0" d="M560,288h15v15h-15v-15Z"/>
    <path class="st0" d="M624,288h15v15h-15v-15Z"/>
    <path class="st0" d="M656,288h15v15h-15v-15Z"/>
    <path class="st0" d="M720,288h15v15h-15v-15Z"/>
    <path class="st0" d="M752,288h15v15h-15v-15Z"/>
    <path class="st0" d="M128,304h15v15h-15v-15Z"/>
    <path class="st0" d="M464,304h15v15h-15v-15Z"/>
    <path class="st0" d="M528,304h15v15h-15v-15Z"/>
    <path class="st0" d="M576,304h15v15h-15v-15Z"/>
    <path class="st0" d="M592,304h15v15h-15v-15Z"/>
    <path class="st0" d="M608,304h15v15h-15v-15Z"/>
    <path class="st0" d="M656,304h15v15h-15v-15Z"/>
    <path class="st0" d="M720,304h15v15h-15v-15Z"/>
    <path class="st0" d="M752,304h15v15h-15v-15Z"/>
    <path class="st0" d="M768,304h15v15h-15v-15Z"/>
    <path class="st0" d="M784,304h15v15h-15v-15Z"/>
    <path class="st0" d="M800,304h15v15h-15v-15Z"/>
    <path class="st0" d="M816,304h15v15h-15v-15Z"/>
    <path class="st0" d="M128,384h15v15h-15v-15Z"/>
    <path class="st0" d="M112,400h15v15h-15v-15Z"/>
    <path class="st0" d="M128,400h15v15h-15v-15Z"/>
    <path class="st0" d="M96,416h15v15h-15v-15Z"/>
    <path class="st0" d="M128,416h15v15h-15v-15Z"/>
    <path class="st0" d="M176,416h15v15h-15v-15Z"/>
    <path class="st0" d="M240,416h15v15h-15v-15Z"/>
    <path class="st0" d="M288,416h15v15h-15v-15Z"/>
    <path class="st0" d="M304,416h15v15h-15v-15Z"/>
    <path class="st0" d="M320,416h15v15h-15v-15Z"/>
    <path class="st0" d="M368,416h15v15h-15v-15Z"/>
    <path class="st0" d="M432,416h15v15h-15v-15Z"/>
    <path class="st0" d="M480,416h15v15h-15v-15Z"/>
    <path class="st0" d="M496,416h15v15h-15v-15Z"/>
    <path class="st0" d="M512,416h15v15h-15v-15Z"/>
    <path class="st0" d="M80,432h15v15h-15v-15Z"/>
    <path class="st0" d="M128,432h15v15h-15v-15Z"/>
    <path class="st0" d="M176,432h15v15h-15v-15Z"/>
    <path class="st0" d="M240,432h15v15h-15v-15Z"/>
    <path class="st0" d="M336,432h15v15h-15v-15Z"/>
    <path class="st0" d="M368,432h15v15h-15v-15Z"/>
    <path class="st0" d="M432,432h15v15h-15v-15Z"/>
    <path class="st0" d="M464,432h15v15h-15v-15Z"/>
    <path class="st0" d="M528,432h15v15h-15v-15Z"/>
    <path class="st0" d="M80,448h15v15h-15v-15Z"/>
    <path class="st0" d="M96,448h15v15h-15v-15Z"/>
    <path class="st0" d="M112,448h15v15h-15v-15Z"/>
    <path class="st0" d="M128,448h15v15h-15v-15Z"/>
    <path class="st0" d="M144,448h15v15h-15v-15Z"/>
    <path class="st0" d="M176,448h15v15h-15v-15Z"/>
    <path class="st0" d="M208,448h15v15h-15v-15Z"/>
    <path class="st0" d="M240,448h15v15h-15v-15Z"/>
    <path class="st0" d="M288,448h15v15h-15v-15Z"/>
    <path class="st0" d="M304,448h15v15h-15v-15Z"/>
    <path class="st0" d="M320,448h15v15h-15v-15Z"/>
    <path class="st0" d="M336,448h15v15h-15v-15Z"/>
    <path class="st0" d="M368,448h15v15h-15v-15Z"/>
    <path class="st0" d="M432,448h15v15h-15v-15Z"/>
    <path class="st0" d="M464,448h15v15h-15v-15Z"/>
    <path class="st0" d="M480,448h15v15h-15v-15Z"/>
    <path class="st0" d="M496,448h15v15h-15v-15Z"/>
    <path class="st0" d="M512,448h15v15h-15v-15Z"/>
    <path class="st0" d="M528,448h15v15h-15v-15Z"/>
    <path class="st0" d="M128,464h15v15h-15v-15Z"/>
    <path class="st0" d="M176,464h15v15h-15v-15Z"/>
    <path class="st0" d="M208,464h15v15h-15v-15Z"/>
    <path class="st0" d="M240,464h15v15h-15v-15Z"/>
    <path class="st0" d="M272,464h15v15h-15v-15Z"/>
    <path class="st0" d="M336,464h15v15h-15v-15Z"/>
    <path class="st0" d="M384,464h15v15h-15v-15Z"/>
    <path class="st0" d="M416,464h15v15h-15v-15Z"/>
    <path class="st0" d="M464,464h15v15h-15v-15Z"/>
    <path class="st0" d="M128,480h15v15h-15v-15Z"/>
    <path class="st0" d="M192,480h15v15h-15v-15Z"/>
    <path class="st0" d="M224,480h15v15h-15v-15Z"/>
    <path class="st0" d="M288,480h15v15h-15v-15Z"/>
    <path class="st0" d="M304,480h15v15h-15v-15Z"/>
    <path class="st0" d="M320,480h15v15h-15v-15Z"/>
    <path class="st0" d="M336,480h15v15h-15v-15Z"/>
    <path class="st0" d="M400,480h15v15h-15v-15Z"/>
    <path class="st0" d="M480,480h15v15h-15v-15Z"/>
    <path class="st0" d="M496,480h15v15h-15v-15Z"/>
    <path class="st0" d="M512,480h15v15h-15v-15Z"/>
    <path class="st0" d="M128,560h15v15h-15v-15Z"/>
    <path class="st0" d="M560,560h15v15h-15v-15Z"/>
    <path class="st0" d="M576,560h15v15h-15v-15Z"/>
    <path class="st0" d="M592,560h15v15h-15v-15Z"/>
    <path class="st0" d="M608,560h15v15h-15v-15Z"/>
    <path class="st0" d="M624,560h15v15h-15v-15Z"/>
    <path class="st0" d="M656,560h15v15h-15v-15Z"/>
    <path class="st0" d="M720,560h15v15h-15v-15Z"/>
    <path class="st0" d="M112,576h15v15h-15v-15Z"/>
    <path class="st0" d="M128,576h15v15h-15v-15Z"/>
    <path class="st0" d="M560,576h15v15h-15v-15Z"/>
    <path class="st0" d="M656,576h15v15h-15v-15Z"/>
    <path class="st0" d="M672,576h15v15h-15v-15Z"/>
    <path class="st0" d="M704,576h15v15h-15v-15Z"/>
    <path class="st0" d="M720,576h15v15h-15v-15Z"/>
    <path class="st0" d="M96,592h15v15h-15v-15Z"/>
    <path class="st0" d="M128,592h15v15h-15v-15Z"/>
    <path class="st0" d="M176,592h15v15h-15v-15Z"/>
    <path class="st0" d="M240,592h15v15h-15v-15Z"/>
    <path class="st0" d="M288,592h15v15h-15v-15Z"/>
    <path class="st0" d="M304,592h15v15h-15v-15Z"/>
    <path class="st0" d="M320,592h15v15h-15v-15Z"/>
    <path class="st0" d="M368,592h15v15h-15v-15Z"/>
    <path class="st0" d="M432,592h15v15h-15v-15Z"/>
    <path class="st0" d="M480,592h15v15h-15v-15Z"/>
    <path class="st0" d="M496,592h15v15h-15v-15Z"/>
    <path class="st0" d="M512,592h15v15h-15v-15Z"/>
    <path class="st0" d="M560,592h15v15h-15v-15Z"/>
    <path class="st0" d="M656,592h15v15h-15v-15Z"/>
    <path class="st0" d="M688,592h15v15h-15v-15Z"/>
    <path class="st0" d="M720,592h15v15h-15v-15Z"/>
    <path class="st0" d="M80,608h15v15h-15v-15Z"/>
    <path class="st0" d="M128,608h15v15h-15v-15Z"/>
    <path class="st0" d="M176,608h15v15h-15v-15Z"/>
    <path class="st0" d="M240,608h15v15h-15v-15Z"/>
    <path class="st0" d="M336,608h15v15h-15v-15Z"/>
    <path class="st0" d="M368,608h15v15h-15v-15Z"/>
    <path class="st0" d="M432,608h15v15h-15v-15Z"/>
    <path class="st0" d="M464,608h15v15h-15v-15Z"/>
    <path class="st0" d="M528,608h15v15h-15v-15Z"/>
    <path class="st0" d="M560,608h15v15h-15v-15Z"/>
    <path class="st0" d="M576,608h15v15h-15v-15Z"/>
    <path class="st0" d="M592,608h15v15h-15v-15Z"/>
    <path class="st0" d="M608,608h15v15h-15v-15Z"/>
    <path class="st0" d="M656,608h15v15h-15v-15Z"/>
    <path class="st0" d="M688,608h15v15h-15v-15Z"/>
    <path class="st0" d="M720,608h15v15h-15v-15Z"/>
    <path class="st0" d="M80,624h15v15h-15v-15Z"/>
    <path class="st0" d="M96,624h15v15h-15v-15Z"/>
    <path class="st0" d="M112,624h15v15h-15v-15Z"/>
    <path class="st0" d="M128,624h15v15h-15v-15Z"/>
    <path class="st0" d="M144,624h15v15h-15v-15Z"/>
    <path class="st0" d="M176,624h15v15h-15v-15Z"/>
    <path class="st0" d="M208,624h15v15h-15v-15Z"/>
    <path class="st0" d="M240,624h15v15h-15v-15Z"/>
    <path class="st0" d="M288,624h15v15h-15v-15Z"/>
    <path class="st0" d="M304,624h15v15h-15v-15Z"/>
    <path class="st0" d="M320,624h15v15h-15v-15Z"/>
    <path class="st0" d="M336,624h15v15h-15v-15Z"/>
    <path class="st0" d="M368,624h15v15h-15v-15Z"/>
    <path class="st0" d="M432,624h15v15h-15v-15Z"/>
    <path class="st0" d="M464,624h15v15h-15v-15Z"/>
    <path class="st0" d="M480,624h15v15h-15v-15Z"/>
    <path class="st0" d="M496,624h15v15h-15v-15Z"/>
    <path class="st0" d="M512,624h15v15h-15v-15Z"/>
    <path class="st0" d="M528,624h15v15h-15v-15Z"/>
    <path class="st0" d="M560,624h15v15h-15v-15Z"/>
    <path class="st0" d="M656,624h15v15h-15v-15Z"/>
    <path class="st0" d="M720,624h15v15h-15v-15Z"/>
    <path class="st0" d="M128,640h15v15h-15v-15Z"/>
    <path class="st0" d="M176,640h15v15h-15v-15Z"/>
    <path class="st0" d="M208,640h15v15h-15v-15Z"/>
    <path class="st0" d="M240,640h15v15h-15v-15Z"/>
    <path class="st0" d="M272,640h15v15h-15v-15Z"/>
    <path class="st0" d="M336,640h15v15h-15v-15Z"/>
    <path class="st0" d="M384,640h15v15h-15v-15Z"/>
    <path class="st0" d="M416,640h15v15h-15v-15Z"/>
    <path class="st0" d="M464,640h15v15h-15v-15Z"/>
    <path class="st0" d="M560,640h15v15h-15v-15Z"/>
    <path class="st0" d="M656,640h15v15h-15v-15Z"/>
    <path class="st0" d="M720,640h15v15h-15v-15Z"/>
    <path class="st0" d="M128,656h15v15h-15v-15Z"/>
    <path class="st0" d="M192,656h15v15h-15v-15Z"/>
    <path class="st0" d="M224,656h15v15h-15v-15Z"/>
    <path class="st0" d="M288,656h15v15h-15v-15Z"/>
    <path class="st0" d="M304,656h15v15h-15v-15Z"/>
    <path class="st0" d="M320,656h15v15h-15v-15Z"/>
    <path class="st0" d="M336,656h15v15h-15v-15Z"/>
    <path class="st0" d="M400,656h15v15h-15v-15Z"/>
    <path class="st0" d="M480,656h15v15h-15v-15Z"/>
    <path class="st0" d="M496,656h15v15h-15v-15Z"/>
    <path class="st0" d="M512,656h15v15h-15v-15Z"/>
    <path class="st0" d="M560,656h15v15h-15v-15Z"/>
    <path class="st0" d="M656,656h15v15h-15v-15Z"/>
    <path class="st0" d="M720,656h15v15h-15v-15Z"/>
    <path class="st0" d="M48,720h15v15h-15v-15Z"/>
    <path class="st0" d="M64,720h15v15h-15v-15Z"/>
    <path class="st0" d="M80,720h15v15h-15v-15Z"/>
    <path class="st0" d="M96,720h15v15h-15v-15Z"/>
    <path class="st0" d="M112,720h15v15h-15v-15Z"/>
    <path class="st0" d="M128,720h15v15h-15v-15Z"/>
    <path class="st0" d="M144,720h15v15h-15v-15Z"/>
    <path class="st0" d="M160,720h15v15h-15v-15Z"/>
    <path class="st0" d="M176,720h15v15h-15v-15Z"/>
    <path class="st0" d="M192,720h15v15h-15v-15Z"/>
    <path class="st0" d="M208,720h15v15h-15v-15Z"/>
    <path class="st0" d="M224,720h15v15h-15v-15Z"/>
    <path class="st0" d="M240,720h15v15h-15v-15Z"/>
    <path class="st0" d="M256,720h15v15h-15v-15Z"/>
    <path class="st0" d="M272,720h15v15h-15v-15Z"/>
    <path class="st0" d="M288,720h15v15h-15v-15Z"/>
    <path class="st0" d="M304,720h15v15h-15v-15Z"/>
    <path class="st0" d="M320,720h15v15h-15v-15Z"/>
    <path class="st0" d="M336,720h15v15h-15v-15Z"/>
    <path class="st0" d="M352,720h15v15h-15v-15Z"/>
    <path class="st0" d="M368,720h15v15h-15v-15Z"/>
    <path class="st0" d="M384,720h15v15h-15v-15Z"/>
    <path class="st0" d="M400,720h15v15h-15v-15Z"/>
    <path class="st0" d="M416,720h15v15h-15v-15Z"/>
    <path class="st0" d="M432,720h15v15h-15v-15Z"/>
    <path class="st0" d="M448,720h15v15h-15v-15Z"/>
    <path class="st0" d="M464,720h15v15h-15v-15Z"/>
    <path class="st0" d="M480,720h15v15h-15v-15Z"/>
    <path class="st0" d="M496,720h15v15h-15v-15Z"/>
    <path class="st0" d="M512,720h15v15h-15v-15Z"/>
    <path class="st0" d="M528,720h15v15h-15v-15Z"/>
    <path class="st0" d="M544,720h15v15h-15v-15Z"/>
    <path class="st0" d="M560,720h15v15h-15v-15Z"/>
    <path class="st0" d="M576,720h15v15h-15v-15Z"/>
    <path class="st0" d="M592,720h15v15h-15v-15Z"/>
    <path class="st0" d="M608,720h15v15h-15v-15Z"/>
    <path class="st0" d="M624,720h15v15h-15v-15Z"/>
    <path class="st0" d="M640,720h15v15h-15v-15Z"/>
    <path class="st0" d="M656,720h15v15h-15v-15Z"/>
    <path class="st0" d="M672,720h15v15h-15v-15Z"/>
    <path class="st0" d="M688,720h15v15h-15v-15Z"/>
    <path class="st0" d="M704,720h15v15h-15v-15Z"/>
    <path class="st0" d="M720,720h15v15h-15v-15Z"/>
    <path class="st0" d="M736,720h15v15h-15v-15Z"/>
    <path class="st0" d="M752,720h15v15h-15v-15Z"/>
    <path class="st0" d="M768,720h15v15h-15v-15Z"/>
    <path class="st0" d="M784,720h15v15h-15v-15Z"/>
    <path class="st0" d="M800,720h15v15h-15v-15Z"/>
    <path class="st0" d="M816,720h15v15h-15v-15Z"/>
    <path class="st0" d="M832,720h15v15h-15v-15Z"/>
    <path class="st0" d="M848,720h15v15h-15v-15Z"/>
    <path class="st0" d="M864,720h15v15h-15v-15Z"/>
    <path class="st0" d="M880,720h15v15h-15v-15Z"/>
    <path class="st0" d="M896,720h15v15h-15v-15Z"/>
    <path class="st0" d="M912,720h15v15h-15v-15Z"/>
    <path class="st0" d="M928,720h15v15h-15v-15Z"/>
    <path class="st0" d="M944,720h15v15h-15v-15Z"/>
    <path class="st0" d="M960,720h15v15h-15v-15Z"/>
    <path class="st0" d="M976,720h15v15h-15v-15Z"/>
    <path class="st0" d="M992,720h15v15h-15v-15Z"/>
    <path class="st0" d="M1008,720h15v15h-15v-15Z"/>
    <path class="st0" d="M1024,720h15v15h-15v-15Z"/>
    <path class="st0" d="M1040,720h15v15h-15v-15Z"/>
    <path class="st0" d="M1056,720h15v15h-15v-15Z"/>
    <path class="st0" d="M1072,720h15v15h-15v-15Z"/>
    <path class="st0" d="M1088,720h15v15h-15v-15Z"/>
    <path class="st0" d="M1104,720h15v15h-15v-15Z"/>
    <path class="st0" d="M1120,720h15v15h-15v-15Z"/>
    <path class="st0" d="M1136,720h15v15h-15v-15Z"/>
    <path class="st0" d="M1152,720h15v15h-15v-15Z"/>
    <path class="st0" d="M1168,720h15v15h-15v-15Z"/>
    <path class="st0" d="M1184,720h15v15h-15v-15Z"/>
    <path class="st0" d="M1200,720h15v15h-15v-15Z"/>
    <path class="st0" d="M1216,720h15v15h-15v-15Z"/>
    <path class="st0" d="M1232,720h15v15h-15v-15Z"/>
    <path class="st0" d="M1248,720h15v15h-15v-15Z"/>
    <path class="st0" d="M1264,720h15v15h-15v-15Z"/>
    <path class="st0" d="M1280,720h15v15h-15v-15Z"/>
    <path class="st0" d="M1296,720h15v15h-15v-15Z"/>
    <path class="st0" d="M1312,720h15v15h-15v-15Z"/>
    <path class="st0" d="M1328,720h15v15h-15v-15Z"/>
    <path class="st0" d="M1344,720h15v15h-15v-15Z"/>
    <path class="st0" d="M1360,720h15v15h-15v-15Z"/>
    <path class="st0" d="M1376,720h15v15h-15v-15Z"/>
    <path class="st0" d="M1392,720h15v15h-15v-15Z"/>
    <path class="st0" d="M1408,720h15v15h-15v-15Z"/>
    <path class="st0" d="M1424,720h15v15h-15v-15Z"/>
    <path class="st0" d="M1440,720h15v15h-15v-15Z"/>
    <path class="st0" d="M1456,720h15v15h-15v-15Z"/>
    <path class="st0" d="M1472,720h15v15h-15v-15Z"/>
    <path class="st0" d="M1488,720h15v15h-15v-15Z"/>
    <path class="st0" d="M1504,720h15v15h-15v-15Z"/>
    <path class="st0" d="M1520,720h15v15h-15v-15Z"/>
    <path class="st0" d="M1536,720h15v15h-15v-15Z"/>
    <path class="st0" d="M1552,720h15v15h-15v-15Z"/>
    <path class="st0" d="M1568,720h15v15h-15v-15Z"/>
    <path class="st0" d="M1584,720h15v15h-15v-15Z"/>
    <path class="st0" d="M1600,720h15v15h-15v-15Z"/>
    <path class="st0" d="M1616,720h15v15h-15v-15Z"/>
    <path class="st0" d="M1632,720h15v15h-15v-15Z"/>
    <path class="st0" d="M1648,720h15v15h-15v-15Z"/>
    <path class="st0" d="M1664,720h15v15h-15v-15Z"/>
    <path class="st0" d="M1680,720h15v15h-15v-15Z"/>
    <path class="st0" d="M1696,720h15v15h-15v-15Z"/>
    <path class="st0" d="M1712,720h15v15h-15v-15Z"/>
    <path class="st0" d="M1728,720h15v15h-15v-15Z"/>
    <path class="st0" d="M1744,720h15v15h-15v-15Z"/>
    <path class="st0" d="M1760,720h15v15h-15v-15Z"/>
    <path class="st0" d="M1776,720h15v15h-15v-15Z"/>
    <path class="st0" d="M1792,720h15v15h-15v-15Z"/>
    <path class="st0" d="M1808,720h15v15h-15v-15Z"/>
    <path class="st0" d="M1824,720h15v15h-15v-15Z"/>
    <path class="st0" d="M1840,720h15v15h-15v-15Z"/>
    <path class="st0" d="M1856,720h15v15h-15v-15Z"/>
    <path class="st0" d="M1872,720h15v15h-15v-15Z"/>
    <path class="st0" d="M1888,720h15v15h-15v-15Z"/>
    <path class="st0" d="M1904,720h15v15h-15v-15Z"/>
    <path class="st0" d="M1920,720h15v15h-15v-15Z"/>
    <path class="st0" d="M1936,720h15v15h-15v-15Z"/>
    <path class="st0" d="M1952,720h15v15h-15v-15Z"/>
    <path class="st0" d="M1968,720h15v15h-15v-15Z"/>
    <path class="st0" d="M1984,720h15v15h-15v-15Z"/>
    <path class="st0" d="M2000,720h15v15h-15v-15Z"/>
    <path class="st0" d="M2016,720h15v15h-15v-15Z"/>
    <path class="st0" d="M2032,720h15v15h-15v-15Z"/>
    <path class="st0" d="M2048,720h15v15h-15v-15Z"/>
    <path class="st0" d="M2064,720h15v15h-15v-15Z"/>
    <path class="st0" d="M2080,720h15v15h-15v-15Z"/>
    <path class="st0" d="M48,736h15v15h-15v-15Z"/>
    <path class="st0" d="M64,736h15v15h-15v-15Z"/>
    <path class="st0" d="M80,736h15v15h-15v-15Z"/>
    <path class="st0" d="M144,736h15v15h-15v-15Z"/>
    <path class="st0" d="M160,736h15v15h-15v-15Z"/>
    <path class="st0" d="M176,736h15v15h-15v-15Z"/>
    <path class="st0" d="M192,736h15v15h-15v-15Z"/>
    <path class="st0" d="M208,736h15v15h-15v-15Z"/>
    <path class="st0" d="M224,736h15v15h-15v-15Z"/>
    <path class="st0" d="M256,736h15v15h-15v-15Z"/>
    <path class="st0" d="M272,736h15v15h-15v-15Z"/>
    <path class="st0" d="M288,736h15v15h-15v-15Z"/>
    <path class="st0" d="M304,736h15v15h-15v-15Z"/>
    <path class="st0" d="M320,736h15v15h-15v-15Z"/>
    <path class="st0" d="M352,736h15v15h-15v-15Z"/>
    <path class="st0" d="M368,736h15v15h-15v-15Z"/>
    <path class="st0" d="M384,736h15v15h-15v-15Z"/>
    <path class="st0" d="M416,736h15v15h-15v-15Z"/>
    <path class="st0" d="M432,736h15v15h-15v-15Z"/>
    <path class="st0" d="M448,736h15v15h-15v-15Z"/>
    <path class="st0" d="M464,736h15v15h-15v-15Z"/>
    <path class="st0" d="M496,736h15v15h-15v-15Z"/>
    <path class="st0" d="M512,736h15v15h-15v-15Z"/>
    <path class="st0" d="M528,736h15v15h-15v-15Z"/>
    <path class="st0" d="M544,736h15v15h-15v-15Z"/>
    <path class="st0" d="M560,736h15v15h-15v-15Z"/>
    <path class="st0" d="M576,736h15v15h-15v-15Z"/>
    <path class="st0" d="M608,736h15v15h-15v-15Z"/>
    <path class="st0" d="M624,736h15v15h-15v-15Z"/>
    <path class="st0" d="M640,736h15v15h-15v-15Z"/>
    <path class="st0" d="M656,736h15v15h-15v-15Z"/>
    <path class="st0" d="M672,736h15v15h-15v-15Z"/>
    <path class="st0" d="M688,736h15v15h-15v-15Z"/>
    <path class="st0" d="M704,736h15v15h-15v-15Z"/>
    <path class="st0" d="M720,736h15v15h-15v-15Z"/>
    <path class="st0" d="M736,736h15v15h-15v-15Z"/>
    <path class="st0" d="M752,736h15v15h-15v-15Z"/>
    <path class="st0" d="M768,736h15v15h-15v-15Z"/>
    <path class="st0" d="M784,736h15v15h-15v-15Z"/>
    <path class="st0" d="M800,736h15v15h-15v-15Z"/>
    <path class="st0" d="M816,736h15v15h-15v-15Z"/>
    <path class="st0" d="M832,736h15v15h-15v-15Z"/>
    <path class="st0" d="M848,736h15v15h-15v-15Z"/>
    <path class="st0" d="M864,736h15v15h-15v-15Z"/>
    <path class="st0" d="M880,736h15v15h-15v-15Z"/>
    <path class="st0" d="M896,736h15v15h-15v-15Z"/>
    <path class="st0" d="M912,736h15v15h-15v-15Z"/>
    <path class="st0" d="M928,736h15v15h-15v-15Z"/>
    <path class="st0" d="M944,736h15v15h-15v-15Z"/>
    <path class="st0" d="M1024,736h15v15h-15v-15Z"/>
    <path class="st0" d="M1040,736h15v15h-15v-15Z"/>
    <path class="st0" d="M1056,736h15v15h-15v-15Z"/>
    <path class="st0" d="M1072,736h15v15h-15v-15Z"/>
    <path class="st0" d="M1088,736h15v15h-15v-15Z"/>
    <path class="st0" d="M1104,736h15v15h-15v-15Z"/>
    <path class="st0" d="M1120,736h15v15h-15v-15Z"/>
    <path class="st0" d="M1136,736h15v15h-15v-15Z"/>
    <path class="st0" d="M1152,736h15v15h-15v-15Z"/>
    <path class="st0" d="M1168,736h15v15h-15v-15Z"/>
    <path class="st0" d="M1184,736h15v15h-15v-15Z"/>
    <path class="st0" d="M1200,736h15v15h-15v-15Z"/>
    <path class="st0" d="M1216,736h15v15h-15v-15Z"/>
    <path class="st0" d="M1232,736h15v15h-15v-15Z"/>
    <path class="st0" d="M1264,736h15v15h-15v-15Z"/>
    <path class="st0" d="M1280,736h15v15h-15v-15Z"/>
    <path class="st0" d="M1296,736h15v15h-15v-15Z"/>
    <path class="st0" d="M1312,736h15v15h-15v-15Z"/>
    <path class="st0" d="M1344,736h15v15h-15v-15Z"/>
    <path class="st0" d="M1360,736h15v15h-15v-15Z"/>
    <path class="st0" d="M1376,736h15v15h-15v-15Z"/>
    <path class="st0" d="M1392,736h15v15h-15v-15Z"/>
    <path class="st0" d="M1408,736h15v15h-15v-15Z"/>
    <path class="st0" d="M1424,736h15v15h-15v-15Z"/>
    <path class="st0" d="M1440,736h15v15h-15v-15Z"/>
    <path class="st0" d="M1456,736h15v15h-15v-15Z"/>
    <path class="st0" d="M1472,736h15v15h-15v-15Z"/>
    <path class="st0" d="M1488,736h15v15h-15v-15Z"/>
    <path class="st0" d="M1504,736h15v15h-15v-15Z"/>
    <path class="st0" d="M1520,736h15v15h-15v-15Z"/>
    <path class="st0" d="M1536,736h15v15h-15v-15Z"/>
    <path class="st0" d="M1552,736h15v15h-15v-15Z"/>
    <path class="st0" d="M1568,736h15v15h-15v-15Z"/>
    <path class="st0" d="M1584,736h15v15h-15v-15Z"/>
    <path class="st0" d="M1600,736h15v15h-15v-15Z"/>
    <path class="st0" d="M1616,736h15v15h-15v-15Z"/>
    <path class="st0" d="M1632,736h15v15h-15v-15Z"/>
    <path class="st0" d="M1648,736h15v15h-15v-15Z"/>
    <path class="st0" d="M1664,736h15v15h-15v-15Z"/>
    <path class="st0" d="M1680,736h15v15h-15v-15Z"/>
    <path class="st0" d="M1696,736h15v15h-15v-15Z"/>
    <path class="st0" d="M1712,736h15v15h-15v-15Z"/>
    <path class="st0" d="M1728,736h15v15h-15v-15Z"/>
    <path class="st0" d="M1744,736h15v15h-15v-15Z"/>
    <path class="st0" d="M1760,736h15v15h-15v-15Z"/>
    <path class="st0" d="M1776,736h15v15h-15v-15Z"/>
    <path class="st0" d="M1792,736h15v15h-15v-15Z"/>
    <path class="st0" d="M1808,736h15v15h-15v-15Z"/>
    <path class="st0" d="M1824,736h15v15h-15v-15Z"/>
    <path class="st0" d="M1840,736h15v15h-15v-15Z"/>
    <path class="st0" d="M1856,736h15v15h-15v-15Z"/>
    <path class="st0" d="M1872,736h15v15h-15v-15Z"/>
    <path class="st0" d="M1888,736h15v15h-15v-15Z"/>
    <path class="st0" d="M1904,736h15v15h-15v-15Z"/>
    <path class="st0" d="M1920,736h15v15h-15v-15Z"/>
    <path class="st0" d="M1936,736h15v15h-15v-15Z"/>
    <path class="st0" d="M1952,736h15v15h-15v-15Z"/>
    <path class="st0" d="M1968,736h15v15h-15v-15Z"/>
    <path class="st0" d="M1984,736h15v15h-15v-15Z"/>
    <path class="st0" d="M2000,736h15v15h-15v-15Z"/>
    <path class="st0" d="M2016,736h15v15h-15v-15Z"/>
    <path class="st0" d="M2032,736h15v15h-15v-15Z"/>
    <path class="st0" d="M2048,736h15v15h-15v-15Z"/>
    <path class="st0" d="M2064,736h15v15h-15v-15Z"/>
    <path class="st0" d="M2080,736h15v15h-15v-15Z"/>
    <path class="st0" d="M48,752h15v15h-15v-15Z"/>
    <path class="st0" d="M64,752h15v15h-15v-15Z"/>
    <path class="st0" d="M96,752h15v15h-15v-15Z"/>
    <path class="st0" d="M112,752h15v15h-15v-15Z"/>
    <path class="st0" d="M128,752h15v15h-15v-15Z"/>
    <path class="st0" d="M160,752h15v15h-15v-15Z"/>
    <path class="st0" d="M176,752h15v15h-15v-15Z"/>
    <path class="st0" d="M192,752h15v15h-15v-15Z"/>
    <path class="st0" d="M208,752h15v15h-15v-15Z"/>
    <path class="st0" d="M224,752h15v15h-15v-15Z"/>
    <path class="st0" d="M256,752h15v15h-15v-15Z"/>
    <path class="st0" d="M272,752h15v15h-15v-15Z"/>
    <path class="st0" d="M288,752h15v15h-15v-15Z"/>
    <path class="st0" d="M304,752h15v15h-15v-15Z"/>
    <path class="st0" d="M320,752h15v15h-15v-15Z"/>
    <path class="st0" d="M352,752h15v15h-15v-15Z"/>
    <path class="st0" d="M368,752h15v15h-15v-15Z"/>
    <path class="st0" d="M384,752h15v15h-15v-15Z"/>
    <path class="st0" d="M400,752h15v15h-15v-15Z"/>
    <path class="st0" d="M416,752h15v15h-15v-15Z"/>
    <path class="st0" d="M432,752h15v15h-15v-15Z"/>
    <path class="st0" d="M448,752h15v15h-15v-15Z"/>
    <path class="st0" d="M464,752h15v15h-15v-15Z"/>
    <path class="st0" d="M496,752h15v15h-15v-15Z"/>
    <path class="st0" d="M512,752h15v15h-15v-15Z"/>
    <path class="st0" d="M528,752h15v15h-15v-15Z"/>
    <path class="st0" d="M544,752h15v15h-15v-15Z"/>
    <path class="st0" d="M560,752h15v15h-15v-15Z"/>
    <path class="st0" d="M576,752h15v15h-15v-15Z"/>
    <path class="st0" d="M592,752h15v15h-15v-15Z"/>
    <path class="st0" d="M608,752h15v15h-15v-15Z"/>
    <path class="st0" d="M624,752h15v15h-15v-15Z"/>
    <path class="st0" d="M640,752h15v15h-15v-15Z"/>
    <path class="st0" d="M656,752h15v15h-15v-15Z"/>
    <path class="st0" d="M672,752h15v15h-15v-15Z"/>
    <path class="st0" d="M688,752h15v15h-15v-15Z"/>
    <path class="st0" d="M704,752h15v15h-15v-15Z"/>
    <path class="st0" d="M720,752h15v15h-15v-15Z"/>
    <path class="st0" d="M736,752h15v15h-15v-15Z"/>
    <path class="st0" d="M752,752h15v15h-15v-15Z"/>
    <path class="st0" d="M768,752h15v15h-15v-15Z"/>
    <path class="st0" d="M784,752h15v15h-15v-15Z"/>
    <path class="st0" d="M800,752h15v15h-15v-15Z"/>
    <path class="st0" d="M816,752h15v15h-15v-15Z"/>
    <path class="st0" d="M832,752h15v15h-15v-15Z"/>
    <path class="st0" d="M848,752h15v15h-15v-15Z"/>
    <path class="st0" d="M864,752h15v15h-15v-15Z"/>
    <path class="st0" d="M880,752h15v15h-15v-15Z"/>
    <path class="st0" d="M896,752h15v15h-15v-15Z"/>
    <path class="st0" d="M912,752h15v15h-15v-15Z"/>
    <path class="st0" d="M928,752h15v15h-15v-15Z"/>
    <path class="st0" d="M960,752h15v15h-15v-15Z"/>
    <path class="st0" d="M976,752h15v15h-15v-15Z"/>
    <path class="st0" d="M992,752h15v15h-15v-15Z"/>
    <path class="st0" d="M1008,752h15v15h-15v-15Z"/>
    <path class="st0" d="M1024,752h15v15h-15v-15Z"/>
    <path class="st0" d="M1040,752h15v15h-15v-15Z"/>
    <path class="st0" d="M1056,752h15v15h-15v-15Z"/>
    <path class="st0" d="M1072,752h15v15h-15v-15Z"/>
    <path class="st0" d="M1088,752h15v15h-15v-15Z"/>
    <path class="st0" d="M1104,752h15v15h-15v-15Z"/>
    <path class="st0" d="M1120,752h15v15h-15v-15Z"/>
    <path class="st0" d="M1136,752h15v15h-15v-15Z"/>
    <path class="st0" d="M1152,752h15v15h-15v-15Z"/>
    <path class="st0" d="M1168,752h15v15h-15v-15Z"/>
    <path class="st0" d="M1184,752h15v15h-15v-15Z"/>
    <path class="st0" d="M1200,752h15v15h-15v-15Z"/>
    <path class="st0" d="M1216,752h15v15h-15v-15Z"/>
    <path class="st0" d="M1232,752h15v15h-15v-15Z"/>
    <path class="st0" d="M1264,752h15v15h-15v-15Z"/>
    <path class="st0" d="M1280,752h15v15h-15v-15Z"/>
    <path class="st0" d="M1296,752h15v15h-15v-15Z"/>
    <path class="st0" d="M1312,752h15v15h-15v-15Z"/>
    <path class="st0" d="M1344,752h15v15h-15v-15Z"/>
    <path class="st0" d="M1360,752h15v15h-15v-15Z"/>
    <path class="st0" d="M1376,752h15v15h-15v-15Z"/>
    <path class="st0" d="M1392,752h15v15h-15v-15Z"/>
    <path class="st0" d="M1408,752h15v15h-15v-15Z"/>
    <path class="st0" d="M1424,752h15v15h-15v-15Z"/>
    <path class="st0" d="M1440,752h15v15h-15v-15Z"/>
    <path class="st0" d="M1456,752h15v15h-15v-15Z"/>
    <path class="st0" d="M1472,752h15v15h-15v-15Z"/>
    <path class="st0" d="M1488,752h15v15h-15v-15Z"/>
    <path class="st0" d="M1504,752h15v15h-15v-15Z"/>
    <path class="st0" d="M1520,752h15v15h-15v-15Z"/>
    <path class="st0" d="M1536,752h15v15h-15v-15Z"/>
    <path class="st0" d="M1552,752h15v15h-15v-15Z"/>
    <path class="st0" d="M1568,752h15v15h-15v-15Z"/>
    <path class="st0" d="M1584,752h15v15h-15v-15Z"/>
    <path class="st0" d="M1600,752h15v15h-15v-15Z"/>
    <path class="st0" d="M1616,752h15v15h-15v-15Z"/>
    <path class="st0" d="M1632,752h15v15h-15v-15Z"/>
    <path class="st0" d="M1648,752h15v15h-15v-15Z"/>
    <path class="st0" d="M1664,752h15v15h-15v-15Z"/>
    <path class="st0" d="M1680,752h15v15h-15v-15Z"/>
    <path class="st0" d="M1696,752h15v15h-15v-15Z"/>
    <path class="st0" d="M1712,752h15v15h-15v-15Z"/>
    <path class="st0" d="M1728,752h15v15h-15v-15Z"/>
    <path class="st0" d="M1744,752h15v15h-15v-15Z"/>
    <path class="st0" d="M1760,752h15v15h-15v-15Z"/>
    <path class="st0" d="M1776,752h15v15h-15v-15Z"/>
    <path class="st0" d="M1792,752h15v15h-15v-15Z"/>
    <path class="st0" d="M1808,752h15v15h-15v-15Z"/>
    <path class="st0" d="M1824,752h15v15h-15v-15Z"/>
    <path class="st0" d="M1840,752h15v15h-15v-15Z"/>
    <path class="st0" d="M1856,752h15v15h-15v-15Z"/>
    <path class="st0" d="M1872,752h15v15h-15v-15Z"/>
    <path class="st0" d="M1888,752h15v15h-15v-15Z"/>
    <path class="st0" d="M1904,752h15v15h-15v-15Z"/>
    <path class="st0" d="M1920,752h15v15h-15v-15Z"/>
    <path class="st0" d="M1936,752h15v15h-15v-15Z"/>
    <path class="st0" d="M1952,752h15v15h-15v-15Z"/>
    <path class="st0" d="M1968,752h15v15h-15v-15Z"/>
    <path class="st0" d="M1984,752h15v15h-15v-15Z"/>
    <path class="st0" d="M2000,752h15v15h-15v-15Z"/>
    <path class="st0" d="M2016,752h15v15h-15v-15Z"/>
    <path class="st0" d="M2032,752h15v15h-15v-15Z"/>
    <path class="st0" d="M2048,752h15v15h-15v-15Z"/>
    <path class="st0" d="M2064,752h15v15h-15v-15Z"/>
    <path class="st0" d="M2080,752h15v15h-15v-15Z"/>
    <path class="st0" d="M48,768h15v15h-15v-15Z"/>
    <path class="st0" d="M64,768h15v15h-15v-15Z"/>
    <path class="st0" d="M96,768h15v15h-15v-15Z"/>
    <path class="st0" d="M112,768h15v15h-15v-15Z"/>
    <path class="st0" d="M128,768h15v15h-15v-15Z"/>
    <path class="st0" d="M160,768h15v15h-15v-15Z"/>
    <path class="st0" d="M176,768h15v15h-15v-15Z"/>
    <path class="st0" d="M224,768h15v15h-15v-15Z"/>
    <path class="st0" d="M256,768h15v15h-15v-15Z"/>
    <path class="st0" d="M272,768h15v15h-15v-15Z"/>
    <path class="st0" d="M320,768h15v15h-15v-15Z"/>
    <path class="st0" d="M352,768h15v15h-15v-15Z"/>
    <path class="st0" d="M368,768h15v15h-15v-15Z"/>
    <path class="st0" d="M416,768h15v15h-15v-15Z"/>
    <path class="st0" d="M432,768h15v15h-15v-15Z"/>
    <path class="st0" d="M448,768h15v15h-15v-15Z"/>
    <path class="st0" d="M512,768h15v15h-15v-15Z"/>
    <path class="st0" d="M528,768h15v15h-15v-15Z"/>
    <path class="st0" d="M544,768h15v15h-15v-15Z"/>
    <path class="st0" d="M560,768h15v15h-15v-15Z"/>
    <path class="st0" d="M608,768h15v15h-15v-15Z"/>
    <path class="st0" d="M624,768h15v15h-15v-15Z"/>
    <path class="st0" d="M640,768h15v15h-15v-15Z"/>
    <path class="st0" d="M672,768h15v15h-15v-15Z"/>
    <path class="st0" d="M688,768h15v15h-15v-15Z"/>
    <path class="st0" d="M704,768h15v15h-15v-15Z"/>
    <path class="st0" d="M736,768h15v15h-15v-15Z"/>
    <path class="st0" d="M752,768h15v15h-15v-15Z"/>
    <path class="st0" d="M816,768h15v15h-15v-15Z"/>
    <path class="st0" d="M832,768h15v15h-15v-15Z"/>
    <path class="st0" d="M848,768h15v15h-15v-15Z"/>
    <path class="st0" d="M864,768h15v15h-15v-15Z"/>
    <path class="st0" d="M880,768h15v15h-15v-15Z"/>
    <path class="st0" d="M896,768h15v15h-15v-15Z"/>
    <path class="st0" d="M912,768h15v15h-15v-15Z"/>
    <path class="st0" d="M928,768h15v15h-15v-15Z"/>
    <path class="st0" d="M960,768h15v15h-15v-15Z"/>
    <path class="st0" d="M976,768h15v15h-15v-15Z"/>
    <path class="st0" d="M992,768h15v15h-15v-15Z"/>
    <path class="st0" d="M1008,768h15v15h-15v-15Z"/>
    <path class="st0" d="M1024,768h15v15h-15v-15Z"/>
    <path class="st0" d="M1056,768h15v15h-15v-15Z"/>
    <path class="st0" d="M1072,768h15v15h-15v-15Z"/>
    <path class="st0" d="M1088,768h15v15h-15v-15Z"/>
    <path class="st0" d="M1120,768h15v15h-15v-15Z"/>
    <path class="st0" d="M1152,768h15v15h-15v-15Z"/>
    <path class="st0" d="M1200,768h15v15h-15v-15Z"/>
    <path class="st0" d="M1216,768h15v15h-15v-15Z"/>
    <path class="st0" d="M1280,768h15v15h-15v-15Z"/>
    <path class="st0" d="M1296,768h15v15h-15v-15Z"/>
    <path class="st0" d="M1312,768h15v15h-15v-15Z"/>
    <path class="st0" d="M1344,768h15v15h-15v-15Z"/>
    <path class="st0" d="M1392,768h15v15h-15v-15Z"/>
    <path class="st0" d="M1408,768h15v15h-15v-15Z"/>
    <path class="st0" d="M1424,768h15v15h-15v-15Z"/>
    <path class="st0" d="M1440,768h15v15h-15v-15Z"/>
    <path class="st0" d="M1456,768h15v15h-15v-15Z"/>
    <path class="st0" d="M1472,768h15v15h-15v-15Z"/>
    <path class="st0" d="M1488,768h15v15h-15v-15Z"/>
    <path class="st0" d="M1504,768h15v15h-15v-15Z"/>
    <path class="st0" d="M1520,768h15v15h-15v-15Z"/>
    <path class="st0" d="M1536,768h15v15h-15v-15Z"/>
    <path class="st0" d="M1552,768h15v15h-15v-15Z"/>
    <path class="st0" d="M1568,768h15v15h-15v-15Z"/>
    <path class="st0" d="M1584,768h15v15h-15v-15Z"/>
    <path class="st0" d="M1600,768h15v15h-15v-15Z"/>
    <path class="st0" d="M1616,768h15v15h-15v-15Z"/>
    <path class="st0" d="M1632,768h15v15h-15v-15Z"/>
    <path class="st0" d="M1648,768h15v15h-15v-15Z"/>
    <path class="st0" d="M1664,768h15v15h-15v-15Z"/>
    <path class="st0" d="M1680,768h15v15h-15v-15Z"/>
    <path class="st0" d="M1696,768h15v15h-15v-15Z"/>
    <path class="st0" d="M1712,768h15v15h-15v-15Z"/>
    <path class="st0" d="M1728,768h15v15h-15v-15Z"/>
    <path class="st0" d="M1744,768h15v15h-15v-15Z"/>
    <path class="st0" d="M1760,768h15v15h-15v-15Z"/>
    <path class="st0" d="M1776,768h15v15h-15v-15Z"/>
    <path class="st0" d="M1792,768h15v15h-15v-15Z"/>
    <path class="st0" d="M1808,768h15v15h-15v-15Z"/>
    <path class="st0" d="M1824,768h15v15h-15v-15Z"/>
    <path class="st0" d="M1840,768h15v15h-15v-15Z"/>
    <path class="st0" d="M1856,768h15v15h-15v-15Z"/>
    <path class="st0" d="M1872,768h15v15h-15v-15Z"/>
    <path class="st0" d="M1888,768h15v15h-15v-15Z"/>
    <path class="st0" d="M1904,768h15v15h-15v-15Z"/>
    <path class="st0" d="M1920,768h15v15h-15v-15Z"/>
    <path class="st0" d="M1936,768h15v15h-15v-15Z"/>
    <path class="st0" d="M1952,768h15v15h-15v-15Z"/>
    <path class="st0" d="M1968,768h15v15h-15v-15Z"/>
    <path class="st0" d="M1984,768h15v15h-15v-15Z"/>
    <path class="st0" d="M2000,768h15v15h-15v-15Z"/>
    <path class="st0" d="M2016,768h15v15h-15v-15Z"/>
    <path class="st0" d="M2032,768h15v15h-15v-15Z"/>
    <path class="st0" d="M2048,768h15v15h-15v-15Z"/>
    <path class="st0" d="M2064,768h15v15h-15v-15Z"/>
    <path class="st0" d="M2080,768h15v15h-15v-15Z"/>
    <path class="st0" d="M48,784h15v15h-15v-15Z"/>
    <path class="st0" d="M64,784h15v15h-15v-15Z"/>
    <path class="st0" d="M96,784h15v15h-15v-15Z"/>
    <path class="st0" d="M112,784h15v15h-15v-15Z"/>
    <path class="st0" d="M128,784h15v15h-15v-15Z"/>
    <path class="st0" d="M160,784h15v15h-15v-15Z"/>
    <path class="st0" d="M192,784h15v15h-15v-15Z"/>
    <path class="st0" d="M208,784h15v15h-15v-15Z"/>
    <path class="st0" d="M256,784h15v15h-15v-15Z"/>
    <path class="st0" d="M288,784h15v15h-15v-15Z"/>
    <path class="st0" d="M304,784h15v15h-15v-15Z"/>
    <path class="st0" d="M352,784h15v15h-15v-15Z"/>
    <path class="st0" d="M368,784h15v15h-15v-15Z"/>
    <path class="st0" d="M384,784h15v15h-15v-15Z"/>
    <path class="st0" d="M416,784h15v15h-15v-15Z"/>
    <path class="st0" d="M432,784h15v15h-15v-15Z"/>
    <path class="st0" d="M448,784h15v15h-15v-15Z"/>
    <path class="st0" d="M464,784h15v15h-15v-15Z"/>
    <path class="st0" d="M496,784h15v15h-15v-15Z"/>
    <path class="st0" d="M512,784h15v15h-15v-15Z"/>
    <path class="st0" d="M528,784h15v15h-15v-15Z"/>
    <path class="st0" d="M544,784h15v15h-15v-15Z"/>
    <path class="st0" d="M560,784h15v15h-15v-15Z"/>
    <path class="st0" d="M576,784h15v15h-15v-15Z"/>
    <path class="st0" d="M608,784h15v15h-15v-15Z"/>
    <path class="st0" d="M624,784h15v15h-15v-15Z"/>
    <path class="st0" d="M640,784h15v15h-15v-15Z"/>
    <path class="st0" d="M672,784h15v15h-15v-15Z"/>
    <path class="st0" d="M688,784h15v15h-15v-15Z"/>
    <path class="st0" d="M704,784h15v15h-15v-15Z"/>
    <path class="st0" d="M736,784h15v15h-15v-15Z"/>
    <path class="st0" d="M768,784h15v15h-15v-15Z"/>
    <path class="st0" d="M784,784h15v15h-15v-15Z"/>
    <path class="st0" d="M800,784h15v15h-15v-15Z"/>
    <path class="st0" d="M832,784h15v15h-15v-15Z"/>
    <path class="st0" d="M848,784h15v15h-15v-15Z"/>
    <path class="st0" d="M864,784h15v15h-15v-15Z"/>
    <path class="st0" d="M880,784h15v15h-15v-15Z"/>
    <path class="st0" d="M896,784h15v15h-15v-15Z"/>
    <path class="st0" d="M912,784h15v15h-15v-15Z"/>
    <path class="st0" d="M928,784h15v15h-15v-15Z"/>
    <path class="st0" d="M944,784h15v15h-15v-15Z"/>
    <path class="st0" d="M1008,784h15v15h-15v-15Z"/>
    <path class="st0" d="M1024,784h15v15h-15v-15Z"/>
    <path class="st0" d="M1056,784h15v15h-15v-15Z"/>
    <path class="st0" d="M1072,784h15v15h-15v-15Z"/>
    <path class="st0" d="M1088,784h15v15h-15v-15Z"/>
    <path class="st0" d="M1120,784h15v15h-15v-15Z"/>
    <path class="st0" d="M1168,784h15v15h-15v-15Z"/>
    <path class="st0" d="M1184,784h15v15h-15v-15Z"/>
    <path class="st0" d="M1216,784h15v15h-15v-15Z"/>
    <path class="st0" d="M1232,784h15v15h-15v-15Z"/>
    <path class="st0" d="M1264,784h15v15h-15v-15Z"/>
    <path class="st0" d="M1280,784h15v15h-15v-15Z"/>
    <path class="st0" d="M1296,784h15v15h-15v-15Z"/>
    <path class="st0" d="M1312,784h15v15h-15v-15Z"/>
    <path class="st0" d="M1360,784h15v15h-15v-15Z"/>
    <path class="st0" d="M1376,784h15v15h-15v-15Z"/>
    <path class="st0" d="M1408,784h15v15h-15v-15Z"/>
    <path class="st0" d="M1424,784h15v15h-15v-15Z"/>
    <path class="st0" d="M1440,784h15v15h-15v-15Z"/>
    <path class="st0" d="M1456,784h15v15h-15v-15Z"/>
    <path class="st0" d="M1472,784h15v15h-15v-15Z"/>
    <path class="st0" d="M1488,784h15v15h-15v-15Z"/>
    <path class="st0" d="M1504,784h15v15h-15v-15Z"/>
    <path class="st0" d="M1520,784h15v15h-15v-15Z"/>
    <path class="st0" d="M1536,784h15v15h-15v-15Z"/>
    <path class="st0" d="M1552,784h15v15h-15v-15Z"/>
    <path class="st0" d="M1568,784h15v15h-15v-15Z"/>
    <path class="st0" d="M1584,784h15v15h-15v-15Z"/>
    <path class="st0" d="M1600,784h15v15h-15v-15Z"/>
    <path class="st0" d="M1616,784h15v15h-15v-15Z"/>
    <path class="st0" d="M1632,784h15v15h-15v-15Z"/>
    <path class="st0" d="M1648,784h15v15h-15v-15Z"/>
    <path class="st0" d="M1664,784h15v15h-15v-15Z"/>
    <path class="st0" d="M1680,784h15v15h-15v-15Z"/>
    <path class="st0" d="M1696,784h15v15h-15v-15Z"/>
    <path class="st0" d="M1712,784h15v15h-15v-15Z"/>
    <path class="st0" d="M1728,784h15v15h-15v-15Z"/>
    <path class="st0" d="M1744,784h15v15h-15v-15Z"/>
    <path class="st0" d="M1760,784h15v15h-15v-15Z"/>
    <path class="st0" d="M1776,784h15v15h-15v-15Z"/>
    <path class="st0" d="M1792,784h15v15h-15v-15Z"/>
    <path class="st0" d="M1808,784h15v15h-15v-15Z"/>
    <path class="st0" d="M1824,784h15v15h-15v-15Z"/>
    <path class="st0" d="M1840,784h15v15h-15v-15Z"/>
    <path class="st0" d="M1856,784h15v15h-15v-15Z"/>
    <path class="st0" d="M1872,784h15v15h-15v-15Z"/>
    <path class="st0" d="M1888,784h15v15h-15v-15Z"/>
    <path class="st0" d="M1904,784h15v15h-15v-15Z"/>
    <path class="st0" d="M1920,784h15v15h-15v-15Z"/>
    <path class="st0" d="M1936,784h15v15h-15v-15Z"/>
    <path class="st0" d="M1952,784h15v15h-15v-15Z"/>
    <path class="st0" d="M1968,784h15v15h-15v-15Z"/>
    <path class="st0" d="M1984,784h15v15h-15v-15Z"/>
    <path class="st0" d="M2000,784h15v15h-15v-15Z"/>
    <path class="st0" d="M2016,784h15v15h-15v-15Z"/>
    <path class="st0" d="M2032,784h15v15h-15v-15Z"/>
    <path class="st0" d="M2048,784h15v15h-15v-15Z"/>
    <path class="st0" d="M2064,784h15v15h-15v-15Z"/>
    <path class="st0" d="M2080,784h15v15h-15v-15Z"/>
    <path class="st0" d="M48,800h15v15h-15v-15Z"/>
    <path class="st0" d="M64,800h15v15h-15v-15Z"/>
    <path class="st0" d="M160,800h15v15h-15v-15Z"/>
    <path class="st0" d="M192,800h15v15h-15v-15Z"/>
    <path class="st0" d="M208,800h15v15h-15v-15Z"/>
    <path class="st0" d="M224,800h15v15h-15v-15Z"/>
    <path class="st0" d="M256,800h15v15h-15v-15Z"/>
    <path class="st0" d="M288,800h15v15h-15v-15Z"/>
    <path class="st0" d="M304,800h15v15h-15v-15Z"/>
    <path class="st0" d="M320,800h15v15h-15v-15Z"/>
    <path class="st0" d="M352,800h15v15h-15v-15Z"/>
    <path class="st0" d="M368,800h15v15h-15v-15Z"/>
    <path class="st0" d="M384,800h15v15h-15v-15Z"/>
    <path class="st0" d="M416,800h15v15h-15v-15Z"/>
    <path class="st0" d="M432,800h15v15h-15v-15Z"/>
    <path class="st0" d="M448,800h15v15h-15v-15Z"/>
    <path class="st0" d="M464,800h15v15h-15v-15Z"/>
    <path class="st0" d="M496,800h15v15h-15v-15Z"/>
    <path class="st0" d="M512,800h15v15h-15v-15Z"/>
    <path class="st0" d="M528,800h15v15h-15v-15Z"/>
    <path class="st0" d="M544,800h15v15h-15v-15Z"/>
    <path class="st0" d="M560,800h15v15h-15v-15Z"/>
    <path class="st0" d="M576,800h15v15h-15v-15Z"/>
    <path class="st0" d="M608,800h15v15h-15v-15Z"/>
    <path class="st0" d="M624,800h15v15h-15v-15Z"/>
    <path class="st0" d="M640,800h15v15h-15v-15Z"/>
    <path class="st0" d="M672,800h15v15h-15v-15Z"/>
    <path class="st0" d="M688,800h15v15h-15v-15Z"/>
    <path class="st0" d="M704,800h15v15h-15v-15Z"/>
    <path class="st0" d="M736,800h15v15h-15v-15Z"/>
    <path class="st0" d="M832,800h15v15h-15v-15Z"/>
    <path class="st0" d="M848,800h15v15h-15v-15Z"/>
    <path class="st0" d="M864,800h15v15h-15v-15Z"/>
    <path class="st0" d="M880,800h15v15h-15v-15Z"/>
    <path class="st0" d="M896,800h15v15h-15v-15Z"/>
    <path class="st0" d="M912,800h15v15h-15v-15Z"/>
    <path class="st0" d="M928,800h15v15h-15v-15Z"/>
    <path class="st0" d="M944,800h15v15h-15v-15Z"/>
    <path class="st0" d="M960,800h15v15h-15v-15Z"/>
    <path class="st0" d="M976,800h15v15h-15v-15Z"/>
    <path class="st0" d="M992,800h15v15h-15v-15Z"/>
    <path class="st0" d="M1024,800h15v15h-15v-15Z"/>
    <path class="st0" d="M1040,800h15v15h-15v-15Z"/>
    <path class="st0" d="M1120,800h15v15h-15v-15Z"/>
    <path class="st0" d="M1152,800h15v15h-15v-15Z"/>
    <path class="st0" d="M1168,800h15v15h-15v-15Z"/>
    <path class="st0" d="M1184,800h15v15h-15v-15Z"/>
    <path class="st0" d="M1216,800h15v15h-15v-15Z"/>
    <path class="st0" d="M1232,800h15v15h-15v-15Z"/>
    <path class="st0" d="M1264,800h15v15h-15v-15Z"/>
    <path class="st0" d="M1280,800h15v15h-15v-15Z"/>
    <path class="st0" d="M1296,800h15v15h-15v-15Z"/>
    <path class="st0" d="M1312,800h15v15h-15v-15Z"/>
    <path class="st0" d="M1344,800h15v15h-15v-15Z"/>
    <path class="st0" d="M1360,800h15v15h-15v-15Z"/>
    <path class="st0" d="M1376,800h15v15h-15v-15Z"/>
    <path class="st0" d="M1408,800h15v15h-15v-15Z"/>
    <path class="st0" d="M1424,800h15v15h-15v-15Z"/>
    <path class="st0" d="M1440,800h15v15h-15v-15Z"/>
    <path class="st0" d="M1456,800h15v15h-15v-15Z"/>
    <path class="st0" d="M1472,800h15v15h-15v-15Z"/>
    <path class="st0" d="M1488,800h15v15h-15v-15Z"/>
    <path class="st0" d="M1504,800h15v15h-15v-15Z"/>
    <path class="st0" d="M1520,800h15v15h-15v-15Z"/>
    <path class="st0" d="M1536,800h15v15h-15v-15Z"/>
    <path class="st0" d="M1552,800h15v15h-15v-15Z"/>
    <path class="st0" d="M1568,800h15v15h-15v-15Z"/>
    <path class="st0" d="M1584,800h15v15h-15v-15Z"/>
    <path class="st0" d="M1600,800h15v15h-15v-15Z"/>
    <path class="st0" d="M1616,800h15v15h-15v-15Z"/>
    <path class="st0" d="M1632,800h15v15h-15v-15Z"/>
    <path class="st0" d="M1648,800h15v15h-15v-15Z"/>
    <path class="st0" d="M1664,800h15v15h-15v-15Z"/>
    <path class="st0" d="M1680,800h15v15h-15v-15Z"/>
    <path class="st0" d="M1696,800h15v15h-15v-15Z"/>
    <path class="st0" d="M1712,800h15v15h-15v-15Z"/>
    <path class="st0" d="M1728,800h15v15h-15v-15Z"/>
    <path class="st0" d="M1744,800h15v15h-15v-15Z"/>
    <path class="st0" d="M1760,800h15v15h-15v-15Z"/>
    <path class="st0" d="M1776,800h15v15h-15v-15Z"/>
    <path class="st0" d="M1792,800h15v15h-15v-15Z"/>
    <path class="st0" d="M1808,800h15v15h-15v-15Z"/>
    <path class="st0" d="M1824,800h15v15h-15v-15Z"/>
    <path class="st0" d="M1840,800h15v15h-15v-15Z"/>
    <path class="st0" d="M1856,800h15v15h-15v-15Z"/>
    <path class="st0" d="M1872,800h15v15h-15v-15Z"/>
    <path class="st0" d="M1888,800h15v15h-15v-15Z"/>
    <path class="st0" d="M1904,800h15v15h-15v-15Z"/>
    <path class="st0" d="M1920,800h15v15h-15v-15Z"/>
    <path class="st0" d="M1936,800h15v15h-15v-15Z"/>
    <path class="st0" d="M1952,800h15v15h-15v-15Z"/>
    <path class="st0" d="M1968,800h15v15h-15v-15Z"/>
    <path class="st0" d="M1984,800h15v15h-15v-15Z"/>
    <path class="st0" d="M2000,800h15v15h-15v-15Z"/>
    <path class="st0" d="M2016,800h15v15h-15v-15Z"/>
    <path class="st0" d="M2032,800h15v15h-15v-15Z"/>
    <path class="st0" d="M2048,800h15v15h-15v-15Z"/>
    <path class="st0" d="M2064,800h15v15h-15v-15Z"/>
    <path class="st0" d="M2080,800h15v15h-15v-15Z"/>
    <path class="st0" d="M48,816h15v15h-15v-15Z"/>
    <path class="st0" d="M64,816h15v15h-15v-15Z"/>
    <path class="st0" d="M96,816h15v15h-15v-15Z"/>
    <path class="st0" d="M112,816h15v15h-15v-15Z"/>
    <path class="st0" d="M128,816h15v15h-15v-15Z"/>
    <path class="st0" d="M160,816h15v15h-15v-15Z"/>
    <path class="st0" d="M192,816h15v15h-15v-15Z"/>
    <path class="st0" d="M208,816h15v15h-15v-15Z"/>
    <path class="st0" d="M224,816h15v15h-15v-15Z"/>
    <path class="st0" d="M256,816h15v15h-15v-15Z"/>
    <path class="st0" d="M288,816h15v15h-15v-15Z"/>
    <path class="st0" d="M304,816h15v15h-15v-15Z"/>
    <path class="st0" d="M320,816h15v15h-15v-15Z"/>
    <path class="st0" d="M352,816h15v15h-15v-15Z"/>
    <path class="st0" d="M368,816h15v15h-15v-15Z"/>
    <path class="st0" d="M384,816h15v15h-15v-15Z"/>
    <path class="st0" d="M416,816h15v15h-15v-15Z"/>
    <path class="st0" d="M432,816h15v15h-15v-15Z"/>
    <path class="st0" d="M448,816h15v15h-15v-15Z"/>
    <path class="st0" d="M464,816h15v15h-15v-15Z"/>
    <path class="st0" d="M496,816h15v15h-15v-15Z"/>
    <path class="st0" d="M512,816h15v15h-15v-15Z"/>
    <path class="st0" d="M544,816h15v15h-15v-15Z"/>
    <path class="st0" d="M560,816h15v15h-15v-15Z"/>
    <path class="st0" d="M576,816h15v15h-15v-15Z"/>
    <path class="st0" d="M608,816h15v15h-15v-15Z"/>
    <path class="st0" d="M624,816h15v15h-15v-15Z"/>
    <path class="st0" d="M640,816h15v15h-15v-15Z"/>
    <path class="st0" d="M656,816h15v15h-15v-15Z"/>
    <path class="st0" d="M688,816h15v15h-15v-15Z"/>
    <path class="st0" d="M720,816h15v15h-15v-15Z"/>
    <path class="st0" d="M736,816h15v15h-15v-15Z"/>
    <path class="st0" d="M768,816h15v15h-15v-15Z"/>
    <path class="st0" d="M784,816h15v15h-15v-15Z"/>
    <path class="st0" d="M800,816h15v15h-15v-15Z"/>
    <path class="st0" d="M816,816h15v15h-15v-15Z"/>
    <path class="st0" d="M832,816h15v15h-15v-15Z"/>
    <path class="st0" d="M848,816h15v15h-15v-15Z"/>
    <path class="st0" d="M864,816h15v15h-15v-15Z"/>
    <path class="st0" d="M880,816h15v15h-15v-15Z"/>
    <path class="st0" d="M896,816h15v15h-15v-15Z"/>
    <path class="st0" d="M912,816h15v15h-15v-15Z"/>
    <path class="st0" d="M928,816h15v15h-15v-15Z"/>
    <path class="st0" d="M944,816h15v15h-15v-15Z"/>
    <path class="st0" d="M960,816h15v15h-15v-15Z"/>
    <path class="st0" d="M976,816h15v15h-15v-15Z"/>
    <path class="st0" d="M992,816h15v15h-15v-15Z"/>
    <path class="st0" d="M1024,816h15v15h-15v-15Z"/>
    <path class="st0" d="M1040,816h15v15h-15v-15Z"/>
    <path class="st0" d="M1056,816h15v15h-15v-15Z"/>
    <path class="st0" d="M1072,816h15v15h-15v-15Z"/>
    <path class="st0" d="M1088,816h15v15h-15v-15Z"/>
    <path class="st0" d="M1120,816h15v15h-15v-15Z"/>
    <path class="st0" d="M1152,816h15v15h-15v-15Z"/>
    <path class="st0" d="M1168,816h15v15h-15v-15Z"/>
    <path class="st0" d="M1184,816h15v15h-15v-15Z"/>
    <path class="st0" d="M1216,816h15v15h-15v-15Z"/>
    <path class="st0" d="M1232,816h15v15h-15v-15Z"/>
    <path class="st0" d="M1264,816h15v15h-15v-15Z"/>
    <path class="st0" d="M1280,816h15v15h-15v-15Z"/>
    <path class="st0" d="M1312,816h15v15h-15v-15Z"/>
    <path class="st0" d="M1344,816h15v15h-15v-15Z"/>
    <path class="st0" d="M1360,816h15v15h-15v-15Z"/>
    <path class="st0" d="M1376,816h15v15h-15v-15Z"/>
    <path class="st0" d="M1408,816h15v15h-15v-15Z"/>
    <path class="st0" d="M1424,816h15v15h-15v-15Z"/>
    <path class="st0" d="M1440,816h15v15h-15v-15Z"/>
    <path class="st0" d="M1456,816h15v15h-15v-15Z"/>
    <path class="st0" d="M1472,816h15v15h-15v-15Z"/>
    <path class="st0" d="M1488,816h15v15h-15v-15Z"/>
    <path class="st0" d="M1504,816h15v15h-15v-15Z"/>
    <path class="st0" d="M1520,816h15v15h-15v-15Z"/>
    <path class="st0" d="M1536,816h15v15h-15v-15Z"/>
    <path class="st0" d="M1552,816h15v15h-15v-15Z"/>
    <path class="st0" d="M1568,816h15v15h-15v-15Z"/>
    <path class="st0" d="M1584,816h15v15h-15v-15Z"/>
    <path class="st0" d="M1600,816h15v15h-15v-15Z"/>
    <path class="st0" d="M1616,816h15v15h-15v-15Z"/>
    <path class="st0" d="M1632,816h15v15h-15v-15Z"/>
    <path class="st0" d="M1648,816h15v15h-15v-15Z"/>
    <path class="st0" d="M1664,816h15v15h-15v-15Z"/>
    <path class="st0" d="M1680,816h15v15h-15v-15Z"/>
    <path class="st0" d="M1696,816h15v15h-15v-15Z"/>
    <path class="st0" d="M1712,816h15v15h-15v-15Z"/>
    <path class="st0" d="M1728,816h15v15h-15v-15Z"/>
    <path class="st0" d="M1744,816h15v15h-15v-15Z"/>
    <path class="st0" d="M1760,816h15v15h-15v-15Z"/>
    <path class="st0" d="M1776,816h15v15h-15v-15Z"/>
    <path class="st0" d="M1792,816h15v15h-15v-15Z"/>
    <path class="st0" d="M1808,816h15v15h-15v-15Z"/>
    <path class="st0" d="M1824,816h15v15h-15v-15Z"/>
    <path class="st0" d="M1840,816h15v15h-15v-15Z"/>
    <path class="st0" d="M1856,816h15v15h-15v-15Z"/>
    <path class="st0" d="M1872,816h15v15h-15v-15Z"/>
    <path class="st0" d="M1888,816h15v15h-15v-15Z"/>
    <path class="st0" d="M1904,816h15v15h-15v-15Z"/>
    <path class="st0" d="M1920,816h15v15h-15v-15Z"/>
    <path class="st0" d="M1936,816h15v15h-15v-15Z"/>
    <path class="st0" d="M1952,816h15v15h-15v-15Z"/>
    <path class="st0" d="M1968,816h15v15h-15v-15Z"/>
    <path class="st0" d="M1984,816h15v15h-15v-15Z"/>
    <path class="st0" d="M2000,816h15v15h-15v-15Z"/>
    <path class="st0" d="M2016,816h15v15h-15v-15Z"/>
    <path class="st0" d="M2032,816h15v15h-15v-15Z"/>
    <path class="st0" d="M2048,816h15v15h-15v-15Z"/>
    <path class="st0" d="M2064,816h15v15h-15v-15Z"/>
    <path class="st0" d="M2080,816h15v15h-15v-15Z"/>
    <path class="st0" d="M48,832h15v15h-15v-15Z"/>
    <path class="st0" d="M64,832h15v15h-15v-15Z"/>
    <path class="st0" d="M96,832h15v15h-15v-15Z"/>
    <path class="st0" d="M112,832h15v15h-15v-15Z"/>
    <path class="st0" d="M128,832h15v15h-15v-15Z"/>
    <path class="st0" d="M160,832h15v15h-15v-15Z"/>
    <path class="st0" d="M176,832h15v15h-15v-15Z"/>
    <path class="st0" d="M256,832h15v15h-15v-15Z"/>
    <path class="st0" d="M272,832h15v15h-15v-15Z"/>
    <path class="st0" d="M352,832h15v15h-15v-15Z"/>
    <path class="st0" d="M368,832h15v15h-15v-15Z"/>
    <path class="st0" d="M432,832h15v15h-15v-15Z"/>
    <path class="st0" d="M448,832h15v15h-15v-15Z"/>
    <path class="st0" d="M464,832h15v15h-15v-15Z"/>
    <path class="st0" d="M480,832h15v15h-15v-15Z"/>
    <path class="st0" d="M528,832h15v15h-15v-15Z"/>
    <path class="st0" d="M544,832h15v15h-15v-15Z"/>
    <path class="st0" d="M560,832h15v15h-15v-15Z"/>
    <path class="st0" d="M624,832h15v15h-15v-15Z"/>
    <path class="st0" d="M640,832h15v15h-15v-15Z"/>
    <path class="st0" d="M656,832h15v15h-15v-15Z"/>
    <path class="st0" d="M672,832h15v15h-15v-15Z"/>
    <path class="st0" d="M704,832h15v15h-15v-15Z"/>
    <path class="st0" d="M720,832h15v15h-15v-15Z"/>
    <path class="st0" d="M736,832h15v15h-15v-15Z"/>
    <path class="st0" d="M752,832h15v15h-15v-15Z"/>
    <path class="st0" d="M816,832h15v15h-15v-15Z"/>
    <path class="st0" d="M832,832h15v15h-15v-15Z"/>
    <path class="st0" d="M848,832h15v15h-15v-15Z"/>
    <path class="st0" d="M864,832h15v15h-15v-15Z"/>
    <path class="st0" d="M880,832h15v15h-15v-15Z"/>
    <path class="st0" d="M896,832h15v15h-15v-15Z"/>
    <path class="st0" d="M912,832h15v15h-15v-15Z"/>
    <path class="st0" d="M928,832h15v15h-15v-15Z"/>
    <path class="st0" d="M1008,832h15v15h-15v-15Z"/>
    <path class="st0" d="M1024,832h15v15h-15v-15Z"/>
    <path class="st0" d="M1040,832h15v15h-15v-15Z"/>
    <path class="st0" d="M1104,832h15v15h-15v-15Z"/>
    <path class="st0" d="M1120,832h15v15h-15v-15Z"/>
    <path class="st0" d="M1152,832h15v15h-15v-15Z"/>
    <path class="st0" d="M1168,832h15v15h-15v-15Z"/>
    <path class="st0" d="M1184,832h15v15h-15v-15Z"/>
    <path class="st0" d="M1216,832h15v15h-15v-15Z"/>
    <path class="st0" d="M1232,832h15v15h-15v-15Z"/>
    <path class="st0" d="M1248,832h15v15h-15v-15Z"/>
    <path class="st0" d="M1296,832h15v15h-15v-15Z"/>
    <path class="st0" d="M1312,832h15v15h-15v-15Z"/>
    <path class="st0" d="M1344,832h15v15h-15v-15Z"/>
    <path class="st0" d="M1360,832h15v15h-15v-15Z"/>
    <path class="st0" d="M1376,832h15v15h-15v-15Z"/>
    <path class="st0" d="M1408,832h15v15h-15v-15Z"/>
    <path class="st0" d="M1424,832h15v15h-15v-15Z"/>
    <path class="st0" d="M1440,832h15v15h-15v-15Z"/>
    <path class="st0" d="M1456,832h15v15h-15v-15Z"/>
    <path class="st0" d="M1472,832h15v15h-15v-15Z"/>
    <path class="st0" d="M1488,832h15v15h-15v-15Z"/>
    <path class="st0" d="M1504,832h15v15h-15v-15Z"/>
    <path class="st0" d="M1520,832h15v15h-15v-15Z"/>
    <path class="st0" d="M1536,832h15v15h-15v-15Z"/>
    <path class="st0" d="M1552,832h15v15h-15v-15Z"/>
    <path class="st0" d="M1568,832h15v15h-15v-15Z"/>
    <path class="st0" d="M1584,832h15v15h-15v-15Z"/>
    <path class="st0" d="M1600,832h15v15h-15v-15Z"/>
    <path class="st0" d="M1616,832h15v15h-15v-15Z"/>
    <path class="st0" d="M1632,832h15v15h-15v-15Z"/>
    <path class="st0" d="M1648,832h15v15h-15v-15Z"/>
    <path class="st0" d="M1664,832h15v15h-15v-15Z"/>
    <path class="st0" d="M1680,832h15v15h-15v-15Z"/>
    <path class="st0" d="M1696,832h15v15h-15v-15Z"/>
    <path class="st0" d="M1712,832h15v15h-15v-15Z"/>
    <path class="st0" d="M1728,832h15v15h-15v-15Z"/>
    <path class="st0" d="M1744,832h15v15h-15v-15Z"/>
    <path class="st0" d="M1760,832h15v15h-15v-15Z"/>
    <path class="st0" d="M1776,832h15v15h-15v-15Z"/>
    <path class="st0" d="M1792,832h15v15h-15v-15Z"/>
    <path class="st0" d="M1808,832h15v15h-15v-15Z"/>
    <path class="st0" d="M1824,832h15v15h-15v-15Z"/>
    <path class="st0" d="M1840,832h15v15h-15v-15Z"/>
    <path class="st0" d="M1856,832h15v15h-15v-15Z"/>
    <path class="st0" d="M1872,832h15v15h-15v-15Z"/>
    <path class="st0" d="M1888,832h15v15h-15v-15Z"/>
    <path class="st0" d="M1904,832h15v15h-15v-15Z"/>
    <path class="st0" d="M1920,832h15v15h-15v-15Z"/>
    <path class="st0" d="M1936,832h15v15h-15v-15Z"/>
    <path class="st0" d="M1952,832h15v15h-15v-15Z"/>
    <path class="st0" d="M1968,832h15v15h-15v-15Z"/>
    <path class="st0" d="M1984,832h15v15h-15v-15Z"/>
    <path class="st0" d="M2000,832h15v15h-15v-15Z"/>
    <path class="st0" d="M2016,832h15v15h-15v-15Z"/>
    <path class="st0" d="M2032,832h15v15h-15v-15Z"/>
    <path class="st0" d="M2048,832h15v15h-15v-15Z"/>
    <path class="st0" d="M2064,832h15v15h-15v-15Z"/>
    <path class="st0" d="M2080,832h15v15h-15v-15Z"/>
    <path class="st0" d="M48,848h15v15h-15v-15Z"/>
    <path class="st0" d="M64,848h15v15h-15v-15Z"/>
    <path class="st0" d="M80,848h15v15h-15v-15Z"/>
    <path class="st0" d="M96,848h15v15h-15v-15Z"/>
    <path class="st0" d="M112,848h15v15h-15v-15Z"/>
    <path class="st0" d="M128,848h15v15h-15v-15Z"/>
    <path class="st0" d="M144,848h15v15h-15v-15Z"/>
    <path class="st0" d="M160,848h15v15h-15v-15Z"/>
    <path class="st0" d="M176,848h15v15h-15v-15Z"/>
    <path class="st0" d="M192,848h15v15h-15v-15Z"/>
    <path class="st0" d="M208,848h15v15h-15v-15Z"/>
    <path class="st0" d="M224,848h15v15h-15v-15Z"/>
    <path class="st0" d="M240,848h15v15h-15v-15Z"/>
    <path class="st0" d="M256,848h15v15h-15v-15Z"/>
    <path class="st0" d="M272,848h15v15h-15v-15Z"/>
    <path class="st0" d="M288,848h15v15h-15v-15Z"/>
    <path class="st0" d="M304,848h15v15h-15v-15Z"/>
    <path class="st0" d="M320,848h15v15h-15v-15Z"/>
    <path class="st0" d="M336,848h15v15h-15v-15Z"/>
    <path class="st0" d="M352,848h15v15h-15v-15Z"/>
    <path class="st0" d="M368,848h15v15h-15v-15Z"/>
    <path class="st0" d="M384,848h15v15h-15v-15Z"/>
    <path class="st0" d="M400,848h15v15h-15v-15Z"/>
    <path class="st0" d="M416,848h15v15h-15v-15Z"/>
    <path class="st0" d="M432,848h15v15h-15v-15Z"/>
    <path class="st0" d="M448,848h15v15h-15v-15Z"/>
    <path class="st0" d="M464,848h15v15h-15v-15Z"/>
    <path class="st0" d="M480,848h15v15h-15v-15Z"/>
    <path class="st0" d="M496,848h15v15h-15v-15Z"/>
    <path class="st0" d="M512,848h15v15h-15v-15Z"/>
    <path class="st0" d="M528,848h15v15h-15v-15Z"/>
    <path class="st0" d="M544,848h15v15h-15v-15Z"/>
    <path class="st0" d="M560,848h15v15h-15v-15Z"/>
    <path class="st0" d="M576,848h15v15h-15v-15Z"/>
    <path class="st0" d="M592,848h15v15h-15v-15Z"/>
    <path class="st0" d="M608,848h15v15h-15v-15Z"/>
    <path class="st0" d="M624,848h15v15h-15v-15Z"/>
    <path class="st0" d="M640,848h15v15h-15v-15Z"/>
    <path class="st0" d="M656,848h15v15h-15v-15Z"/>
    <path class="st0" d="M672,848h15v15h-15v-15Z"/>
    <path class="st0" d="M688,848h15v15h-15v-15Z"/>
    <path class="st0" d="M704,848h15v15h-15v-15Z"/>
    <path class="st0" d="M720,848h15v15h-15v-15Z"/>
    <path class="st0" d="M736,848h15v15h-15v-15Z"/>
    <path class="st0" d="M752,848h15v15h-15v-15Z"/>
    <path class="st0" d="M768,848h15v15h-15v-15Z"/>
    <path class="st0" d="M784,848h15v15h-15v-15Z"/>
    <path class="st0" d="M800,848h15v15h-15v-15Z"/>
    <path class="st0" d="M816,848h15v15h-15v-15Z"/>
    <path class="st0" d="M832,848h15v15h-15v-15Z"/>
    <path class="st0" d="M848,848h15v15h-15v-15Z"/>
    <path class="st0" d="M864,848h15v15h-15v-15Z"/>
    <path class="st0" d="M880,848h15v15h-15v-15Z"/>
    <path class="st0" d="M896,848h15v15h-15v-15Z"/>
    <path class="st0" d="M912,848h15v15h-15v-15Z"/>
    <path class="st0" d="M928,848h15v15h-15v-15Z"/>
    <path class="st0" d="M944,848h15v15h-15v-15Z"/>
    <path class="st0" d="M960,848h15v15h-15v-15Z"/>
    <path class="st0" d="M976,848h15v15h-15v-15Z"/>
    <path class="st0" d="M992,848h15v15h-15v-15Z"/>
    <path class="st0" d="M1008,848h15v15h-15v-15Z"/>
    <path class="st0" d="M1024,848h15v15h-15v-15Z"/>
    <path class="st0" d="M1040,848h15v15h-15v-15Z"/>
    <path class="st0" d="M1056,848h15v15h-15v-15Z"/>
    <path class="st0" d="M1072,848h15v15h-15v-15Z"/>
    <path class="st0" d="M1088,848h15v15h-15v-15Z"/>
    <path class="st0" d="M1104,848h15v15h-15v-15Z"/>
    <path class="st0" d="M1120,848h15v15h-15v-15Z"/>
    <path class="st0" d="M1136,848h15v15h-15v-15Z"/>
    <path class="st0" d="M1152,848h15v15h-15v-15Z"/>
    <path class="st0" d="M1168,848h15v15h-15v-15Z"/>
    <path class="st0" d="M1184,848h15v15h-15v-15Z"/>
    <path class="st0" d="M1200,848h15v15h-15v-15Z"/>
    <path class="st0" d="M1216,848h15v15h-15v-15Z"/>
    <path class="st0" d="M1232,848h15v15h-15v-15Z"/>
    <path class="st0" d="M1248,848h15v15h-15v-15Z"/>
    <path class="st0" d="M1264,848h15v15h-15v-15Z"/>
    <path class="st0" d="M1280,848h15v15h-15v-15Z"/>
    <path class="st0" d="M1296,848h15v15h-15v-15Z"/>
    <path class="st0" d="M1312,848h15v15h-15v-15Z"/>
    <path class="st0" d="M1328,848h15v15h-15v-15Z"/>
    <path class="st0" d="M1344,848h15v15h-15v-15Z"/>
    <path class="st0" d="M1360,848h15v15h-15v-15Z"/>
    <path class="st0" d="M1376,848h15v15h-15v-15Z"/>
    <path class="st0" d="M1392,848h15v15h-15v-15Z"/>
    <path class="st0" d="M1408,848h15v15h-15v-15Z"/>
    <path class="st0" d="M1424,848h15v15h-15v-15Z"/>
    <path class="st0" d="M1440,848h15v15h-15v-15Z"/>
    <path class="st0" d="M1456,848h15v15h-15v-15Z"/>
    <path class="st0" d="M1472,848h15v15h-15v-15Z"/>
    <path class="st0" d="M1488,848h15v15h-15v-15Z"/>
    <path class="st0" d="M1504,848h15v15h-15v-15Z"/>
    <path class="st0" d="M1520,848h15v15h-15v-15Z"/>
    <path class="st0" d="M1536,848h15v15h-15v-15Z"/>
    <path class="st0" d="M1552,848h15v15h-15v-15Z"/>
    <path class="st0" d="M1568,848h15v15h-15v-15Z"/>
    <path class="st0" d="M1584,848h15v15h-15v-15Z"/>
    <path class="st0" d="M1600,848h15v15h-15v-15Z"/>
    <path class="st0" d="M1616,848h15v15h-15v-15Z"/>
    <path class="st0" d="M1632,848h15v15h-15v-15Z"/>
    <path class="st0" d="M1648,848h15v15h-15v-15Z"/>
    <path class="st0" d="M1664,848h15v15h-15v-15Z"/>
    <path class="st0" d="M1680,848h15v15h-15v-15Z"/>
    <path class="st0" d="M1696,848h15v15h-15v-15Z"/>
    <path class="st0" d="M1712,848h15v15h-15v-15Z"/>
    <path class="st0" d="M1728,848h15v15h-15v-15Z"/>
    <path class="st0" d="M1744,848h15v15h-15v-15Z"/>
    <path class="st0" d="M1760,848h15v15h-15v-15Z"/>
    <path class="st0" d="M1776,848h15v15h-15v-15Z"/>
    <path class="st0" d="M1792,848h15v15h-15v-15Z"/>
    <path class="st0" d="M1808,848h15v15h-15v-15Z"/>
    <path class="st0" d="M1824,848h15v15h-15v-15Z"/>
    <path class="st0" d="M1840,848h15v15h-15v-15Z"/>
    <path class="st0" d="M1856,848h15v15h-15v-15Z"/>
    <path class="st0" d="M1872,848h15v15h-15v-15Z"/>
    <path class="st0" d="M1888,848h15v15h-15v-15Z"/>
    <path class="st0" d="M1904,848h15v15h-15v-15Z"/>
    <path class="st0" d="M1920,848h15v15h-15v-15Z"/>
    <path class="st0" d="M1936,848h15v15h-15v-15Z"/>
    <path class="st0" d="M1952,848h15v15h-15v-15Z"/>
    <path class="st0" d="M1968,848h15v15h-15v-15Z"/>
    <path class="st0" d="M1984,848h15v15h-15v-15Z"/>
    <path class="st0" d="M2000,848h15v15h-15v-15Z"/>
    <path class="st0" d="M2016,848h15v15h-15v-15Z"/>
    <path class="st0" d="M2032,848h15v15h-15v-15Z"/>
    <path class="st0" d="M2048,848h15v15h-15v-15Z"/>
    <path class="st0" d="M2064,848h15v15h-15v-15Z"/>
    <path class="st0" d="M2080,848h15v15h-15v-15Z"/>
    <path class="st0" d="M48,864h15v15h-15v-15Z"/>
    <path class="st0" d="M64,864h15v15h-15v-15Z"/>
    <path class="st0" d="M80,864h15v15h-15v-15Z"/>
    <path class="st0" d="M96,864h15v15h-15v-15Z"/>
    <path class="st0" d="M112,864h15v15h-15v-15Z"/>
    <path class="st0" d="M128,864h15v15h-15v-15Z"/>
    <path class="st0" d="M144,864h15v15h-15v-15Z"/>
    <path class="st0" d="M160,864h15v15h-15v-15Z"/>
    <path class="st0" d="M176,864h15v15h-15v-15Z"/>
    <path class="st0" d="M192,864h15v15h-15v-15Z"/>
    <path class="st0" d="M208,864h15v15h-15v-15Z"/>
    <path class="st0" d="M224,864h15v15h-15v-15Z"/>
    <path class="st0" d="M240,864h15v15h-15v-15Z"/>
    <path class="st0" d="M256,864h15v15h-15v-15Z"/>
    <path class="st0" d="M272,864h15v15h-15v-15Z"/>
    <path class="st0" d="M288,864h15v15h-15v-15Z"/>
    <path class="st0" d="M304,864h15v15h-15v-15Z"/>
    <path class="st0" d="M320,864h15v15h-15v-15Z"/>
    <path class="st0" d="M336,864h15v15h-15v-15Z"/>
    <path class="st0" d="M352,864h15v15h-15v-15Z"/>
    <path class="st0" d="M368,864h15v15h-15v-15Z"/>
    <path class="st0" d="M384,864h15v15h-15v-15Z"/>
    <path class="st0" d="M400,864h15v15h-15v-15Z"/>
    <path class="st0" d="M416,864h15v15h-15v-15Z"/>
    <path class="st0" d="M432,864h15v15h-15v-15Z"/>
    <path class="st0" d="M448,864h15v15h-15v-15Z"/>
    <path class="st0" d="M464,864h15v15h-15v-15Z"/>
    <path class="st0" d="M480,864h15v15h-15v-15Z"/>
    <path class="st0" d="M496,864h15v15h-15v-15Z"/>
    <path class="st0" d="M512,864h15v15h-15v-15Z"/>
    <path class="st0" d="M528,864h15v15h-15v-15Z"/>
    <path class="st0" d="M544,864h15v15h-15v-15Z"/>
    <path class="st0" d="M560,864h15v15h-15v-15Z"/>
    <path class="st0" d="M576,864h15v15h-15v-15Z"/>
    <path class="st0" d="M592,864h15v15h-15v-15Z"/>
    <path class="st0" d="M608,864h15v15h-15v-15Z"/>
    <path class="st0" d="M624,864h15v15h-15v-15Z"/>
    <path class="st0" d="M640,864h15v15h-15v-15Z"/>
    <path class="st0" d="M656,864h15v15h-15v-15Z"/>
    <path class="st0" d="M672,864h15v15h-15v-15Z"/>
    <path class="st0" d="M688,864h15v15h-15v-15Z"/>
    <path class="st0" d="M704,864h15v15h-15v-15Z"/>
    <path class="st0" d="M720,864h15v15h-15v-15Z"/>
    <path class="st0" d="M736,864h15v15h-15v-15Z"/>
    <path class="st0" d="M752,864h15v15h-15v-15Z"/>
    <path class="st0" d="M768,864h15v15h-15v-15Z"/>
    <path class="st0" d="M784,864h15v15h-15v-15Z"/>
    <path class="st0" d="M800,864h15v15h-15v-15Z"/>
    <path class="st0" d="M816,864h15v15h-15v-15Z"/>
    <path class="st0" d="M832,864h15v15h-15v-15Z"/>
    <path class="st0" d="M848,864h15v15h-15v-15Z"/>
    <path class="st0" d="M864,864h15v15h-15v-15Z"/>
    <path class="st0" d="M880,864h15v15h-15v-15Z"/>
    <path class="st0" d="M896,864h15v15h-15v-15Z"/>
    <path class="st0" d="M912,864h15v15h-15v-15Z"/>
    <path class="st0" d="M928,864h15v15h-15v-15Z"/>
    <path class="st0" d="M944,864h15v15h-15v-15Z"/>
    <path class="st0" d="M960,864h15v15h-15v-15Z"/>
    <path class="st0" d="M976,864h15v15h-15v-15Z"/>
    <path class="st0" d="M992,864h15v15h-15v-15Z"/>
    <path class="st0" d="M1008,864h15v15h-15v-15Z"/>
    <path class="st0" d="M1024,864h15v15h-15v-15Z"/>
    <path class="st0" d="M1040,864h15v15h-15v-15Z"/>
    <path class="st0" d="M1056,864h15v15h-15v-15Z"/>
    <path class="st0" d="M1072,864h15v15h-15v-15Z"/>
    <path class="st0" d="M1088,864h15v15h-15v-15Z"/>
    <path class="st0" d="M1104,864h15v15h-15v-15Z"/>
    <path class="st0" d="M1120,864h15v15h-15v-15Z"/>
    <path class="st0" d="M1136,864h15v15h-15v-15Z"/>
    <path class="st0" d="M1152,864h15v15h-15v-15Z"/>
    <path class="st0" d="M1168,864h15v15h-15v-15Z"/>
    <path class="st0" d="M1184,864h15v15h-15v-15Z"/>
    <path class="st0" d="M1200,864h15v15h-15v-15Z"/>
    <path class="st0" d="M1216,864h15v15h-15v-15Z"/>
    <path class="st0" d="M1232,864h15v15h-15v-15Z"/>
    <path class="st0" d="M1248,864h15v15h-15v-15Z"/>
    <path class="st0" d="M1264,864h15v15h-15v-15Z"/>
    <path class="st0" d="M1280,864h15v15h-15v-15Z"/>
    <path class="st0" d="M1296,864h15v15h-15v-15Z"/>
    <path class="st0" d="M1312,864h15v15h-15v-15Z"/>
    <path class="st0" d="M1328,864h15v15h-15v-15Z"/>
    <path class="st0" d="M1344,864h15v15h-15v-15Z"/>
    <path class="st0" d="M1360,864h15v15h-15v-15Z"/>
    <path class="st0" d="M1376,864h15v15h-15v-15Z"/>
    <path class="st0" d="M1392,864h15v15h-15v-15Z"/>
    <path class="st0" d="M1408,864h15v15h-15v-15Z"/>
    <path class="st0" d="M1424,864h15v15h-15v-15Z"/>
    <path class="st0" d="M1440,864h15v15h-15v-15Z"/>
    <path class="st0" d="M1456,864h15v15h-15v-15Z"/>
    <path class="st0" d="M1472,864h15v15h-15v-15Z"/>
    <path class="st0" d="M1488,864h15v15h-15v-15Z"/>
    <path class="st0" d="M1504,864h15v15h-15v-15Z"/>
    <path class="st0" d="M1520,864h15v15h-15v-15Z"/>
    <path class="st0" d="M1536,864h15v15h-15v-15Z"/>
    <path class="st0" d="M1552,864h15v15h-15v-15Z"/>
    <path class="st0" d="M1568,864h15v15h-15v-15Z"/>
    <path class="st0" d="M1584,864h15v15h-15v-15Z"/>
    <path class="st0" d="M1600,864h15v15h-15v-15Z"/>
    <path class="st0" d="M1616,864h15v15h-15v-15Z"/>
    <path class="st0" d="M1632,864h15v15h-15v-15Z"/>
    <path class="st0" d="M1648,864h15v15h-15v-15Z"/>
    <path class="st0" d="M1664,864h15v15h-15v-15Z"/>
    <path class="st0" d="M1680,864h15v15h-15v-15Z"/>
    <path class="st0" d="M1696,864h15v15h-15v-15Z"/>
    <path class="st0" d="M1712,864h15v15h-15v-15Z"/>
    <path class="st0" d="M1728,864h15v15h-15v-15Z"/>
    <path class="st0" d="M1744,864h15v15h-15v-15Z"/>
    <path class="st0" d="M1760,864h15v15h-15v-15Z"/>
    <path class="st0" d="M1776,864h15v15h-15v-15Z"/>
    <path class="st0" d="M1792,864h15v15h-15v-15Z"/>
    <path class="st0" d="M1808,864h15v15h-15v-15Z"/>
    <path class="st0" d="M1824,864h15v15h-15v-15Z"/>
    <path class="st0" d="M1840,864h15v15h-15v-15Z"/>
    <path class="st0" d="M1856,864h15v15h-15v-15Z"/>
    <path class="st0" d="M1872,864h15v15h-15v-15Z"/>
    <path class="st0" d="M1888,864h15v15h-15v-15Z"/>
    <path class="st0" d="M1904,864h15v15h-15v-15Z"/>
    <path class="st0" d="M1920,864h15v15h-15v-15Z"/>
    <path class="st0" d="M1936,864h15v15h-15v-15Z"/>
    <path class="st0" d="M1952,864h15v15h-15v-15Z"/>
    <path class="st0" d="M1968,864h15v15h-15v-15Z"/>
    <path class="st0" d="M1984,864h15v15h-15v-15Z"/>
    <path class="st0" d="M2000,864h15v15h-15v-15Z"/>
    <path class="st0" d="M2016,864h15v15h-15v-15Z"/>
    <path class="st0" d="M2032,864h15v15h-15v-15Z"/>
    <path class="st0" d="M2048,864h15v15h-15v-15Z"/>
    <path class="st0" d="M2064,864h15v15h-15v-15Z"/>
    <path class="st0" d="M2080,864h15v15h-15v-15Z"/>
    <path class="st0" d="M48,880h15v15h-15v-15Z"/>
    <path class="st0" d="M64,880h15v15h-15v-15Z"/>
    <path class="st0" d="M80,880h15v15h-15v-15Z"/>
    <path class="st0" d="M96,880h15v15h-15v-15Z"/>
    <path class="st0" d="M112,880h15v15h-15v-15Z"/>
    <path class="st0" d="M128,880h15v15h-15v-15Z"/>
    <path class="st0" d="M144,880h15v15h-15v-15Z"/>
    <path class="st0" d="M160,880h15v15h-15v-15Z"/>
    <path class="st0" d="M176,880h15v15h-15v-15Z"/>
    <path class="st0" d="M192,880h15v15h-15v-15Z"/>
    <path class="st0" d="M208,880h15v15h-15v-15Z"/>
    <path class="st0" d="M224,880h15v15h-15v-15Z"/>
    <path class="st0" d="M240,880h15v15h-15v-15Z"/>
    <path class="st0" d="M256,880h15v15h-15v-15Z"/>
    <path class="st0" d="M272,880h15v15h-15v-15Z"/>
    <path class="st0" d="M288,880h15v15h-15v-15Z"/>
    <path class="st0" d="M304,880h15v15h-15v-15Z"/>
    <path class="st0" d="M320,880h15v15h-15v-15Z"/>
    <path class="st0" d="M336,880h15v15h-15v-15Z"/>
    <path class="st0" d="M352,880h15v15h-15v-15Z"/>
    <path class="st0" d="M368,880h15v15h-15v-15Z"/>
    <path class="st0" d="M384,880h15v15h-15v-15Z"/>
    <path class="st0" d="M400,880h15v15h-15v-15Z"/>
    <path class="st0" d="M416,880h15v15h-15v-15Z"/>
    <path class="st0" d="M432,880h15v15h-15v-15Z"/>
    <path class="st0" d="M448,880h15v15h-15v-15Z"/>
    <path class="st0" d="M464,880h15v15h-15v-15Z"/>
    <path class="st0" d="M480,880h15v15h-15v-15Z"/>
    <path class="st0" d="M496,880h15v15h-15v-15Z"/>
    <path class="st0" d="M512,880h15v15h-15v-15Z"/>
    <path class="st0" d="M528,880h15v15h-15v-15Z"/>
    <path class="st0" d="M544,880h15v15h-15v-15Z"/>
    <path class="st0" d="M560,880h15v15h-15v-15Z"/>
    <path class="st0" d="M576,880h15v15h-15v-15Z"/>
    <path class="st0" d="M592,880h15v15h-15v-15Z"/>
    <path class="st0" d="M608,880h15v15h-15v-15Z"/>
    <path class="st0" d="M624,880h15v15h-15v-15Z"/>
    <path class="st0" d="M640,880h15v15h-15v-15Z"/>
    <path class="st0" d="M656,880h15v15h-15v-15Z"/>
    <path class="st0" d="M672,880h15v15h-15v-15Z"/>
    <path class="st0" d="M688,880h15v15h-15v-15Z"/>
    <path class="st0" d="M704,880h15v15h-15v-15Z"/>
    <path class="st0" d="M720,880h15v15h-15v-15Z"/>
    <path class="st0" d="M736,880h15v15h-15v-15Z"/>
    <path class="st0" d="M752,880h15v15h-15v-15Z"/>
    <path class="st0" d="M768,880h15v15h-15v-15Z"/>
    <path class="st0" d="M784,880h15v15h-15v-15Z"/>
    <path class="st0" d="M800,880h15v15h-15v-15Z"/>
    <path class="st0" d="M816,880h15v15h-15v-15Z"/>
    <path class="st0" d="M832,880h15v15h-15v-15Z"/>
    <path class="st0" d="M848,880h15v15h-15v-15Z"/>
    <path class="st0" d="M864,880h15v15h-15v-15Z"/>
    <path class="st0" d="M880,880h15v15h-15v-15Z"/>
    <path class="st0" d="M896,880h15v15h-15v-15Z"/>
    <path class="st0" d="M912,880h15v15h-15v-15Z"/>
    <path class="st0" d="M928,880h15v15h-15v-15Z"/>
    <path class="st0" d="M944,880h15v15h-15v-15Z"/>
    <path class="st0" d="M960,880h15v15h-15v-15Z"/>
    <path class="st0" d="M976,880h15v15h-15v-15Z"/>
    <path class="st0" d="M992,880h15v15h-15v-15Z"/>
    <path class="st0" d="M1008,880h15v15h-15v-15Z"/>
    <path class="st0" d="M1024,880h15v15h-15v-15Z"/>
    <path class="st0" d="M1040,880h15v15h-15v-15Z"/>
    <path class="st0" d="M1056,880h15v15h-15v-15Z"/>
    <path class="st0" d="M1072,880h15v15h-15v-15Z"/>
    <path class="st0" d="M1088,880h15v15h-15v-15Z"/>
    <path class="st0" d="M1104,880h15v15h-15v-15Z"/>
    <path class="st0" d="M1120,880h15v15h-15v-15Z"/>
    <path class="st0" d="M1136,880h15v15h-15v-15Z"/>
    <path class="st0" d="M1152,880h15v15h-15v-15Z"/>
    <path class="st0" d="M1168,880h15v15h-15v-15Z"/>
    <path class="st0" d="M1184,880h15v15h-15v-15Z"/>
    <path class="st0" d="M1200,880h15v15h-15v-15Z"/>
    <path class="st0" d="M1216,880h15v15h-15v-15Z"/>
    <path class="st0" d="M1232,880h15v15h-15v-15Z"/>
    <path class="st0" d="M1248,880h15v15h-15v-15Z"/>
    <path class="st0" d="M1264,880h15v15h-15v-15Z"/>
    <path class="st0" d="M1280,880h15v15h-15v-15Z"/>
    <path class="st0" d="M1296,880h15v15h-15v-15Z"/>
    <path class="st0" d="M1312,880h15v15h-15v-15Z"/>
    <path class="st0" d="M1328,880h15v15h-15v-15Z"/>
    <path class="st0" d="M1344,880h15v15h-15v-15Z"/>
    <path class="st0" d="M1360,880h15v15h-15v-15Z"/>
    <path class="st0" d="M1376,880h15v15h-15v-15Z"/>
    <path class="st0" d="M1392,880h15v15h-15v-15Z"/>
    <path class="st0" d="M1408,880h15v15h-15v-15Z"/>
    <path class="st0" d="M1424,880h15v15h-15v-15Z"/>
    <path class="st0" d="M1440,880h15v15h-15v-15Z"/>
    <path class="st0" d="M1456,880h15v15h-15v-15Z"/>
    <path class="st0" d="M1472,880h15v15h-15v-15Z"/>
    <path class="st0" d="M1488,880h15v15h-15v-15Z"/>
    <path class="st0" d="M1504,880h15v15h-15v-15Z"/>
    <path class="st0" d="M1520,880h15v15h-15v-15Z"/>
    <path class="st0" d="M1536,880h15v15h-15v-15Z"/>
    <path class="st0" d="M1552,880h15v15h-15v-15Z"/>
    <path class="st0" d="M1568,880h15v15h-15v-15Z"/>
    <path class="st0" d="M1584,880h15v15h-15v-15Z"/>
    <path class="st0" d="M1600,880h15v15h-15v-15Z"/>
    <path class="st0" d="M1616,880h15v15h-15v-15Z"/>
    <path class="st0" d="M1632,880h15v15h-15v-15Z"/>
    <path class="st0" d="M1648,880h15v15h-15v-15Z"/>
    <path class="st0" d="M1664,880h15v15h-15v-15Z"/>
    <path class="st0" d="M1680,880h15v15h-15v-15Z"/>
    <path class="st0" d="M1696,880h15v15h-15v-15Z"/>
    <path class="st0" d="M1712,880h15v15h-15v-15Z"/>
    <path class="st0" d="M1728,880h15v15h-15v-15Z"/>
    <path class="st0" d="M1744,880h15v15h-15v-15Z"/>
    <path class="st0" d="M1760,880h15v15h-15v-15Z"/>
    <path class="st0" d="M1776,880h15v15h-15v-15Z"/>
    <path class="st0" d="M1792,880h15v15h-15v-15Z"/>
    <path class="st0" d="M1808,880h15v15h-15v-15Z"/>
    <path class="st0" d="M1824,880h15v15h-15v-15Z"/>
    <path class="st0" d="M1840,880h15v15h-15v-15Z"/>
    <path class="st0" d="M1856,880h15v15h-15v-15Z"/>
    <path class="st0" d="M1872,880h15v15h-15v-15Z"/>
    <path class="st0" d="M1888,880h15v15h-15v-15Z"/>
    <path class="st0" d="M1904,880h15v15h-15v-15Z"/>
    <path class="st0" d="M1920,880h15v15h-15v-15Z"/>
    <path class="st0" d="M1936,880h15v15h-15v-15Z"/>
    <path class="st0" d="M1952,880h15v15h-15v-15Z"/>
    <path class="st0" d="M1968,880h15v15h-15v-15Z"/>
    <path class="st0" d="M1984,880h15v15h-15v-15Z"/>
    <path class="st0" d="M2000,880h15v15h-15v-15Z"/>
    <path class="st0" d="M2016,880h15v15h-15v-15Z"/>
    <path class="st0" d="M2032,880h15v15h-15v-15Z"/>
    <path class="st0" d="M2048,880h15v15h-15v-15Z"/>
    <path class="st0" d="M2064,880h15v15h-15v-15Z"/>
    <path class="st0" d="M2080,880h15v15h-15v-15Z"/>
    <path class="st0" d="M96,912h15v15h-15v-15Z"/>
    <path class="st0" d="M112,912h15v15h-15v-15Z"/>
    <path class="st0" d="M128,912h15v15h-15v-15Z"/>
    <path class="st0" d="M384,912h15v15h-15v-15Z"/>
    <path class="st0" d="M400,912h15v15h-15v-15Z"/>
    <path class="st0" d="M768,912h15v15h-15v-15Z"/>
    <path class="st0" d="M784,912h15v15h-15v-15Z"/>
    <path class="st0" d="M800,912h15v15h-15v-15Z"/>
    <path class="st0" d="M816,912h15v15h-15v-15Z"/>
    <path class="st0" d="M864,912h15v15h-15v-15Z"/>
    <path class="st0" d="M1056,912h15v15h-15v-15Z"/>
    <path class="st0" d="M1072,912h15v15h-15v-15Z"/>
    <path class="st0" d="M80,928h15v15h-15v-15Z"/>
    <path class="st0" d="M144,928h15v15h-15v-15Z"/>
    <path class="st0" d="M400,928h15v15h-15v-15Z"/>
    <path class="st0" d="M576,928h15v15h-15v-15Z"/>
    <path class="st0" d="M592,928h15v15h-15v-15Z"/>
    <path class="st0" d="M608,928h15v15h-15v-15Z"/>
    <path class="st0" d="M624,928h15v15h-15v-15Z"/>
    <path class="st0" d="M752,928h15v15h-15v-15Z"/>
    <path class="st0" d="M864,928h15v15h-15v-15Z"/>
    <path class="st0" d="M1072,928h15v15h-15v-15Z"/>
    <path class="st0" d="M80,944h15v15h-15v-15Z"/>
    <path class="st0" d="M144,944h15v15h-15v-15Z"/>
    <path class="st0" d="M176,944h15v15h-15v-15Z"/>
    <path class="st0" d="M208,944h15v15h-15v-15Z"/>
    <path class="st0" d="M224,944h15v15h-15v-15Z"/>
    <path class="st0" d="M288,944h15v15h-15v-15Z"/>
    <path class="st0" d="M304,944h15v15h-15v-15Z"/>
    <path class="st0" d="M320,944h15v15h-15v-15Z"/>
    <path class="st0" d="M400,944h15v15h-15v-15Z"/>
    <path class="st0" d="M480,944h15v15h-15v-15Z"/>
    <path class="st0" d="M496,944h15v15h-15v-15Z"/>
    <path class="st0" d="M512,944h15v15h-15v-15Z"/>
    <path class="st0" d="M560,944h15v15h-15v-15Z"/>
    <path class="st0" d="M624,944h15v15h-15v-15Z"/>
    <path class="st0" d="M752,944h15v15h-15v-15Z"/>
    <path class="st0" d="M848,944h15v15h-15v-15Z"/>
    <path class="st0" d="M864,944h15v15h-15v-15Z"/>
    <path class="st0" d="M880,944h15v15h-15v-15Z"/>
    <path class="st0" d="M944,944h15v15h-15v-15Z"/>
    <path class="st0" d="M1008,944h15v15h-15v-15Z"/>
    <path class="st0" d="M1072,944h15v15h-15v-15Z"/>
    <path class="st0" d="M1152,944h15v15h-15v-15Z"/>
    <path class="st0" d="M1168,944h15v15h-15v-15Z"/>
    <path class="st0" d="M1184,944h15v15h-15v-15Z"/>
    <path class="st0" d="M80,960h15v15h-15v-15Z"/>
    <path class="st0" d="M144,960h15v15h-15v-15Z"/>
    <path class="st0" d="M176,960h15v15h-15v-15Z"/>
    <path class="st0" d="M192,960h15v15h-15v-15Z"/>
    <path class="st0" d="M240,960h15v15h-15v-15Z"/>
    <path class="st0" d="M336,960h15v15h-15v-15Z"/>
    <path class="st0" d="M400,960h15v15h-15v-15Z"/>
    <path class="st0" d="M464,960h15v15h-15v-15Z"/>
    <path class="st0" d="M528,960h15v15h-15v-15Z"/>
    <path class="st0" d="M560,960h15v15h-15v-15Z"/>
    <path class="st0" d="M624,960h15v15h-15v-15Z"/>
    <path class="st0" d="M768,960h15v15h-15v-15Z"/>
    <path class="st0" d="M784,960h15v15h-15v-15Z"/>
    <path class="st0" d="M800,960h15v15h-15v-15Z"/>
    <path class="st0" d="M864,960h15v15h-15v-15Z"/>
    <path class="st0" d="M944,960h15v15h-15v-15Z"/>
    <path class="st0" d="M1008,960h15v15h-15v-15Z"/>
    <path class="st0" d="M1072,960h15v15h-15v-15Z"/>
    <path class="st0" d="M1136,960h15v15h-15v-15Z"/>
    <path class="st0" d="M1200,960h15v15h-15v-15Z"/>
    <path class="st0" d="M80,976h15v15h-15v-15Z"/>
    <path class="st0" d="M96,976h15v15h-15v-15Z"/>
    <path class="st0" d="M112,976h15v15h-15v-15Z"/>
    <path class="st0" d="M128,976h15v15h-15v-15Z"/>
    <path class="st0" d="M144,976h15v15h-15v-15Z"/>
    <path class="st0" d="M176,976h15v15h-15v-15Z"/>
    <path class="st0" d="M240,976h15v15h-15v-15Z"/>
    <path class="st0" d="M288,976h15v15h-15v-15Z"/>
    <path class="st0" d="M304,976h15v15h-15v-15Z"/>
    <path class="st0" d="M320,976h15v15h-15v-15Z"/>
    <path class="st0" d="M336,976h15v15h-15v-15Z"/>
    <path class="st0" d="M400,976h15v15h-15v-15Z"/>
    <path class="st0" d="M464,976h15v15h-15v-15Z"/>
    <path class="st0" d="M528,976h15v15h-15v-15Z"/>
    <path class="st0" d="M576,976h15v15h-15v-15Z"/>
    <path class="st0" d="M592,976h15v15h-15v-15Z"/>
    <path class="st0" d="M608,976h15v15h-15v-15Z"/>
    <path class="st0" d="M624,976h15v15h-15v-15Z"/>
    <path class="st0" d="M816,976h15v15h-15v-15Z"/>
    <path class="st0" d="M864,976h15v15h-15v-15Z"/>
    <path class="st0" d="M960,976h15v15h-15v-15Z"/>
    <path class="st0" d="M976,976h15v15h-15v-15Z"/>
    <path class="st0" d="M992,976h15v15h-15v-15Z"/>
    <path class="st0" d="M1008,976h15v15h-15v-15Z"/>
    <path class="st0" d="M1072,976h15v15h-15v-15Z"/>
    <path class="st0" d="M1136,976h15v15h-15v-15Z"/>
    <path class="st0" d="M1152,976h15v15h-15v-15Z"/>
    <path class="st0" d="M1168,976h15v15h-15v-15Z"/>
    <path class="st0" d="M1184,976h15v15h-15v-15Z"/>
    <path class="st0" d="M1200,976h15v15h-15v-15Z"/>
    <path class="st0" d="M80,992h15v15h-15v-15Z"/>
    <path class="st0" d="M144,992h15v15h-15v-15Z"/>
    <path class="st0" d="M176,992h15v15h-15v-15Z"/>
    <path class="st0" d="M240,992h15v15h-15v-15Z"/>
    <path class="st0" d="M272,992h15v15h-15v-15Z"/>
    <path class="st0" d="M336,992h15v15h-15v-15Z"/>
    <path class="st0" d="M400,992h15v15h-15v-15Z"/>
    <path class="st0" d="M464,992h15v15h-15v-15Z"/>
    <path class="st0" d="M528,992h15v15h-15v-15Z"/>
    <path class="st0" d="M624,992h15v15h-15v-15Z"/>
    <path class="st0" d="M816,992h15v15h-15v-15Z"/>
    <path class="st0" d="M864,992h15v15h-15v-15Z"/>
    <path class="st0" d="M912,992h15v15h-15v-15Z"/>
    <path class="st0" d="M1008,992h15v15h-15v-15Z"/>
    <path class="st0" d="M1072,992h15v15h-15v-15Z"/>
    <path class="st0" d="M1136,992h15v15h-15v-15Z"/>
    <path class="st0" d="M80,1008h15v15h-15v-15Z"/>
    <path class="st0" d="M144,1008h15v15h-15v-15Z"/>
    <path class="st0" d="M176,1008h15v15h-15v-15Z"/>
    <path class="st0" d="M240,1008h15v15h-15v-15Z"/>
    <path class="st0" d="M288,1008h15v15h-15v-15Z"/>
    <path class="st0" d="M304,1008h15v15h-15v-15Z"/>
    <path class="st0" d="M320,1008h15v15h-15v-15Z"/>
    <path class="st0" d="M336,1008h15v15h-15v-15Z"/>
    <path class="st0" d="M384,1008h15v15h-15v-15Z"/>
    <path class="st0" d="M400,1008h15v15h-15v-15Z"/>
    <path class="st0" d="M416,1008h15v15h-15v-15Z"/>
    <path class="st0" d="M480,1008h15v15h-15v-15Z"/>
    <path class="st0" d="M496,1008h15v15h-15v-15Z"/>
    <path class="st0" d="M512,1008h15v15h-15v-15Z"/>
    <path class="st0" d="M576,1008h15v15h-15v-15Z"/>
    <path class="st0" d="M592,1008h15v15h-15v-15Z"/>
    <path class="st0" d="M608,1008h15v15h-15v-15Z"/>
    <path class="st0" d="M752,1008h15v15h-15v-15Z"/>
    <path class="st0" d="M768,1008h15v15h-15v-15Z"/>
    <path class="st0" d="M784,1008h15v15h-15v-15Z"/>
    <path class="st0" d="M800,1008h15v15h-15v-15Z"/>
    <path class="st0" d="M880,1008h15v15h-15v-15Z"/>
    <path class="st0" d="M896,1008h15v15h-15v-15Z"/>
    <path class="st0" d="M960,1008h15v15h-15v-15Z"/>
    <path class="st0" d="M976,1008h15v15h-15v-15Z"/>
    <path class="st0" d="M992,1008h15v15h-15v-15Z"/>
    <path class="st0" d="M1056,1008h15v15h-15v-15Z"/>
    <path class="st0" d="M1072,1008h15v15h-15v-15Z"/>
    <path class="st0" d="M1088,1008h15v15h-15v-15Z"/>
    <path class="st0" d="M1152,1008h15v15h-15v-15Z"/>
    <path class="st0" d="M1168,1008h15v15h-15v-15Z"/>
    <path class="st0" d="M1184,1008h15v15h-15v-15Z"/>
  </g>
  <g id="Layer_3">
    <g>
      <rect class="st0" x="1855.4" y="48" width="15" height="15"/>
      <rect class="st0" x="1871.4" y="48" width="15" height="15"/>
      <rect class="st0" x="1887.4" y="48" width="15" height="15"/>
      <rect class="st0" x="1903.4" y="48" width="15" height="15"/>
      <rect class="st0" x="1839.4" y="64" width="15" height="15"/>
      <rect class="st0" x="1839.4" y="80" width="15" height="15"/>
      <rect class="st0" x="1855.4" y="96" width="15" height="15"/>
      <rect class="st0" x="1871.4" y="96" width="15" height="15"/>
      <rect class="st0" x="1887.4" y="96" width="15" height="15"/>
      <rect class="st0" x="1903.4" y="112" width="15" height="15"/>
      <rect class="st0" x="1903.4" y="128" width="15" height="15"/>
      <rect class="st0" x="1839.4" y="144" width="15" height="15"/>
      <rect class="st0" x="1855.4" y="144" width="15" height="15"/>
      <rect class="st0" x="1871.4" y="144" width="15" height="15"/>
      <rect class="st0" x="1887.4" y="144" width="15" height="15"/>
    </g>
  </g>
</svg>