<svg height="1120" width="2144" xmlns="http://www.w3.org/2000/svg"><path d="m0 0h2144v1120h-2144z"/><g fill="#fff"><path d="m80 80h15v15h-15z"/><path d="m144 80h15v15h-15z"/><path d="m288 80h15v15h-15z"/><path d="m480 80h15v15h-15z"/><path d="m496 80h15v15h-15z"/><path d="m512 80h15v15h-15z"/><path d="m1056 80h15v15h-15z"/><path d="m1296 80h15v15h-15z"/><path d="m80 96h15v15h-15z"/><path d="m144 96h15v15h-15z"/><path d="m288 96h15v15h-15z"/><path d="m464 96h15v15h-15z"/><path d="m528 96h15v15h-15z"/><path d="m1056 96h15v15h-15z"/><path d="m1296 96h15v15h-15z"/><path d="m80 112h15v15h-15z"/><path d="m96 112h15v15h-15z"/><path d="m144 112h15v15h-15z"/><path d="m192 112h15v15h-15z"/><path d="m208 112h15v15h-15z"/><path d="m224 112h15v15h-15z"/><path d="m272 112h15v15h-15z"/><path d="m288 112h15v15h-15z"/><path d="m304 112h15v15h-15z"/><path d="m464 112h15v15h-15z"/><path d="m576 112h15v15h-15z"/><path d="m592 112h15v15h-15z"/><path d="m608 112h15v15h-15z"/><path d="m656 112h15v15h-15z"/><path d="m688 112h15v15h-15z"/><path d="m704 112h15v15h-15z"/><path d="m752 112h15v15h-15z"/><path d="m784 112h15v15h-15z"/><path d="m800 112h15v15h-15z"/><path d="m864 112h15v15h-15z"/><path d="m880 112h15v15h-15z"/><path d="m896 112h15v15h-15z"/><path d="m960 112h15v15h-15z"/><path d="m976 112h15v15h-15z"/><path d="m992 112h15v15h-15z"/><path d="m1040 112h15v15h-15z"/><path d="m1056 112h15v15h-15z"/><path d="m1072 112h15v15h-15z"/><path d="m1152 112h15v15h-15z"/><path d="m1168 112h15v15h-15z"/><path d="m1184 112h15v15h-15z"/><path d="m1248 112h15v15h-15z"/><path d="m1264 112h15v15h-15z"/><path d="m1296 112h15v15h-15z"/><path d="m80 128h15v15h-15z"/><path d="m112 128h15v15h-15z"/><path d="m144 128h15v15h-15z"/><path d="m176 128h15v15h-15z"/><path d="m240 128h15v15h-15z"/><path d="m288 128h15v15h-15z"/><path d="m464 128h15v15h-15z"/><path d="m560 128h15v15h-15z"/><path d="m624 128h15v15h-15z"/><path d="m656 128h15v15h-15z"/><path d="m672 128h15v15h-15z"/><path d="m720 128h15v15h-15z"/><path d="m752 128h15v15h-15z"/><path d="m768 128h15v15h-15z"/><path d="m816 128h15v15h-15z"/><path d="m848 128h15v15h-15z"/><path d="m912 128h15v15h-15z"/><path d="m944 128h15v15h-15z"/><path d="m1056 128h15v15h-15z"/><path d="m1136 128h15v15h-15z"/><path d="m1200 128h15v15h-15z"/><path d="m1232 128h15v15h-15z"/><path d="m1280 128h15v15h-15z"/><path d="m1296 128h15v15h-15z"/><path d="m80 144h15v15h-15z"/><path d="m128 144h15v15h-15z"/><path d="m144 144h15v15h-15z"/><path d="m176 144h15v15h-15z"/><path d="m240 144h15v15h-15z"/><path d="m288 144h15v15h-15z"/><path d="m464 144h15v15h-15z"/><path d="m560 144h15v15h-15z"/><path d="m624 144h15v15h-15z"/><path d="m656 144h15v15h-15z"/><path d="m720 144h15v15h-15z"/><path d="m752 144h15v15h-15z"/><path d="m816 144h15v15h-15z"/><path d="m848 144h15v15h-15z"/><path d="m864 144h15v15h-15z"/><path d="m880 144h15v15h-15z"/><path d="m896 144h15v15h-15z"/><path d="m912 144h15v15h-15z"/><path d="m944 144h15v15h-15z"/><path d="m1056 144h15v15h-15z"/><path d="m1136 144h15v15h-15z"/><path d="m1152 144h15v15h-15z"/><path d="m1168 144h15v15h-15z"/><path d="m1184 144h15v15h-15z"/><path d="m1200 144h15v15h-15z"/><path d="m1232 144h15v15h-15z"/><path d="m1296 144h15v15h-15z"/><path d="m80 160h15v15h-15z"/><path d="m144 160h15v15h-15z"/><path d="m176 160h15v15h-15z"/><path d="m240 160h15v15h-15z"/><path d="m288 160h15v15h-15z"/><path d="m336 160h15v15h-15z"/><path d="m464 160h15v15h-15z"/><path d="m528 160h15v15h-15z"/><path d="m560 160h15v15h-15z"/><path d="m624 160h15v15h-15z"/><path d="m656 160h15v15h-15z"/><path d="m720 160h15v15h-15z"/><path d="m752 160h15v15h-15z"/><path d="m816 160h15v15h-15z"/><path d="m848 160h15v15h-15z"/><path d="m944 160h15v15h-15z"/><path d="m1008 160h15v15h-15z"/><path d="m1056 160h15v15h-15z"/><path d="m1104 160h15v15h-15z"/><path d="m1136 160h15v15h-15z"/><path d="m1232 160h15v15h-15z"/><path d="m1296 160h15v15h-15z"/><path d="m80 176h15v15h-15z"/><path d="m144 176h15v15h-15z"/><path d="m192 176h15v15h-15z"/><path d="m208 176h15v15h-15z"/><path d="m224 176h15v15h-15z"/><path d="m304 176h15v15h-15z"/><path d="m320 176h15v15h-15z"/><path d="m480 176h15v15h-15z"/><path d="m496 176h15v15h-15z"/><path d="m512 176h15v15h-15z"/><path d="m576 176h15v15h-15z"/><path d="m592 176h15v15h-15z"/><path d="m608 176h15v15h-15z"/><path d="m656 176h15v15h-15z"/><path d="m720 176h15v15h-15z"/><path d="m752 176h15v15h-15z"/><path d="m816 176h15v15h-15z"/><path d="m864 176h15v15h-15z"/><path d="m880 176h15v15h-15z"/><path d="m896 176h15v15h-15z"/><path d="m960 176h15v15h-15z"/><path d="m976 176h15v15h-15z"/><path d="m992 176h15v15h-15z"/><path d="m1072 176h15v15h-15z"/><path d="m1088 176h15v15h-15z"/><path d="m1152 176h15v15h-15z"/><path d="m1168 176h15v15h-15z"/><path d="m1184 176h15v15h-15z"/><path d="m1248 176h15v15h-15z"/><path d="m1264 176h15v15h-15z"/><path d="m1280 176h15v15h-15z"/><path d="m1296 176h15v15h-15z"/><path d="m48 240h15v15h-15z"/><path d="m64 240h15v15h-15z"/><path d="m80 240h15v15h-15z"/><path d="m96 240h15v15h-15z"/><path d="m112 240h15v15h-15z"/><path d="m128 240h15v15h-15z"/><path d="m144 240h15v15h-15z"/><path d="m160 240h15v15h-15z"/><path d="m176 240h15v15h-15z"/><path d="m192 240h15v15h-15z"/><path d="m208 240h15v15h-15z"/><path d="m224 240h15v15h-15z"/><path d="m240 240h15v15h-15z"/><path d="m256 240h15v15h-15z"/><path d="m272 240h15v15h-15z"/><path d="m288 240h15v15h-15z"/><path d="m304 240h15v15h-15z"/><path d="m320 240h15v15h-15z"/><path d="m336 240h15v15h-15z"/><path d="m352 240h15v15h-15z"/><path d="m368 240h15v15h-15z"/><path d="m384 240h15v15h-15z"/><path d="m400 240h15v15h-15z"/><path d="m416 240h15v15h-15z"/><path d="m432 240h15v15h-15z"/><path d="m448 240h15v15h-15z"/><path d="m464 240h15v15h-15z"/><path d="m480 240h15v15h-15z"/><path d="m496 240h15v15h-15z"/><path d="m512 240h15v15h-15z"/><path d="m528 240h15v15h-15z"/><path d="m544 240h15v15h-15z"/><path d="m560 240h15v15h-15z"/><path d="m576 240h15v15h-15z"/><path d="m592 240h15v15h-15z"/><path d="m608 240h15v15h-15z"/><path d="m624 240h15v15h-15z"/><path d="m640 240h15v15h-15z"/><path d="m656 240h15v15h-15z"/><path d="m672 240h15v15h-15z"/><path d="m688 240h15v15h-15z"/><path d="m704 240h15v15h-15z"/><path d="m720 240h15v15h-15z"/><path d="m736 240h15v15h-15z"/><path d="m752 240h15v15h-15z"/><path d="m768 240h15v15h-15z"/><path d="m784 240h15v15h-15z"/><path d="m800 240h15v15h-15z"/><path d="m816 240h15v15h-15z"/><path d="m832 240h15v15h-15z"/><path d="m848 240h15v15h-15z"/><path d="m864 240h15v15h-15z"/><path d="m880 240h15v15h-15z"/><path d="m896 240h15v15h-15z"/><path d="m912 240h15v15h-15z"/><path d="m928 240h15v15h-15z"/><path d="m944 240h15v15h-15z"/><path d="m960 240h15v15h-15z"/><path d="m976 240h15v15h-15z"/><path d="m992 240h15v15h-15z"/><path d="m1008 240h15v15h-15z"/><path d="m1024 240h15v15h-15z"/><path d="m1040 240h15v15h-15z"/><path d="m1056 240h15v15h-15z"/><path d="m1072 240h15v15h-15z"/><path d="m1088 240h15v15h-15z"/><path d="m1104 240h15v15h-15z"/><path d="m1120 240h15v15h-15z"/><path d="m1136 240h15v15h-15z"/><path d="m1152 240h15v15h-15z"/><path d="m1168 240h15v15h-15z"/><path d="m1184 240h15v15h-15z"/><path d="m1200 240h15v15h-15z"/><path d="m1216 240h15v15h-15z"/><path d="m1232 240h15v15h-15z"/><path d="m1248 240h15v15h-15z"/><path d="m1264 240h15v15h-15z"/><path d="m1280 240h15v15h-15z"/><path d="m1296 240h15v15h-15z"/><path d="m1312 240h15v15h-15z"/><path d="m1328 240h15v15h-15z"/><path d="m1344 240h15v15h-15z"/><path d="m1360 240h15v15h-15z"/><path d="m1376 240h15v15h-15z"/><path d="m1392 240h15v15h-15z"/><path d="m1408 240h15v15h-15z"/><path d="m1424 240h15v15h-15z"/><path d="m1440 240h15v15h-15z"/><path d="m1456 240h15v15h-15z"/><path d="m1472 240h15v15h-15z"/><path d="m1488 240h15v15h-15z"/><path d="m1504 240h15v15h-15z"/><path d="m1520 240h15v15h-15z"/><path d="m1536 240h15v15h-15z"/><path d="m1552 240h15v15h-15z"/><path d="m1568 240h15v15h-15z"/><path d="m1584 240h15v15h-15z"/><path d="m1600 240h15v15h-15z"/><path d="m1616 240h15v15h-15z"/><path d="m1632 240h15v15h-15z"/><path d="m1648 240h15v15h-15z"/><path d="m1664 240h15v15h-15z"/><path d="m1680 240h15v15h-15z"/><path d="m1696 240h15v15h-15z"/><path d="m1712 240h15v15h-15z"/><path d="m1728 240h15v15h-15z"/><path d="m1744 240h15v15h-15z"/><path d="m1760 240h15v15h-15z"/><path d="m1776 240h15v15h-15z"/><path d="m1792 240h15v15h-15z"/><path d="m1808 240h15v15h-15z"/><path d="m1824 240h15v15h-15z"/><path d="m1840 240h15v15h-15z"/><path d="m1856 240h15v15h-15z"/><path d="m1872 240h15v15h-15z"/><path d="m1888 240h15v15h-15z"/><path d="m1904 240h15v15h-15z"/><path d="m1920 240h15v15h-15z"/><path d="m1936 240h15v15h-15z"/><path d="m1952 240h15v15h-15z"/><path d="m1968 240h15v15h-15z"/><path d="m1984 240h15v15h-15z"/><path d="m2000 240h15v15h-15z"/><path d="m2016 240h15v15h-15z"/><path d="m2032 240h15v15h-15z"/><path d="m2048 240h15v15h-15z"/><path d="m2064 240h15v15h-15z"/><path d="m48 256h15v15h-15z"/><path d="m64 256h15v15h-15z"/><path d="m80 256h15v15h-15z"/><path d="m160 256h15v15h-15z"/><path d="m176 256h15v15h-15z"/><path d="m192 256h15v15h-15z"/><path d="m208 256h15v15h-15z"/><path d="m224 256h15v15h-15z"/><path d="m240 256h15v15h-15z"/><path d="m256 256h15v15h-15z"/><path d="m272 256h15v15h-15z"/><path d="m320 256h15v15h-15z"/><path d="m336 256h15v15h-15z"/><path d="m352 256h15v15h-15z"/><path d="m368 256h15v15h-15z"/><path d="m384 256h15v15h-15z"/><path d="m400 256h15v15h-15z"/><path d="m416 256h15v15h-15z"/><path d="m432 256h15v15h-15z"/><path d="m448 256h15v15h-15z"/><path d="m464 256h15v15h-15z"/><path d="m480 256h15v15h-15z"/><path d="m496 256h15v15h-15z"/><path d="m512 256h15v15h-15z"/><path d="m528 256h15v15h-15z"/><path d="m544 256h15v15h-15z"/><path d="m560 256h15v15h-15z"/><path d="m592 256h15v15h-15z"/><path d="m608 256h15v15h-15z"/><path d="m624 256h15v15h-15z"/><path d="m640 256h15v15h-15z"/><path d="m656 256h15v15h-15z"/><path d="m672 256h15v15h-15z"/><path d="m688 256h15v15h-15z"/><path d="m704 256h15v15h-15z"/><path d="m720 256h15v15h-15z"/><path d="m736 256h15v15h-15z"/><path d="m768 256h15v15h-15z"/><path d="m784 256h15v15h-15z"/><path d="m800 256h15v15h-15z"/><path d="m832 256h15v15h-15z"/><path d="m848 256h15v15h-15z"/><path d="m864 256h15v15h-15z"/><path d="m880 256h15v15h-15z"/><path d="m896 256h15v15h-15z"/><path d="m912 256h15v15h-15z"/><path d="m928 256h15v15h-15z"/><path d="m944 256h15v15h-15z"/><path d="m976 256h15v15h-15z"/><path d="m992 256h15v15h-15z"/><path d="m1008 256h15v15h-15z"/><path d="m1024 256h15v15h-15z"/><path d="m1040 256h15v15h-15z"/><path d="m1056 256h15v15h-15z"/><path d="m1072 256h15v15h-15z"/><path d="m1088 256h15v15h-15z"/><path d="m1104 256h15v15h-15z"/><path d="m1120 256h15v15h-15z"/><path d="m1136 256h15v15h-15z"/><path d="m1152 256h15v15h-15z"/><path d="m1168 256h15v15h-15z"/><path d="m1184 256h15v15h-15z"/><path d="m1200 256h15v15h-15z"/><path d="m1216 256h15v15h-15z"/><path d="m1232 256h15v15h-15z"/><path d="m1248 256h15v15h-15z"/><path d="m1264 256h15v15h-15z"/><path d="m1280 256h15v15h-15z"/><path d="m1296 256h15v15h-15z"/><path d="m1312 256h15v15h-15z"/><path d="m1344 256h15v15h-15z"/><path d="m1360 256h15v15h-15z"/><path d="m1376 256h15v15h-15z"/><path d="m1392 256h15v15h-15z"/><path d="m1408 256h15v15h-15z"/><path d="m1424 256h15v15h-15z"/><path d="m1440 256h15v15h-15z"/><path d="m1456 256h15v15h-15z"/><path d="m1472 256h15v15h-15z"/><path d="m1488 256h15v15h-15z"/><path d="m1504 256h15v15h-15z"/><path d="m1520 256h15v15h-15z"/><path d="m1536 256h15v15h-15z"/><path d="m1552 256h15v15h-15z"/><path d="m1568 256h15v15h-15z"/><path d="m1584 256h15v15h-15z"/><path d="m1600 256h15v15h-15z"/><path d="m1616 256h15v15h-15z"/><path d="m1632 256h15v15h-15z"/><path d="m1648 256h15v15h-15z"/><path d="m1664 256h15v15h-15z"/><path d="m1680 256h15v15h-15z"/><path d="m1696 256h15v15h-15z"/><path d="m1712 256h15v15h-15z"/><path d="m1744 256h15v15h-15z"/><path d="m1760 256h15v15h-15z"/><path d="m1776 256h15v15h-15z"/><path d="m1792 256h15v15h-15z"/><path d="m1808 256h15v15h-15z"/><path d="m1824 256h15v15h-15z"/><path d="m1840 256h15v15h-15z"/><path d="m1856 256h15v15h-15z"/><path d="m1872 256h15v15h-15z"/><path d="m1888 256h15v15h-15z"/><path d="m1904 256h15v15h-15z"/><path d="m1920 256h15v15h-15z"/><path d="m1936 256h15v15h-15z"/><path d="m1952 256h15v15h-15z"/><path d="m1968 256h15v15h-15z"/><path d="m1984 256h15v15h-15z"/><path d="m2000 256h15v15h-15z"/><path d="m2016 256h15v15h-15z"/><path d="m2032 256h15v15h-15z"/><path d="m2048 256h15v15h-15z"/><path d="m2064 256h15v15h-15z"/><path d="m48 272h15v15h-15z"/><path d="m64 272h15v15h-15z"/><path d="m96 272h15v15h-15z"/><path d="m112 272h15v15h-15z"/><path d="m128 272h15v15h-15z"/><path d="m144 272h15v15h-15z"/><path d="m160 272h15v15h-15z"/><path d="m176 272h15v15h-15z"/><path d="m192 272h15v15h-15z"/><path d="m208 272h15v15h-15z"/><path d="m224 272h15v15h-15z"/><path d="m240 272h15v15h-15z"/><path d="m256 272h15v15h-15z"/><path d="m272 272h15v15h-15z"/><path d="m288 272h15v15h-15z"/><path d="m320 272h15v15h-15z"/><path d="m336 272h15v15h-15z"/><path d="m352 272h15v15h-15z"/><path d="m368 272h15v15h-15z"/><path d="m384 272h15v15h-15z"/><path d="m400 272h15v15h-15z"/><path d="m416 272h15v15h-15z"/><path d="m432 272h15v15h-15z"/><path d="m448 272h15v15h-15z"/><path d="m464 272h15v15h-15z"/><path d="m480 272h15v15h-15z"/><path d="m496 272h15v15h-15z"/><path d="m512 272h15v15h-15z"/><path d="m528 272h15v15h-15z"/><path d="m544 272h15v15h-15z"/><path d="m560 272h15v15h-15z"/><path d="m592 272h15v15h-15z"/><path d="m608 272h15v15h-15z"/><path d="m624 272h15v15h-15z"/><path d="m640 272h15v15h-15z"/><path d="m656 272h15v15h-15z"/><path d="m672 272h15v15h-15z"/><path d="m688 272h15v15h-15z"/><path d="m704 272h15v15h-15z"/><path d="m720 272h15v15h-15z"/><path d="m736 272h15v15h-15z"/><path d="m768 272h15v15h-15z"/><path d="m784 272h15v15h-15z"/><path d="m800 272h15v15h-15z"/><path d="m832 272h15v15h-15z"/><path d="m848 272h15v15h-15z"/><path d="m864 272h15v15h-15z"/><path d="m880 272h15v15h-15z"/><path d="m896 272h15v15h-15z"/><path d="m912 272h15v15h-15z"/><path d="m928 272h15v15h-15z"/><path d="m944 272h15v15h-15z"/><path d="m976 272h15v15h-15z"/><path d="m992 272h15v15h-15z"/><path d="m1008 272h15v15h-15z"/><path d="m1024 272h15v15h-15z"/><path d="m1040 272h15v15h-15z"/><path d="m1056 272h15v15h-15z"/><path d="m1072 272h15v15h-15z"/><path d="m1088 272h15v15h-15z"/><path d="m1104 272h15v15h-15z"/><path d="m1120 272h15v15h-15z"/><path d="m1136 272h15v15h-15z"/><path d="m1152 272h15v15h-15z"/><path d="m1168 272h15v15h-15z"/><path d="m1184 272h15v15h-15z"/><path d="m1200 272h15v15h-15z"/><path d="m1216 272h15v15h-15z"/><path d="m1232 272h15v15h-15z"/><path d="m1248 272h15v15h-15z"/><path d="m1264 272h15v15h-15z"/><path d="m1280 272h15v15h-15z"/><path d="m1296 272h15v15h-15z"/><path d="m1312 272h15v15h-15z"/><path d="m1344 272h15v15h-15z"/><path d="m1360 272h15v15h-15z"/><path d="m1376 272h15v15h-15z"/><path d="m1392 272h15v15h-15z"/><path d="m1408 272h15v15h-15z"/><path d="m1424 272h15v15h-15z"/><path d="m1440 272h15v15h-15z"/><path d="m1456 272h15v15h-15z"/><path d="m1472 272h15v15h-15z"/><path d="m1488 272h15v15h-15z"/><path d="m1504 272h15v15h-15z"/><path d="m1520 272h15v15h-15z"/><path d="m1536 272h15v15h-15z"/><path d="m1552 272h15v15h-15z"/><path d="m1568 272h15v15h-15z"/><path d="m1584 272h15v15h-15z"/><path d="m1600 272h15v15h-15z"/><path d="m1616 272h15v15h-15z"/><path d="m1632 272h15v15h-15z"/><path d="m1648 272h15v15h-15z"/><path d="m1664 272h15v15h-15z"/><path d="m1680 272h15v15h-15z"/><path d="m1696 272h15v15h-15z"/><path d="m1712 272h15v15h-15z"/><path d="m1728 272h15v15h-15z"/><path d="m1760 272h15v15h-15z"/><path d="m1776 272h15v15h-15z"/><path d="m1792 272h15v15h-15z"/><path d="m1808 272h15v15h-15z"/><path d="m1824 272h15v15h-15z"/><path d="m1840 272h15v15h-15z"/><path d="m1856 272h15v15h-15z"/><path d="m1872 272h15v15h-15z"/><path d="m1888 272h15v15h-15z"/><path d="m1904 272h15v15h-15z"/><path d="m1920 272h15v15h-15z"/><path d="m1936 272h15v15h-15z"/><path d="m1952 272h15v15h-15z"/><path d="m1968 272h15v15h-15z"/><path d="m1984 272h15v15h-15z"/><path d="m2000 272h15v15h-15z"/><path d="m2016 272h15v15h-15z"/><path d="m2032 272h15v15h-15z"/><path d="m2048 272h15v15h-15z"/><path d="m2064 272h15v15h-15z"/><path d="m48 288h15v15h-15z"/><path d="m64 288h15v15h-15z"/><path d="m96 288h15v15h-15z"/><path d="m112 288h15v15h-15z"/><path d="m128 288h15v15h-15z"/><path d="m144 288h15v15h-15z"/><path d="m160 288h15v15h-15z"/><path d="m176 288h15v15h-15z"/><path d="m240 288h15v15h-15z"/><path d="m256 288h15v15h-15z"/><path d="m272 288h15v15h-15z"/><path d="m288 288h15v15h-15z"/><path d="m320 288h15v15h-15z"/><path d="m336 288h15v15h-15z"/><path d="m352 288h15v15h-15z"/><path d="m368 288h15v15h-15z"/><path d="m432 288h15v15h-15z"/><path d="m448 288h15v15h-15z"/><path d="m464 288h15v15h-15z"/><path d="m528 288h15v15h-15z"/><path d="m544 288h15v15h-15z"/><path d="m608 288h15v15h-15z"/><path d="m624 288h15v15h-15z"/><path d="m640 288h15v15h-15z"/><path d="m656 288h15v15h-15z"/><path d="m672 288h15v15h-15z"/><path d="m688 288h15v15h-15z"/><path d="m704 288h15v15h-15z"/><path d="m720 288h15v15h-15z"/><path d="m736 288h15v15h-15z"/><path d="m784 288h15v15h-15z"/><path d="m800 288h15v15h-15z"/><path d="m832 288h15v15h-15z"/><path d="m848 288h15v15h-15z"/><path d="m912 288h15v15h-15z"/><path d="m928 288h15v15h-15z"/><path d="m992 288h15v15h-15z"/><path d="m1008 288h15v15h-15z"/><path d="m1024 288h15v15h-15z"/><path d="m1056 288h15v15h-15z"/><path d="m1072 288h15v15h-15z"/><path d="m1088 288h15v15h-15z"/><path d="m1120 288h15v15h-15z"/><path d="m1136 288h15v15h-15z"/><path d="m1200 288h15v15h-15z"/><path d="m1216 288h15v15h-15z"/><path d="m1248 288h15v15h-15z"/><path d="m1296 288h15v15h-15z"/><path d="m1312 288h15v15h-15z"/><path d="m1344 288h15v15h-15z"/><path d="m1360 288h15v15h-15z"/><path d="m1392 288h15v15h-15z"/><path d="m1408 288h15v15h-15z"/><path d="m1424 288h15v15h-15z"/><path d="m1440 288h15v15h-15z"/><path d="m1456 288h15v15h-15z"/><path d="m1472 288h15v15h-15z"/><path d="m1488 288h15v15h-15z"/><path d="m1504 288h15v15h-15z"/><path d="m1520 288h15v15h-15z"/><path d="m1536 288h15v15h-15z"/><path d="m1552 288h15v15h-15z"/><path d="m1568 288h15v15h-15z"/><path d="m1584 288h15v15h-15z"/><path d="m1600 288h15v15h-15z"/><path d="m1616 288h15v15h-15z"/><path d="m1632 288h15v15h-15z"/><path d="m1648 288h15v15h-15z"/><path d="m1664 288h15v15h-15z"/><path d="m1680 288h15v15h-15z"/><path d="m1696 288h15v15h-15z"/><path d="m1712 288h15v15h-15z"/><path d="m1728 288h15v15h-15z"/><path d="m1744 288h15v15h-15z"/><path d="m1776 288h15v15h-15z"/><path d="m1792 288h15v15h-15z"/><path d="m1808 288h15v15h-15z"/><path d="m1824 288h15v15h-15z"/><path d="m1840 288h15v15h-15z"/><path d="m1856 288h15v15h-15z"/><path d="m1872 288h15v15h-15z"/><path d="m1888 288h15v15h-15z"/><path d="m1904 288h15v15h-15z"/><path d="m1920 288h15v15h-15z"/><path d="m1936 288h15v15h-15z"/><path d="m1952 288h15v15h-15z"/><path d="m1968 288h15v15h-15z"/><path d="m1984 288h15v15h-15z"/><path d="m2000 288h15v15h-15z"/><path d="m2016 288h15v15h-15z"/><path d="m2032 288h15v15h-15z"/><path d="m2048 288h15v15h-15z"/><path d="m2064 288h15v15h-15z"/><path d="m48 304h15v15h-15z"/><path d="m64 304h15v15h-15z"/><path d="m80 304h15v15h-15z"/><path d="m144 304h15v15h-15z"/><path d="m160 304h15v15h-15z"/><path d="m192 304h15v15h-15z"/><path d="m208 304h15v15h-15z"/><path d="m224 304h15v15h-15z"/><path d="m256 304h15v15h-15z"/><path d="m272 304h15v15h-15z"/><path d="m288 304h15v15h-15z"/><path d="m320 304h15v15h-15z"/><path d="m336 304h15v15h-15z"/><path d="m352 304h15v15h-15z"/><path d="m384 304h15v15h-15z"/><path d="m400 304h15v15h-15z"/><path d="m416 304h15v15h-15z"/><path d="m448 304h15v15h-15z"/><path d="m480 304h15v15h-15z"/><path d="m496 304h15v15h-15z"/><path d="m512 304h15v15h-15z"/><path d="m528 304h15v15h-15z"/><path d="m544 304h15v15h-15z"/><path d="m560 304h15v15h-15z"/><path d="m592 304h15v15h-15z"/><path d="m608 304h15v15h-15z"/><path d="m624 304h15v15h-15z"/><path d="m640 304h15v15h-15z"/><path d="m656 304h15v15h-15z"/><path d="m672 304h15v15h-15z"/><path d="m688 304h15v15h-15z"/><path d="m704 304h15v15h-15z"/><path d="m720 304h15v15h-15z"/><path d="m736 304h15v15h-15z"/><path d="m768 304h15v15h-15z"/><path d="m800 304h15v15h-15z"/><path d="m832 304h15v15h-15z"/><path d="m864 304h15v15h-15z"/><path d="m880 304h15v15h-15z"/><path d="m896 304h15v15h-15z"/><path d="m928 304h15v15h-15z"/><path d="m944 304h15v15h-15z"/><path d="m976 304h15v15h-15z"/><path d="m992 304h15v15h-15z"/><path d="m1008 304h15v15h-15z"/><path d="m1024 304h15v15h-15z"/><path d="m1056 304h15v15h-15z"/><path d="m1072 304h15v15h-15z"/><path d="m1088 304h15v15h-15z"/><path d="m1120 304h15v15h-15z"/><path d="m1152 304h15v15h-15z"/><path d="m1168 304h15v15h-15z"/><path d="m1184 304h15v15h-15z"/><path d="m1216 304h15v15h-15z"/><path d="m1264 304h15v15h-15z"/><path d="m1280 304h15v15h-15z"/><path d="m1312 304h15v15h-15z"/><path d="m1344 304h15v15h-15z"/><path d="m1376 304h15v15h-15z"/><path d="m1392 304h15v15h-15z"/><path d="m1408 304h15v15h-15z"/><path d="m1424 304h15v15h-15z"/><path d="m1440 304h15v15h-15z"/><path d="m1456 304h15v15h-15z"/><path d="m1472 304h15v15h-15z"/><path d="m1488 304h15v15h-15z"/><path d="m1504 304h15v15h-15z"/><path d="m1520 304h15v15h-15z"/><path d="m1536 304h15v15h-15z"/><path d="m1552 304h15v15h-15z"/><path d="m1568 304h15v15h-15z"/><path d="m1584 304h15v15h-15z"/><path d="m1600 304h15v15h-15z"/><path d="m1616 304h15v15h-15z"/><path d="m1632 304h15v15h-15z"/><path d="m1648 304h15v15h-15z"/><path d="m1664 304h15v15h-15z"/><path d="m1680 304h15v15h-15z"/><path d="m1696 304h15v15h-15z"/><path d="m1712 304h15v15h-15z"/><path d="m1728 304h15v15h-15z"/><path d="m1744 304h15v15h-15z"/><path d="m1760 304h15v15h-15z"/><path d="m1792 304h15v15h-15z"/><path d="m1808 304h15v15h-15z"/><path d="m1824 304h15v15h-15z"/><path d="m1840 304h15v15h-15z"/><path d="m1856 304h15v15h-15z"/><path d="m1872 304h15v15h-15z"/><path d="m1888 304h15v15h-15z"/><path d="m1904 304h15v15h-15z"/><path d="m1920 304h15v15h-15z"/><path d="m1936 304h15v15h-15z"/><path d="m1952 304h15v15h-15z"/><path d="m1968 304h15v15h-15z"/><path d="m1984 304h15v15h-15z"/><path d="m2000 304h15v15h-15z"/><path d="m2016 304h15v15h-15z"/><path d="m2032 304h15v15h-15z"/><path d="m2048 304h15v15h-15z"/><path d="m2064 304h15v15h-15z"/><path d="m48 320h15v15h-15z"/><path d="m64 320h15v15h-15z"/><path d="m80 320h15v15h-15z"/><path d="m96 320h15v15h-15z"/><path d="m112 320h15v15h-15z"/><path d="m128 320h15v15h-15z"/><path d="m160 320h15v15h-15z"/><path d="m256 320h15v15h-15z"/><path d="m272 320h15v15h-15z"/><path d="m288 320h15v15h-15z"/><path d="m320 320h15v15h-15z"/><path d="m336 320h15v15h-15z"/><path d="m352 320h15v15h-15z"/><path d="m448 320h15v15h-15z"/><path d="m480 320h15v15h-15z"/><path d="m496 320h15v15h-15z"/><path d="m512 320h15v15h-15z"/><path d="m528 320h15v15h-15z"/><path d="m544 320h15v15h-15z"/><path d="m560 320h15v15h-15z"/><path d="m592 320h15v15h-15z"/><path d="m608 320h15v15h-15z"/><path d="m624 320h15v15h-15z"/><path d="m640 320h15v15h-15z"/><path d="m656 320h15v15h-15z"/><path d="m672 320h15v15h-15z"/><path d="m688 320h15v15h-15z"/><path d="m704 320h15v15h-15z"/><path d="m720 320h15v15h-15z"/><path d="m736 320h15v15h-15z"/><path d="m768 320h15v15h-15z"/><path d="m784 320h15v15h-15z"/><path d="m832 320h15v15h-15z"/><path d="m928 320h15v15h-15z"/><path d="m944 320h15v15h-15z"/><path d="m976 320h15v15h-15z"/><path d="m992 320h15v15h-15z"/><path d="m1008 320h15v15h-15z"/><path d="m1024 320h15v15h-15z"/><path d="m1056 320h15v15h-15z"/><path d="m1088 320h15v15h-15z"/><path d="m1120 320h15v15h-15z"/><path d="m1152 320h15v15h-15z"/><path d="m1168 320h15v15h-15z"/><path d="m1184 320h15v15h-15z"/><path d="m1216 320h15v15h-15z"/><path d="m1248 320h15v15h-15z"/><path d="m1264 320h15v15h-15z"/><path d="m1280 320h15v15h-15z"/><path d="m1296 320h15v15h-15z"/><path d="m1312 320h15v15h-15z"/><path d="m1360 320h15v15h-15z"/><path d="m1376 320h15v15h-15z"/><path d="m1392 320h15v15h-15z"/><path d="m1408 320h15v15h-15z"/><path d="m1424 320h15v15h-15z"/><path d="m1440 320h15v15h-15z"/><path d="m1456 320h15v15h-15z"/><path d="m1472 320h15v15h-15z"/><path d="m1488 320h15v15h-15z"/><path d="m1504 320h15v15h-15z"/><path d="m1520 320h15v15h-15z"/><path d="m1536 320h15v15h-15z"/><path d="m1552 320h15v15h-15z"/><path d="m1568 320h15v15h-15z"/><path d="m1584 320h15v15h-15z"/><path d="m1600 320h15v15h-15z"/><path d="m1616 320h15v15h-15z"/><path d="m1632 320h15v15h-15z"/><path d="m1648 320h15v15h-15z"/><path d="m1664 320h15v15h-15z"/><path d="m1680 320h15v15h-15z"/><path d="m1696 320h15v15h-15z"/><path d="m1712 320h15v15h-15z"/><path d="m1728 320h15v15h-15z"/><path d="m1744 320h15v15h-15z"/><path d="m1776 320h15v15h-15z"/><path d="m1792 320h15v15h-15z"/><path d="m1808 320h15v15h-15z"/><path d="m1824 320h15v15h-15z"/><path d="m1840 320h15v15h-15z"/><path d="m1856 320h15v15h-15z"/><path d="m1872 320h15v15h-15z"/><path d="m1888 320h15v15h-15z"/><path d="m1904 320h15v15h-15z"/><path d="m1920 320h15v15h-15z"/><path d="m1936 320h15v15h-15z"/><path d="m1952 320h15v15h-15z"/><path d="m1968 320h15v15h-15z"/><path d="m1984 320h15v15h-15z"/><path d="m2000 320h15v15h-15z"/><path d="m2016 320h15v15h-15z"/><path d="m2032 320h15v15h-15z"/><path d="m2048 320h15v15h-15z"/><path d="m2064 320h15v15h-15z"/><path d="m48 336h15v15h-15z"/><path d="m64 336h15v15h-15z"/><path d="m80 336h15v15h-15z"/><path d="m96 336h15v15h-15z"/><path d="m112 336h15v15h-15z"/><path d="m128 336h15v15h-15z"/><path d="m160 336h15v15h-15z"/><path d="m192 336h15v15h-15z"/><path d="m208 336h15v15h-15z"/><path d="m224 336h15v15h-15z"/><path d="m240 336h15v15h-15z"/><path d="m256 336h15v15h-15z"/><path d="m272 336h15v15h-15z"/><path d="m288 336h15v15h-15z"/><path d="m320 336h15v15h-15z"/><path d="m336 336h15v15h-15z"/><path d="m352 336h15v15h-15z"/><path d="m384 336h15v15h-15z"/><path d="m400 336h15v15h-15z"/><path d="m416 336h15v15h-15z"/><path d="m432 336h15v15h-15z"/><path d="m448 336h15v15h-15z"/><path d="m480 336h15v15h-15z"/><path d="m496 336h15v15h-15z"/><path d="m512 336h15v15h-15z"/><path d="m544 336h15v15h-15z"/><path d="m560 336h15v15h-15z"/><path d="m592 336h15v15h-15z"/><path d="m608 336h15v15h-15z"/><path d="m640 336h15v15h-15z"/><path d="m656 336h15v15h-15z"/><path d="m672 336h15v15h-15z"/><path d="m688 336h15v15h-15z"/><path d="m704 336h15v15h-15z"/><path d="m720 336h15v15h-15z"/><path d="m736 336h15v15h-15z"/><path d="m768 336h15v15h-15z"/><path d="m784 336h15v15h-15z"/><path d="m800 336h15v15h-15z"/><path d="m832 336h15v15h-15z"/><path d="m864 336h15v15h-15z"/><path d="m880 336h15v15h-15z"/><path d="m896 336h15v15h-15z"/><path d="m912 336h15v15h-15z"/><path d="m928 336h15v15h-15z"/><path d="m944 336h15v15h-15z"/><path d="m976 336h15v15h-15z"/><path d="m992 336h15v15h-15z"/><path d="m1024 336h15v15h-15z"/><path d="m1056 336h15v15h-15z"/><path d="m1088 336h15v15h-15z"/><path d="m1120 336h15v15h-15z"/><path d="m1152 336h15v15h-15z"/><path d="m1168 336h15v15h-15z"/><path d="m1184 336h15v15h-15z"/><path d="m1216 336h15v15h-15z"/><path d="m1248 336h15v15h-15z"/><path d="m1264 336h15v15h-15z"/><path d="m1280 336h15v15h-15z"/><path d="m1296 336h15v15h-15z"/><path d="m1312 336h15v15h-15z"/><path d="m1344 336h15v15h-15z"/><path d="m1376 336h15v15h-15z"/><path d="m1392 336h15v15h-15z"/><path d="m1408 336h15v15h-15z"/><path d="m1424 336h15v15h-15z"/><path d="m1440 336h15v15h-15z"/><path d="m1456 336h15v15h-15z"/><path d="m1472 336h15v15h-15z"/><path d="m1488 336h15v15h-15z"/><path d="m1504 336h15v15h-15z"/><path d="m1520 336h15v15h-15z"/><path d="m1536 336h15v15h-15z"/><path d="m1552 336h15v15h-15z"/><path d="m1568 336h15v15h-15z"/><path d="m1584 336h15v15h-15z"/><path d="m1600 336h15v15h-15z"/><path d="m1616 336h15v15h-15z"/><path d="m1632 336h15v15h-15z"/><path d="m1648 336h15v15h-15z"/><path d="m1664 336h15v15h-15z"/><path d="m1680 336h15v15h-15z"/><path d="m1696 336h15v15h-15z"/><path d="m1712 336h15v15h-15z"/><path d="m1728 336h15v15h-15z"/><path d="m1760 336h15v15h-15z"/><path d="m1776 336h15v15h-15z"/><path d="m1792 336h15v15h-15z"/><path d="m1808 336h15v15h-15z"/><path d="m1824 336h15v15h-15z"/><path d="m1840 336h15v15h-15z"/><path d="m1856 336h15v15h-15z"/><path d="m1872 336h15v15h-15z"/><path d="m1888 336h15v15h-15z"/><path d="m1904 336h15v15h-15z"/><path d="m1920 336h15v15h-15z"/><path d="m1936 336h15v15h-15z"/><path d="m1952 336h15v15h-15z"/><path d="m1968 336h15v15h-15z"/><path d="m1984 336h15v15h-15z"/><path d="m2000 336h15v15h-15z"/><path d="m2016 336h15v15h-15z"/><path d="m2032 336h15v15h-15z"/><path d="m2048 336h15v15h-15z"/><path d="m2064 336h15v15h-15z"/><path d="m48 352h15v15h-15z"/><path d="m64 352h15v15h-15z"/><path d="m144 352h15v15h-15z"/><path d="m160 352h15v15h-15z"/><path d="m176 352h15v15h-15z"/><path d="m240 352h15v15h-15z"/><path d="m256 352h15v15h-15z"/><path d="m272 352h15v15h-15z"/><path d="m336 352h15v15h-15z"/><path d="m352 352h15v15h-15z"/><path d="m368 352h15v15h-15z"/><path d="m432 352h15v15h-15z"/><path d="m448 352h15v15h-15z"/><path d="m464 352h15v15h-15z"/><path d="m528 352h15v15h-15z"/><path d="m544 352h15v15h-15z"/><path d="m560 352h15v15h-15z"/><path d="m576 352h15v15h-15z"/><path d="m624 352h15v15h-15z"/><path d="m640 352h15v15h-15z"/><path d="m656 352h15v15h-15z"/><path d="m672 352h15v15h-15z"/><path d="m688 352h15v15h-15z"/><path d="m704 352h15v15h-15z"/><path d="m720 352h15v15h-15z"/><path d="m736 352h15v15h-15z"/><path d="m768 352h15v15h-15z"/><path d="m784 352h15v15h-15z"/><path d="m800 352h15v15h-15z"/><path d="m832 352h15v15h-15z"/><path d="m848 352h15v15h-15z"/><path d="m912 352h15v15h-15z"/><path d="m928 352h15v15h-15z"/><path d="m944 352h15v15h-15z"/><path d="m960 352h15v15h-15z"/><path d="m1008 352h15v15h-15z"/><path d="m1024 352h15v15h-15z"/><path d="m1040 352h15v15h-15z"/><path d="m1072 352h15v15h-15z"/><path d="m1104 352h15v15h-15z"/><path d="m1120 352h15v15h-15z"/><path d="m1136 352h15v15h-15z"/><path d="m1200 352h15v15h-15z"/><path d="m1216 352h15v15h-15z"/><path d="m1248 352h15v15h-15z"/><path d="m1264 352h15v15h-15z"/><path d="m1280 352h15v15h-15z"/><path d="m1296 352h15v15h-15z"/><path d="m1312 352h15v15h-15z"/><path d="m1344 352h15v15h-15z"/><path d="m1360 352h15v15h-15z"/><path d="m1392 352h15v15h-15z"/><path d="m1408 352h15v15h-15z"/><path d="m1424 352h15v15h-15z"/><path d="m1440 352h15v15h-15z"/><path d="m1456 352h15v15h-15z"/><path d="m1472 352h15v15h-15z"/><path d="m1488 352h15v15h-15z"/><path d="m1504 352h15v15h-15z"/><path d="m1520 352h15v15h-15z"/><path d="m1536 352h15v15h-15z"/><path d="m1552 352h15v15h-15z"/><path d="m1568 352h15v15h-15z"/><path d="m1584 352h15v15h-15z"/><path d="m1600 352h15v15h-15z"/><path d="m1616 352h15v15h-15z"/><path d="m1632 352h15v15h-15z"/><path d="m1648 352h15v15h-15z"/><path d="m1664 352h15v15h-15z"/><path d="m1680 352h15v15h-15z"/><path d="m1696 352h15v15h-15z"/><path d="m1712 352h15v15h-15z"/><path d="m1744 352h15v15h-15z"/><path d="m1760 352h15v15h-15z"/><path d="m1776 352h15v15h-15z"/><path d="m1792 352h15v15h-15z"/><path d="m1808 352h15v15h-15z"/><path d="m1824 352h15v15h-15z"/><path d="m1840 352h15v15h-15z"/><path d="m1856 352h15v15h-15z"/><path d="m1872 352h15v15h-15z"/><path d="m1888 352h15v15h-15z"/><path d="m1904 352h15v15h-15z"/><path d="m1920 352h15v15h-15z"/><path d="m1936 352h15v15h-15z"/><path d="m1952 352h15v15h-15z"/><path d="m1968 352h15v15h-15z"/><path d="m1984 352h15v15h-15z"/><path d="m2000 352h15v15h-15z"/><path d="m2016 352h15v15h-15z"/><path d="m2032 352h15v15h-15z"/><path d="m2048 352h15v15h-15z"/><path d="m2064 352h15v15h-15z"/><path d="m48 368h15v15h-15z"/><path d="m64 368h15v15h-15z"/><path d="m80 368h15v15h-15z"/><path d="m96 368h15v15h-15z"/><path d="m112 368h15v15h-15z"/><path d="m128 368h15v15h-15z"/><path d="m144 368h15v15h-15z"/><path d="m160 368h15v15h-15z"/><path d="m176 368h15v15h-15z"/><path d="m192 368h15v15h-15z"/><path d="m208 368h15v15h-15z"/><path d="m224 368h15v15h-15z"/><path d="m240 368h15v15h-15z"/><path d="m256 368h15v15h-15z"/><path d="m272 368h15v15h-15z"/><path d="m288 368h15v15h-15z"/><path d="m304 368h15v15h-15z"/><path d="m320 368h15v15h-15z"/><path d="m336 368h15v15h-15z"/><path d="m352 368h15v15h-15z"/><path d="m368 368h15v15h-15z"/><path d="m384 368h15v15h-15z"/><path d="m400 368h15v15h-15z"/><path d="m416 368h15v15h-15z"/><path d="m432 368h15v15h-15z"/><path d="m448 368h15v15h-15z"/><path d="m464 368h15v15h-15z"/><path d="m480 368h15v15h-15z"/><path d="m496 368h15v15h-15z"/><path d="m512 368h15v15h-15z"/><path d="m528 368h15v15h-15z"/><path d="m544 368h15v15h-15z"/><path d="m560 368h15v15h-15z"/><path d="m576 368h15v15h-15z"/><path d="m592 368h15v15h-15z"/><path d="m608 368h15v15h-15z"/><path d="m624 368h15v15h-15z"/><path d="m640 368h15v15h-15z"/><path d="m656 368h15v15h-15z"/><path d="m672 368h15v15h-15z"/><path d="m688 368h15v15h-15z"/><path d="m704 368h15v15h-15z"/><path d="m720 368h15v15h-15z"/><path d="m736 368h15v15h-15z"/><path d="m752 368h15v15h-15z"/><path d="m768 368h15v15h-15z"/><path d="m784 368h15v15h-15z"/><path d="m800 368h15v15h-15z"/><path d="m816 368h15v15h-15z"/><path d="m832 368h15v15h-15z"/><path d="m848 368h15v15h-15z"/><path d="m864 368h15v15h-15z"/><path d="m880 368h15v15h-15z"/><path d="m896 368h15v15h-15z"/><path d="m912 368h15v15h-15z"/><path d="m928 368h15v15h-15z"/><path d="m944 368h15v15h-15z"/><path d="m960 368h15v15h-15z"/><path d="m976 368h15v15h-15z"/><path d="m992 368h15v15h-15z"/><path d="m1008 368h15v15h-15z"/><path d="m1024 368h15v15h-15z"/><path d="m1040 368h15v15h-15z"/><path d="m1056 368h15v15h-15z"/><path d="m1072 368h15v15h-15z"/><path d="m1088 368h15v15h-15z"/><path d="m1104 368h15v15h-15z"/><path d="m1120 368h15v15h-15z"/><path d="m1136 368h15v15h-15z"/><path d="m1152 368h15v15h-15z"/><path d="m1168 368h15v15h-15z"/><path d="m1184 368h15v15h-15z"/><path d="m1200 368h15v15h-15z"/><path d="m1216 368h15v15h-15z"/><path d="m1232 368h15v15h-15z"/><path d="m1248 368h15v15h-15z"/><path d="m1264 368h15v15h-15z"/><path d="m1280 368h15v15h-15z"/><path d="m1296 368h15v15h-15z"/><path d="m1312 368h15v15h-15z"/><path d="m1328 368h15v15h-15z"/><path d="m1344 368h15v15h-15z"/><path d="m1360 368h15v15h-15z"/><path d="m1376 368h15v15h-15z"/><path d="m1392 368h15v15h-15z"/><path d="m1408 368h15v15h-15z"/><path d="m1424 368h15v15h-15z"/><path d="m1440 368h15v15h-15z"/><path d="m1456 368h15v15h-15z"/><path d="m1472 368h15v15h-15z"/><path d="m1488 368h15v15h-15z"/><path d="m1504 368h15v15h-15z"/><path d="m1520 368h15v15h-15z"/><path d="m1536 368h15v15h-15z"/><path d="m1552 368h15v15h-15z"/><path d="m1568 368h15v15h-15z"/><path d="m1584 368h15v15h-15z"/><path d="m1600 368h15v15h-15z"/><path d="m1616 368h15v15h-15z"/><path d="m1632 368h15v15h-15z"/><path d="m1648 368h15v15h-15z"/><path d="m1664 368h15v15h-15z"/><path d="m1680 368h15v15h-15z"/><path d="m1696 368h15v15h-15z"/><path d="m1712 368h15v15h-15z"/><path d="m1728 368h15v15h-15z"/><path d="m1744 368h15v15h-15z"/><path d="m1760 368h15v15h-15z"/><path d="m1776 368h15v15h-15z"/><path d="m1792 368h15v15h-15z"/><path d="m1808 368h15v15h-15z"/><path d="m1824 368h15v15h-15z"/><path d="m1840 368h15v15h-15z"/><path d="m1856 368h15v15h-15z"/><path d="m1872 368h15v15h-15z"/><path d="m1888 368h15v15h-15z"/><path d="m1904 368h15v15h-15z"/><path d="m1920 368h15v15h-15z"/><path d="m1936 368h15v15h-15z"/><path d="m1952 368h15v15h-15z"/><path d="m1968 368h15v15h-15z"/><path d="m1984 368h15v15h-15z"/><path d="m2000 368h15v15h-15z"/><path d="m2016 368h15v15h-15z"/><path d="m2032 368h15v15h-15z"/><path d="m2048 368h15v15h-15z"/><path d="m2064 368h15v15h-15z"/><path d="m48 384h15v15h-15z"/><path d="m64 384h15v15h-15z"/><path d="m80 384h15v15h-15z"/><path d="m96 384h15v15h-15z"/><path d="m112 384h15v15h-15z"/><path d="m128 384h15v15h-15z"/><path d="m144 384h15v15h-15z"/><path d="m160 384h15v15h-15z"/><path d="m176 384h15v15h-15z"/><path d="m192 384h15v15h-15z"/><path d="m208 384h15v15h-15z"/><path d="m224 384h15v15h-15z"/><path d="m240 384h15v15h-15z"/><path d="m256 384h15v15h-15z"/><path d="m272 384h15v15h-15z"/><path d="m288 384h15v15h-15z"/><path d="m304 384h15v15h-15z"/><path d="m320 384h15v15h-15z"/><path d="m336 384h15v15h-15z"/><path d="m352 384h15v15h-15z"/><path d="m368 384h15v15h-15z"/><path d="m384 384h15v15h-15z"/><path d="m400 384h15v15h-15z"/><path d="m416 384h15v15h-15z"/><path d="m432 384h15v15h-15z"/><path d="m448 384h15v15h-15z"/><path d="m464 384h15v15h-15z"/><path d="m480 384h15v15h-15z"/><path d="m496 384h15v15h-15z"/><path d="m512 384h15v15h-15z"/><path d="m528 384h15v15h-15z"/><path d="m544 384h15v15h-15z"/><path d="m560 384h15v15h-15z"/><path d="m576 384h15v15h-15z"/><path d="m592 384h15v15h-15z"/><path d="m608 384h15v15h-15z"/><path d="m624 384h15v15h-15z"/><path d="m640 384h15v15h-15z"/><path d="m656 384h15v15h-15z"/><path d="m672 384h15v15h-15z"/><path d="m688 384h15v15h-15z"/><path d="m704 384h15v15h-15z"/><path d="m720 384h15v15h-15z"/><path d="m736 384h15v15h-15z"/><path d="m752 384h15v15h-15z"/><path d="m768 384h15v15h-15z"/><path d="m784 384h15v15h-15z"/><path d="m800 384h15v15h-15z"/><path d="m816 384h15v15h-15z"/><path d="m832 384h15v15h-15z"/><path d="m848 384h15v15h-15z"/><path d="m864 384h15v15h-15z"/><path d="m880 384h15v15h-15z"/><path d="m896 384h15v15h-15z"/><path d="m912 384h15v15h-15z"/><path d="m928 384h15v15h-15z"/><path d="m944 384h15v15h-15z"/><path d="m960 384h15v15h-15z"/><path d="m976 384h15v15h-15z"/><path d="m992 384h15v15h-15z"/><path d="m1008 384h15v15h-15z"/><path d="m1024 384h15v15h-15z"/><path d="m1040 384h15v15h-15z"/><path d="m1056 384h15v15h-15z"/><path d="m1072 384h15v15h-15z"/><path d="m1088 384h15v15h-15z"/><path d="m1104 384h15v15h-15z"/><path d="m1120 384h15v15h-15z"/><path d="m1136 384h15v15h-15z"/><path d="m1152 384h15v15h-15z"/><path d="m1168 384h15v15h-15z"/><path d="m1184 384h15v15h-15z"/><path d="m1200 384h15v15h-15z"/><path d="m1216 384h15v15h-15z"/><path d="m1232 384h15v15h-15z"/><path d="m1248 384h15v15h-15z"/><path d="m1264 384h15v15h-15z"/><path d="m1280 384h15v15h-15z"/><path d="m1296 384h15v15h-15z"/><path d="m1312 384h15v15h-15z"/><path d="m1328 384h15v15h-15z"/><path d="m1344 384h15v15h-15z"/><path d="m1360 384h15v15h-15z"/><path d="m1376 384h15v15h-15z"/><path d="m1392 384h15v15h-15z"/><path d="m1408 384h15v15h-15z"/><path d="m1424 384h15v15h-15z"/><path d="m1440 384h15v15h-15z"/><path d="m1456 384h15v15h-15z"/><path d="m1472 384h15v15h-15z"/><path d="m1488 384h15v15h-15z"/><path d="m1504 384h15v15h-15z"/><path d="m1520 384h15v15h-15z"/><path d="m1536 384h15v15h-15z"/><path d="m1552 384h15v15h-15z"/><path d="m1568 384h15v15h-15z"/><path d="m1584 384h15v15h-15z"/><path d="m1600 384h15v15h-15z"/><path d="m1616 384h15v15h-15z"/><path d="m1632 384h15v15h-15z"/><path d="m1648 384h15v15h-15z"/><path d="m1664 384h15v15h-15z"/><path d="m1680 384h15v15h-15z"/><path d="m1696 384h15v15h-15z"/><path d="m1712 384h15v15h-15z"/><path d="m1728 384h15v15h-15z"/><path d="m1744 384h15v15h-15z"/><path d="m1760 384h15v15h-15z"/><path d="m1776 384h15v15h-15z"/><path d="m1792 384h15v15h-15z"/><path d="m1808 384h15v15h-15z"/><path d="m1824 384h15v15h-15z"/><path d="m1840 384h15v15h-15z"/><path d="m1856 384h15v15h-15z"/><path d="m1872 384h15v15h-15z"/><path d="m1888 384h15v15h-15z"/><path d="m1904 384h15v15h-15z"/><path d="m1920 384h15v15h-15z"/><path d="m1936 384h15v15h-15z"/><path d="m1952 384h15v15h-15z"/><path d="m1968 384h15v15h-15z"/><path d="m1984 384h15v15h-15z"/><path d="m2000 384h15v15h-15z"/><path d="m2016 384h15v15h-15z"/><path d="m2032 384h15v15h-15z"/><path d="m2048 384h15v15h-15z"/><path d="m2064 384h15v15h-15z"/><path d="m48 400h15v15h-15z"/><path d="m64 400h15v15h-15z"/><path d="m80 400h15v15h-15z"/><path d="m96 400h15v15h-15z"/><path d="m112 400h15v15h-15z"/><path d="m128 400h15v15h-15z"/><path d="m144 400h15v15h-15z"/><path d="m160 400h15v15h-15z"/><path d="m176 400h15v15h-15z"/><path d="m192 400h15v15h-15z"/><path d="m208 400h15v15h-15z"/><path d="m224 400h15v15h-15z"/><path d="m240 400h15v15h-15z"/><path d="m256 400h15v15h-15z"/><path d="m272 400h15v15h-15z"/><path d="m288 400h15v15h-15z"/><path d="m304 400h15v15h-15z"/><path d="m320 400h15v15h-15z"/><path d="m336 400h15v15h-15z"/><path d="m352 400h15v15h-15z"/><path d="m368 400h15v15h-15z"/><path d="m384 400h15v15h-15z"/><path d="m400 400h15v15h-15z"/><path d="m416 400h15v15h-15z"/><path d="m432 400h15v15h-15z"/><path d="m448 400h15v15h-15z"/><path d="m464 400h15v15h-15z"/><path d="m480 400h15v15h-15z"/><path d="m496 400h15v15h-15z"/><path d="m512 400h15v15h-15z"/><path d="m528 400h15v15h-15z"/><path d="m544 400h15v15h-15z"/><path d="m560 400h15v15h-15z"/><path d="m576 400h15v15h-15z"/><path d="m592 400h15v15h-15z"/><path d="m608 400h15v15h-15z"/><path d="m624 400h15v15h-15z"/><path d="m640 400h15v15h-15z"/><path d="m656 400h15v15h-15z"/><path d="m672 400h15v15h-15z"/><path d="m688 400h15v15h-15z"/><path d="m704 400h15v15h-15z"/><path d="m720 400h15v15h-15z"/><path d="m736 400h15v15h-15z"/><path d="m752 400h15v15h-15z"/><path d="m768 400h15v15h-15z"/><path d="m784 400h15v15h-15z"/><path d="m800 400h15v15h-15z"/><path d="m816 400h15v15h-15z"/><path d="m832 400h15v15h-15z"/><path d="m848 400h15v15h-15z"/><path d="m864 400h15v15h-15z"/><path d="m880 400h15v15h-15z"/><path d="m896 400h15v15h-15z"/><path d="m912 400h15v15h-15z"/><path d="m928 400h15v15h-15z"/><path d="m944 400h15v15h-15z"/><path d="m960 400h15v15h-15z"/><path d="m976 400h15v15h-15z"/><path d="m992 400h15v15h-15z"/><path d="m1008 400h15v15h-15z"/><path d="m1024 400h15v15h-15z"/><path d="m1040 400h15v15h-15z"/><path d="m1056 400h15v15h-15z"/><path d="m1072 400h15v15h-15z"/><path d="m1088 400h15v15h-15z"/><path d="m1104 400h15v15h-15z"/><path d="m1120 400h15v15h-15z"/><path d="m1136 400h15v15h-15z"/><path d="m1152 400h15v15h-15z"/><path d="m1168 400h15v15h-15z"/><path d="m1184 400h15v15h-15z"/><path d="m1200 400h15v15h-15z"/><path d="m1216 400h15v15h-15z"/><path d="m1232 400h15v15h-15z"/><path d="m1248 400h15v15h-15z"/><path d="m1264 400h15v15h-15z"/><path d="m1280 400h15v15h-15z"/><path d="m1296 400h15v15h-15z"/><path d="m1312 400h15v15h-15z"/><path d="m1328 400h15v15h-15z"/><path d="m1344 400h15v15h-15z"/><path d="m1360 400h15v15h-15z"/><path d="m1376 400h15v15h-15z"/><path d="m1392 400h15v15h-15z"/><path d="m1408 400h15v15h-15z"/><path d="m1424 400h15v15h-15z"/><path d="m1440 400h15v15h-15z"/><path d="m1456 400h15v15h-15z"/><path d="m1472 400h15v15h-15z"/><path d="m1488 400h15v15h-15z"/><path d="m1504 400h15v15h-15z"/><path d="m1520 400h15v15h-15z"/><path d="m1536 400h15v15h-15z"/><path d="m1552 400h15v15h-15z"/><path d="m1568 400h15v15h-15z"/><path d="m1584 400h15v15h-15z"/><path d="m1600 400h15v15h-15z"/><path d="m1616 400h15v15h-15z"/><path d="m1632 400h15v15h-15z"/><path d="m1648 400h15v15h-15z"/><path d="m1664 400h15v15h-15z"/><path d="m1680 400h15v15h-15z"/><path d="m1696 400h15v15h-15z"/><path d="m1712 400h15v15h-15z"/><path d="m1728 400h15v15h-15z"/><path d="m1744 400h15v15h-15z"/><path d="m1760 400h15v15h-15z"/><path d="m1776 400h15v15h-15z"/><path d="m1792 400h15v15h-15z"/><path d="m1808 400h15v15h-15z"/><path d="m1824 400h15v15h-15z"/><path d="m1840 400h15v15h-15z"/><path d="m1856 400h15v15h-15z"/><path d="m1872 400h15v15h-15z"/><path d="m1888 400h15v15h-15z"/><path d="m1904 400h15v15h-15z"/><path d="m1920 400h15v15h-15z"/><path d="m1936 400h15v15h-15z"/><path d="m1952 400h15v15h-15z"/><path d="m1968 400h15v15h-15z"/><path d="m1984 400h15v15h-15z"/><path d="m2000 400h15v15h-15z"/><path d="m2016 400h15v15h-15z"/><path d="m2032 400h15v15h-15z"/><path d="m2048 400h15v15h-15z"/><path d="m2064 400h15v15h-15z"/><path d="m96 432h15v15h-15z"/><path d="m112 432h15v15h-15z"/><path d="m128 432h15v15h-15z"/><path d="m144 432h15v15h-15z"/><path d="m192 432h15v15h-15z"/><path d="m480 432h15v15h-15z"/><path d="m672 432h15v15h-15z"/><path d="m688 432h15v15h-15z"/><path d="m704 432h15v15h-15z"/><path d="m752 432h15v15h-15z"/><path d="m768 432h15v15h-15z"/><path d="m784 432h15v15h-15z"/><path d="m800 432h15v15h-15z"/><path d="m944 432h15v15h-15z"/><path d="m1008 432h15v15h-15z"/><path d="m1200 432h15v15h-15z"/><path d="m80 448h15v15h-15z"/><path d="m192 448h15v15h-15z"/><path d="m480 448h15v15h-15z"/><path d="m656 448h15v15h-15z"/><path d="m720 448h15v15h-15z"/><path d="m752 448h15v15h-15z"/><path d="m816 448h15v15h-15z"/><path d="m944 448h15v15h-15z"/><path d="m960 448h15v15h-15z"/><path d="m992 448h15v15h-15z"/><path d="m1008 448h15v15h-15z"/><path d="m1200 448h15v15h-15z"/><path d="m80 464h15v15h-15z"/><path d="m176 464h15v15h-15z"/><path d="m192 464h15v15h-15z"/><path d="m208 464h15v15h-15z"/><path d="m288 464h15v15h-15z"/><path d="m304 464h15v15h-15z"/><path d="m320 464h15v15h-15z"/><path d="m368 464h15v15h-15z"/><path d="m400 464h15v15h-15z"/><path d="m416 464h15v15h-15z"/><path d="m464 464h15v15h-15z"/><path d="m480 464h15v15h-15z"/><path d="m496 464h15v15h-15z"/><path d="m656 464h15v15h-15z"/><path d="m720 464h15v15h-15z"/><path d="m752 464h15v15h-15z"/><path d="m816 464h15v15h-15z"/><path d="m944 464h15v15h-15z"/><path d="m976 464h15v15h-15z"/><path d="m1008 464h15v15h-15z"/><path d="m1056 464h15v15h-15z"/><path d="m1072 464h15v15h-15z"/><path d="m1088 464h15v15h-15z"/><path d="m1152 464h15v15h-15z"/><path d="m1168 464h15v15h-15z"/><path d="m1200 464h15v15h-15z"/><path d="m1248 464h15v15h-15z"/><path d="m1264 464h15v15h-15z"/><path d="m1280 464h15v15h-15z"/><path d="m96 480h15v15h-15z"/><path d="m112 480h15v15h-15z"/><path d="m128 480h15v15h-15z"/><path d="m192 480h15v15h-15z"/><path d="m336 480h15v15h-15z"/><path d="m368 480h15v15h-15z"/><path d="m384 480h15v15h-15z"/><path d="m432 480h15v15h-15z"/><path d="m480 480h15v15h-15z"/><path d="m656 480h15v15h-15z"/><path d="m720 480h15v15h-15z"/><path d="m752 480h15v15h-15z"/><path d="m768 480h15v15h-15z"/><path d="m784 480h15v15h-15z"/><path d="m800 480h15v15h-15z"/><path d="m944 480h15v15h-15z"/><path d="m976 480h15v15h-15z"/><path d="m1008 480h15v15h-15z"/><path d="m1040 480h15v15h-15z"/><path d="m1104 480h15v15h-15z"/><path d="m1136 480h15v15h-15z"/><path d="m1184 480h15v15h-15z"/><path d="m1200 480h15v15h-15z"/><path d="m1232 480h15v15h-15z"/><path d="m1296 480h15v15h-15z"/><path d="m144 496h15v15h-15z"/><path d="m192 496h15v15h-15z"/><path d="m288 496h15v15h-15z"/><path d="m304 496h15v15h-15z"/><path d="m320 496h15v15h-15z"/><path d="m336 496h15v15h-15z"/><path d="m368 496h15v15h-15z"/><path d="m480 496h15v15h-15z"/><path d="m656 496h15v15h-15z"/><path d="m672 496h15v15h-15z"/><path d="m688 496h15v15h-15z"/><path d="m704 496h15v15h-15z"/><path d="m720 496h15v15h-15z"/><path d="m752 496h15v15h-15z"/><path d="m944 496h15v15h-15z"/><path d="m1008 496h15v15h-15z"/><path d="m1040 496h15v15h-15z"/><path d="m1104 496h15v15h-15z"/><path d="m1136 496h15v15h-15z"/><path d="m1200 496h15v15h-15z"/><path d="m1232 496h15v15h-15z"/><path d="m1248 496h15v15h-15z"/><path d="m1264 496h15v15h-15z"/><path d="m1280 496h15v15h-15z"/><path d="m1296 496h15v15h-15z"/><path d="m144 512h15v15h-15z"/><path d="m192 512h15v15h-15z"/><path d="m240 512h15v15h-15z"/><path d="m272 512h15v15h-15z"/><path d="m336 512h15v15h-15z"/><path d="m368 512h15v15h-15z"/><path d="m480 512h15v15h-15z"/><path d="m528 512h15v15h-15z"/><path d="m656 512h15v15h-15z"/><path d="m720 512h15v15h-15z"/><path d="m752 512h15v15h-15z"/><path d="m944 512h15v15h-15z"/><path d="m1008 512h15v15h-15z"/><path d="m1040 512h15v15h-15z"/><path d="m1104 512h15v15h-15z"/><path d="m1136 512h15v15h-15z"/><path d="m1200 512h15v15h-15z"/><path d="m1232 512h15v15h-15z"/><path d="m80 528h15v15h-15z"/><path d="m96 528h15v15h-15z"/><path d="m112 528h15v15h-15z"/><path d="m128 528h15v15h-15z"/><path d="m208 528h15v15h-15z"/><path d="m224 528h15v15h-15z"/><path d="m288 528h15v15h-15z"/><path d="m304 528h15v15h-15z"/><path d="m320 528h15v15h-15z"/><path d="m336 528h15v15h-15z"/><path d="m368 528h15v15h-15z"/><path d="m496 528h15v15h-15z"/><path d="m512 528h15v15h-15z"/><path d="m656 528h15v15h-15z"/><path d="m720 528h15v15h-15z"/><path d="m752 528h15v15h-15z"/><path d="m944 528h15v15h-15z"/><path d="m1008 528h15v15h-15z"/><path d="m1056 528h15v15h-15z"/><path d="m1072 528h15v15h-15z"/><path d="m1088 528h15v15h-15z"/><path d="m1152 528h15v15h-15z"/><path d="m1168 528h15v15h-15z"/><path d="m1184 528h15v15h-15z"/><path d="m1200 528h15v15h-15z"/><path d="m1248 528h15v15h-15z"/><path d="m1264 528h15v15h-15z"/><path d="m1280 528h15v15h-15z"/><path d="m80 608h15v15h-15z"/><path d="m96 608h15v15h-15z"/><path d="m112 608h15v15h-15z"/><path d="m128 608h15v15h-15z"/><path d="m144 608h15v15h-15z"/><path d="m576 608h15v15h-15z"/><path d="m768 608h15v15h-15z"/><path d="m784 608h15v15h-15z"/><path d="m800 608h15v15h-15z"/><path d="m816 608h15v15h-15z"/><path d="m1200 608h15v15h-15z"/><path d="m1328 608h15v15h-15z"/><path d="m1392 608h15v15h-15z"/><path d="m1536 608h15v15h-15z"/><path d="m80 624h15v15h-15z"/><path d="m384 624h15v15h-15z"/><path d="m400 624h15v15h-15z"/><path d="m416 624h15v15h-15z"/><path d="m432 624h15v15h-15z"/><path d="m576 624h15v15h-15z"/><path d="m752 624h15v15h-15z"/><path d="m1200 624h15v15h-15z"/><path d="m1328 624h15v15h-15z"/><path d="m1392 624h15v15h-15z"/><path d="m1536 624h15v15h-15z"/><path d="m80 640h15v15h-15z"/><path d="m192 640h15v15h-15z"/><path d="m208 640h15v15h-15z"/><path d="m224 640h15v15h-15z"/><path d="m272 640h15v15h-15z"/><path d="m304 640h15v15h-15z"/><path d="m320 640h15v15h-15z"/><path d="m368 640h15v15h-15z"/><path d="m432 640h15v15h-15z"/><path d="m480 640h15v15h-15z"/><path d="m496 640h15v15h-15z"/><path d="m512 640h15v15h-15z"/><path d="m560 640h15v15h-15z"/><path d="m576 640h15v15h-15z"/><path d="m592 640h15v15h-15z"/><path d="m752 640h15v15h-15z"/><path d="m864 640h15v15h-15z"/><path d="m880 640h15v15h-15z"/><path d="m896 640h15v15h-15z"/><path d="m944 640h15v15h-15z"/><path d="m1008 640h15v15h-15z"/><path d="m1056 640h15v15h-15z"/><path d="m1072 640h15v15h-15z"/><path d="m1088 640h15v15h-15z"/><path d="m1152 640h15v15h-15z"/><path d="m1168 640h15v15h-15z"/><path d="m1200 640h15v15h-15z"/><path d="m1328 640h15v15h-15z"/><path d="m1344 640h15v15h-15z"/><path d="m1392 640h15v15h-15z"/><path d="m1440 640h15v15h-15z"/><path d="m1456 640h15v15h-15z"/><path d="m1472 640h15v15h-15z"/><path d="m1520 640h15v15h-15z"/><path d="m1536 640h15v15h-15z"/><path d="m1552 640h15v15h-15z"/><path d="m1632 640h15v15h-15z"/><path d="m1648 640h15v15h-15z"/><path d="m1664 640h15v15h-15z"/><path d="m80 656h15v15h-15z"/><path d="m96 656h15v15h-15z"/><path d="m112 656h15v15h-15z"/><path d="m128 656h15v15h-15z"/><path d="m176 656h15v15h-15z"/><path d="m240 656h15v15h-15z"/><path d="m272 656h15v15h-15z"/><path d="m288 656h15v15h-15z"/><path d="m336 656h15v15h-15z"/><path d="m368 656h15v15h-15z"/><path d="m432 656h15v15h-15z"/><path d="m464 656h15v15h-15z"/><path d="m528 656h15v15h-15z"/><path d="m576 656h15v15h-15z"/><path d="m768 656h15v15h-15z"/><path d="m784 656h15v15h-15z"/><path d="m800 656h15v15h-15z"/><path d="m912 656h15v15h-15z"/><path d="m944 656h15v15h-15z"/><path d="m1008 656h15v15h-15z"/><path d="m1040 656h15v15h-15z"/><path d="m1104 656h15v15h-15z"/><path d="m1136 656h15v15h-15z"/><path d="m1184 656h15v15h-15z"/><path d="m1200 656h15v15h-15z"/><path d="m1328 656h15v15h-15z"/><path d="m1360 656h15v15h-15z"/><path d="m1392 656h15v15h-15z"/><path d="m1424 656h15v15h-15z"/><path d="m1488 656h15v15h-15z"/><path d="m1536 656h15v15h-15z"/><path d="m1616 656h15v15h-15z"/><path d="m80 672h15v15h-15z"/><path d="m176 672h15v15h-15z"/><path d="m240 672h15v15h-15z"/><path d="m272 672h15v15h-15z"/><path d="m384 672h15v15h-15z"/><path d="m400 672h15v15h-15z"/><path d="m416 672h15v15h-15z"/><path d="m432 672h15v15h-15z"/><path d="m464 672h15v15h-15z"/><path d="m480 672h15v15h-15z"/><path d="m496 672h15v15h-15z"/><path d="m512 672h15v15h-15z"/><path d="m528 672h15v15h-15z"/><path d="m576 672h15v15h-15z"/><path d="m816 672h15v15h-15z"/><path d="m864 672h15v15h-15z"/><path d="m880 672h15v15h-15z"/><path d="m896 672h15v15h-15z"/><path d="m912 672h15v15h-15z"/><path d="m944 672h15v15h-15z"/><path d="m1008 672h15v15h-15z"/><path d="m1040 672h15v15h-15z"/><path d="m1056 672h15v15h-15z"/><path d="m1072 672h15v15h-15z"/><path d="m1088 672h15v15h-15z"/><path d="m1104 672h15v15h-15z"/><path d="m1136 672h15v15h-15z"/><path d="m1200 672h15v15h-15z"/><path d="m1328 672h15v15h-15z"/><path d="m1376 672h15v15h-15z"/><path d="m1392 672h15v15h-15z"/><path d="m1424 672h15v15h-15z"/><path d="m1440 672h15v15h-15z"/><path d="m1456 672h15v15h-15z"/><path d="m1472 672h15v15h-15z"/><path d="m1488 672h15v15h-15z"/><path d="m1536 672h15v15h-15z"/><path d="m1632 672h15v15h-15z"/><path d="m1648 672h15v15h-15z"/><path d="m1664 672h15v15h-15z"/><path d="m80 688h15v15h-15z"/><path d="m176 688h15v15h-15z"/><path d="m240 688h15v15h-15z"/><path d="m272 688h15v15h-15z"/><path d="m432 688h15v15h-15z"/><path d="m464 688h15v15h-15z"/><path d="m576 688h15v15h-15z"/><path d="m624 688h15v15h-15z"/><path d="m816 688h15v15h-15z"/><path d="m848 688h15v15h-15z"/><path d="m912 688h15v15h-15z"/><path d="m960 688h15v15h-15z"/><path d="m992 688h15v15h-15z"/><path d="m1040 688h15v15h-15z"/><path d="m1136 688h15v15h-15z"/><path d="m1200 688h15v15h-15z"/><path d="m1328 688h15v15h-15z"/><path d="m1392 688h15v15h-15z"/><path d="m1424 688h15v15h-15z"/><path d="m1536 688h15v15h-15z"/><path d="m1584 688h15v15h-15z"/><path d="m1680 688h15v15h-15z"/><path d="m80 704h15v15h-15z"/><path d="m192 704h15v15h-15z"/><path d="m208 704h15v15h-15z"/><path d="m224 704h15v15h-15z"/><path d="m272 704h15v15h-15z"/><path d="m384 704h15v15h-15z"/><path d="m400 704h15v15h-15z"/><path d="m416 704h15v15h-15z"/><path d="m480 704h15v15h-15z"/><path d="m496 704h15v15h-15z"/><path d="m512 704h15v15h-15z"/><path d="m592 704h15v15h-15z"/><path d="m608 704h15v15h-15z"/><path d="m752 704h15v15h-15z"/><path d="m768 704h15v15h-15z"/><path d="m784 704h15v15h-15z"/><path d="m800 704h15v15h-15z"/><path d="m864 704h15v15h-15z"/><path d="m880 704h15v15h-15z"/><path d="m896 704h15v15h-15z"/><path d="m912 704h15v15h-15z"/><path d="m976 704h15v15h-15z"/><path d="m1056 704h15v15h-15z"/><path d="m1072 704h15v15h-15z"/><path d="m1088 704h15v15h-15z"/><path d="m1152 704h15v15h-15z"/><path d="m1168 704h15v15h-15z"/><path d="m1184 704h15v15h-15z"/><path d="m1200 704h15v15h-15z"/><path d="m1328 704h15v15h-15z"/><path d="m1392 704h15v15h-15z"/><path d="m1440 704h15v15h-15z"/><path d="m1456 704h15v15h-15z"/><path d="m1472 704h15v15h-15z"/><path d="m1552 704h15v15h-15z"/><path d="m1568 704h15v15h-15z"/><path d="m1616 704h15v15h-15z"/><path d="m1632 704h15v15h-15z"/><path d="m1648 704h15v15h-15z"/><path d="m1664 704h15v15h-15z"/><path d="m128 784h15v15h-15z"/><path d="m272 784h15v15h-15z"/><path d="m336 784h15v15h-15z"/><path d="m112 800h15v15h-15z"/><path d="m272 800h15v15h-15z"/><path d="m336 800h15v15h-15z"/><path d="m96 816h15v15h-15z"/><path d="m272 816h15v15h-15z"/><path d="m336 816h15v15h-15z"/><path d="m384 816h15v15h-15z"/><path d="m400 816h15v15h-15z"/><path d="m416 816h15v15h-15z"/><path d="m464 816h15v15h-15z"/><path d="m480 816h15v15h-15z"/><path d="m512 816h15v15h-15z"/><path d="m576 816h15v15h-15z"/><path d="m592 816h15v15h-15z"/><path d="m608 816h15v15h-15z"/><path d="m80 832h15v15h-15z"/><path d="m272 832h15v15h-15z"/><path d="m288 832h15v15h-15z"/><path d="m304 832h15v15h-15z"/><path d="m320 832h15v15h-15z"/><path d="m336 832h15v15h-15z"/><path d="m368 832h15v15h-15z"/><path d="m432 832h15v15h-15z"/><path d="m464 832h15v15h-15z"/><path d="m496 832h15v15h-15z"/><path d="m528 832h15v15h-15z"/><path d="m560 832h15v15h-15z"/><path d="m624 832h15v15h-15z"/><path d="m96 848h15v15h-15z"/><path d="m272 848h15v15h-15z"/><path d="m336 848h15v15h-15z"/><path d="m368 848h15v15h-15z"/><path d="m432 848h15v15h-15z"/><path d="m464 848h15v15h-15z"/><path d="m496 848h15v15h-15z"/><path d="m528 848h15v15h-15z"/><path d="m560 848h15v15h-15z"/><path d="m576 848h15v15h-15z"/><path d="m592 848h15v15h-15z"/><path d="m608 848h15v15h-15z"/><path d="m624 848h15v15h-15z"/><path d="m112 864h15v15h-15z"/><path d="m272 864h15v15h-15z"/><path d="m336 864h15v15h-15z"/><path d="m368 864h15v15h-15z"/><path d="m432 864h15v15h-15z"/><path d="m464 864h15v15h-15z"/><path d="m528 864h15v15h-15z"/><path d="m560 864h15v15h-15z"/><path d="m128 880h15v15h-15z"/><path d="m272 880h15v15h-15z"/><path d="m336 880h15v15h-15z"/><path d="m384 880h15v15h-15z"/><path d="m400 880h15v15h-15z"/><path d="m416 880h15v15h-15z"/><path d="m464 880h15v15h-15z"/><path d="m528 880h15v15h-15z"/><path d="m576 880h15v15h-15z"/><path d="m592 880h15v15h-15z"/><path d="m608 880h15v15h-15z"/></g></svg>