<svg viewBox="0 0 2144 1120" xmlns="http://www.w3.org/2000/svg"><path d="m0 0h2144v1120h-2144z"/><g fill="#fff"><path d="m96 80h15v15h-15z"/><path d="m112 80h15v15h-15z"/><path d="m128 80h15v15h-15z"/><path d="m144 80h15v15h-15z"/><path d="m288 80h15v15h-15z"/><path d="m304 80h15v15h-15z"/><path d="m576 80h15v15h-15z"/><path d="m752 80h15v15h-15z"/><path d="m816 80h15v15h-15z"/><path d="m960 80h15v15h-15z"/><path d="m1328 80h15v15h-15z"/><path d="m80 96h15v15h-15z"/><path d="m304 96h15v15h-15z"/><path d="m576 96h15v15h-15z"/><path d="m752 96h15v15h-15z"/><path d="m816 96h15v15h-15z"/><path d="m960 96h15v15h-15z"/><path d="m1328 96h15v15h-15z"/><path d="m80 112h15v15h-15z"/><path d="m192 112h15v15h-15z"/><path d="m208 112h15v15h-15z"/><path d="m224 112h15v15h-15z"/><path d="m304 112h15v15h-15z"/><path d="m384 112h15v15h-15z"/><path d="m400 112h15v15h-15z"/><path d="m416 112h15v15h-15z"/><path d="m480 112h15v15h-15z"/><path d="m496 112h15v15h-15z"/><path d="m512 112h15v15h-15z"/><path d="m560 112h15v15h-15z"/><path d="m576 112h15v15h-15z"/><path d="m592 112h15v15h-15z"/><path d="m752 112h15v15h-15z"/><path d="m768 112h15v15h-15z"/><path d="m816 112h15v15h-15z"/><path d="m864 112h15v15h-15z"/><path d="m880 112h15v15h-15z"/><path d="m896 112h15v15h-15z"/><path d="m944 112h15v15h-15z"/><path d="m960 112h15v15h-15z"/><path d="m976 112h15v15h-15z"/><path d="m1040 112h15v15h-15z"/><path d="m1104 112h15v15h-15z"/><path d="m1152 112h15v15h-15z"/><path d="m1168 112h15v15h-15z"/><path d="m1184 112h15v15h-15z"/><path d="m1232 112h15v15h-15z"/><path d="m1264 112h15v15h-15z"/><path d="m1280 112h15v15h-15z"/><path d="m1328 112h15v15h-15z"/><path d="m1376 112h15v15h-15z"/><path d="m96 128h15v15h-15z"/><path d="m112 128h15v15h-15z"/><path d="m128 128h15v15h-15z"/><path d="m176 128h15v15h-15z"/><path d="m240 128h15v15h-15z"/><path d="m304 128h15v15h-15z"/><path d="m368 128h15v15h-15z"/><path d="m432 128h15v15h-15z"/><path d="m464 128h15v15h-15z"/><path d="m576 128h15v15h-15z"/><path d="m752 128h15v15h-15z"/><path d="m784 128h15v15h-15z"/><path d="m816 128h15v15h-15z"/><path d="m848 128h15v15h-15z"/><path d="m912 128h15v15h-15z"/><path d="m960 128h15v15h-15z"/><path d="m1040 128h15v15h-15z"/><path d="m1104 128h15v15h-15z"/><path d="m1136 128h15v15h-15z"/><path d="m1200 128h15v15h-15z"/><path d="m1232 128h15v15h-15z"/><path d="m1248 128h15v15h-15z"/><path d="m1296 128h15v15h-15z"/><path d="m1328 128h15v15h-15z"/><path d="m1360 128h15v15h-15z"/><path d="m144 144h15v15h-15z"/><path d="m176 144h15v15h-15z"/><path d="m192 144h15v15h-15z"/><path d="m208 144h15v15h-15z"/><path d="m224 144h15v15h-15z"/><path d="m240 144h15v15h-15z"/><path d="m304 144h15v15h-15z"/><path d="m368 144h15v15h-15z"/><path d="m384 144h15v15h-15z"/><path d="m400 144h15v15h-15z"/><path d="m416 144h15v15h-15z"/><path d="m432 144h15v15h-15z"/><path d="m464 144h15v15h-15z"/><path d="m576 144h15v15h-15z"/><path d="m752 144h15v15h-15z"/><path d="m800 144h15v15h-15z"/><path d="m816 144h15v15h-15z"/><path d="m848 144h15v15h-15z"/><path d="m864 144h15v15h-15z"/><path d="m880 144h15v15h-15z"/><path d="m896 144h15v15h-15z"/><path d="m912 144h15v15h-15z"/><path d="m960 144h15v15h-15z"/><path d="m1040 144h15v15h-15z"/><path d="m1072 144h15v15h-15z"/><path d="m1104 144h15v15h-15z"/><path d="m1136 144h15v15h-15z"/><path d="m1200 144h15v15h-15z"/><path d="m1232 144h15v15h-15z"/><path d="m1328 144h15v15h-15z"/><path d="m1344 144h15v15h-15z"/><path d="m144 160h15v15h-15z"/><path d="m176 160h15v15h-15z"/><path d="m304 160h15v15h-15z"/><path d="m368 160h15v15h-15z"/><path d="m464 160h15v15h-15z"/><path d="m528 160h15v15h-15z"/><path d="m576 160h15v15h-15z"/><path d="m624 160h15v15h-15z"/><path d="m752 160h15v15h-15z"/><path d="m816 160h15v15h-15z"/><path d="m848 160h15v15h-15z"/><path d="m960 160h15v15h-15z"/><path d="m1008 160h15v15h-15z"/><path d="m1040 160h15v15h-15z"/><path d="m1072 160h15v15h-15z"/><path d="m1104 160h15v15h-15z"/><path d="m1136 160h15v15h-15z"/><path d="m1200 160h15v15h-15z"/><path d="m1232 160h15v15h-15z"/><path d="m1328 160h15v15h-15z"/><path d="m1360 160h15v15h-15z"/><path d="m80 176h15v15h-15z"/><path d="m96 176h15v15h-15z"/><path d="m112 176h15v15h-15z"/><path d="m128 176h15v15h-15z"/><path d="m192 176h15v15h-15z"/><path d="m208 176h15v15h-15z"/><path d="m224 176h15v15h-15z"/><path d="m288 176h15v15h-15z"/><path d="m304 176h15v15h-15z"/><path d="m320 176h15v15h-15z"/><path d="m384 176h15v15h-15z"/><path d="m400 176h15v15h-15z"/><path d="m416 176h15v15h-15z"/><path d="m480 176h15v15h-15z"/><path d="m496 176h15v15h-15z"/><path d="m512 176h15v15h-15z"/><path d="m592 176h15v15h-15z"/><path d="m608 176h15v15h-15z"/><path d="m752 176h15v15h-15z"/><path d="m816 176h15v15h-15z"/><path d="m864 176h15v15h-15z"/><path d="m880 176h15v15h-15z"/><path d="m896 176h15v15h-15z"/><path d="m976 176h15v15h-15z"/><path d="m992 176h15v15h-15z"/><path d="m1056 176h15v15h-15z"/><path d="m1088 176h15v15h-15z"/><path d="m1152 176h15v15h-15z"/><path d="m1168 176h15v15h-15z"/><path d="m1184 176h15v15h-15z"/><path d="m1232 176h15v15h-15z"/><path d="m1328 176h15v15h-15z"/><path d="m1376 176h15v15h-15z"/><path d="m98 256h15v15h-15z"/><path d="m114 256h15v15h-15z"/><path d="m130 256h15v15h-15z"/><path d="m82 272h15v15h-15z"/><path d="m146 272h15v15h-15z"/><path d="m82 288h15v15h-15z"/><path d="m194 288h15v15h-15z"/><path d="m210 288h15v15h-15z"/><path d="m226 288h15v15h-15z"/><path d="m290 288h15v15h-15z"/><path d="m306 288h15v15h-15z"/><path d="m322 288h15v15h-15z"/><path d="m482 288h15v15h-15z"/><path d="m498 288h15v15h-15z"/><path d="m514 288h15v15h-15z"/><path d="m565 288h15v15h-15z"/><path d="m597 288h15v15h-15z"/><path d="m613 288h15v15h-15z"/><path d="m661 288h15v15h-15z"/><path d="m725 288h15v15h-15z"/><path d="m82 304h15v15h-15z"/><path d="m114 304h15v15h-15z"/><path d="m130 304h15v15h-15z"/><path d="m146 304h15v15h-15z"/><path d="m178 304h15v15h-15z"/><path d="m242 304h15v15h-15z"/><path d="m274 304h15v15h-15z"/><path d="m338 304h15v15h-15z"/><path d="m466 304h15v15h-15z"/><path d="m530 304h15v15h-15z"/><path d="m565 304h15v15h-15z"/><path d="m581 304h15v15h-15z"/><path d="m629 304h15v15h-15z"/><path d="m661 304h15v15h-15z"/><path d="m725 304h15v15h-15z"/><path d="m82 320h15v15h-15z"/><path d="m146 320h15v15h-15z"/><path d="m178 320h15v15h-15z"/><path d="m242 320h15v15h-15z"/><path d="m274 320h15v15h-15z"/><path d="m338 320h15v15h-15z"/><path d="m466 320h15v15h-15z"/><path d="m482 320h15v15h-15z"/><path d="m498 320h15v15h-15z"/><path d="m514 320h15v15h-15z"/><path d="m530 320h15v15h-15z"/><path d="m565 320h15v15h-15z"/><path d="m677 320h15v15h-15z"/><path d="m693 320h15v15h-15z"/><path d="m709 320h15v15h-15z"/><path d="m725 320h15v15h-15z"/><path d="m82 336h15v15h-15z"/><path d="m146 336h15v15h-15z"/><path d="m178 336h15v15h-15z"/><path d="m242 336h15v15h-15z"/><path d="m274 336h15v15h-15z"/><path d="m338 336h15v15h-15z"/><path d="m466 336h15v15h-15z"/><path d="m565 336h15v15h-15z"/><path d="m725 336h15v15h-15z"/><path d="m98 352h15v15h-15z"/><path d="m114 352h15v15h-15z"/><path d="m130 352h15v15h-15z"/><path d="m146 352h15v15h-15z"/><path d="m194 352h15v15h-15z"/><path d="m210 352h15v15h-15z"/><path d="m226 352h15v15h-15z"/><path d="m290 352h15v15h-15z"/><path d="m306 352h15v15h-15z"/><path d="m322 352h15v15h-15z"/><path d="m386 288h15v15h-15z"/><path d="m402 288h15v15h-15z"/><path d="m418 288h15v15h-15z"/><path d="m370 304h15v15h-15z"/><path d="m386 320h15v15h-15z"/><path d="m402 320h15v15h-15z"/><path d="m418 320h15v15h-15z"/><path d="m434 336h15v15h-15z"/><path d="m370 352h15v15h-15z"/><path d="m386 352h15v15h-15z"/><path d="m402 352h15v15h-15z"/><path d="m418 352h15v15h-15z"/><path d="m482 352h15v15h-15z"/><path d="m498 352h15v15h-15z"/><path d="m514 352h15v15h-15z"/><path d="m565 352h15v15h-15z"/><path d="m677 352h15v15h-15z"/><path d="m693 352h15v15h-15z"/><path d="m709 352h15v15h-15z"/><path d="m48 416h15v15h-15z"/><path d="m64 416h15v15h-15z"/><path d="m80 416h15v15h-15z"/><path d="m96 416h15v15h-15z"/><path d="m112 416h15v15h-15z"/><path d="m128 416h15v15h-15z"/><path d="m144 416h15v15h-15z"/><path d="m160 416h15v15h-15z"/><path d="m176 416h15v15h-15z"/><path d="m192 416h15v15h-15z"/><path d="m208 416h15v15h-15z"/><path d="m224 416h15v15h-15z"/><path d="m240 416h15v15h-15z"/><path d="m256 416h15v15h-15z"/><path d="m272 416h15v15h-15z"/><path d="m288 416h15v15h-15z"/><path d="m304 416h15v15h-15z"/><path d="m320 416h15v15h-15z"/><path d="m336 416h15v15h-15z"/><path d="m352 416h15v15h-15z"/><path d="m368 416h15v15h-15z"/><path d="m384 416h15v15h-15z"/><path d="m400 416h15v15h-15z"/><path d="m416 416h15v15h-15z"/><path d="m432 416h15v15h-15z"/><path d="m448 416h15v15h-15z"/><path d="m464 416h15v15h-15z"/><path d="m480 416h15v15h-15z"/><path d="m496 416h15v15h-15z"/><path d="m512 416h15v15h-15z"/><path d="m528 416h15v15h-15z"/><path d="m544 416h15v15h-15z"/><path d="m560 416h15v15h-15z"/><path d="m576 416h15v15h-15z"/><path d="m592 416h15v15h-15z"/><path d="m608 416h15v15h-15z"/><path d="m624 416h15v15h-15z"/><path d="m640 416h15v15h-15z"/><path d="m656 416h15v15h-15z"/><path d="m672 416h15v15h-15z"/><path d="m688 416h15v15h-15z"/><path d="m704 416h15v15h-15z"/><path d="m720 416h15v15h-15z"/><path d="m736 416h15v15h-15z"/><path d="m752 416h15v15h-15z"/><path d="m768 416h15v15h-15z"/><path d="m784 416h15v15h-15z"/><path d="m800 416h15v15h-15z"/><path d="m816 416h15v15h-15z"/><path d="m832 416h15v15h-15z"/><path d="m848 416h15v15h-15z"/><path d="m864 416h15v15h-15z"/><path d="m880 416h15v15h-15z"/><path d="m896 416h15v15h-15z"/><path d="m912 416h15v15h-15z"/><path d="m928 416h15v15h-15z"/><path d="m944 416h15v15h-15z"/><path d="m960 416h15v15h-15z"/><path d="m976 416h15v15h-15z"/><path d="m992 416h15v15h-15z"/><path d="m1008 416h15v15h-15z"/><path d="m1024 416h15v15h-15z"/><path d="m1040 416h15v15h-15z"/><path d="m1056 416h15v15h-15z"/><path d="m1072 416h15v15h-15z"/><path d="m1088 416h15v15h-15z"/><path d="m1104 416h15v15h-15z"/><path d="m1120 416h15v15h-15z"/><path d="m1136 416h15v15h-15z"/><path d="m1152 416h15v15h-15z"/><path d="m1168 416h15v15h-15z"/><path d="m1184 416h15v15h-15z"/><path d="m1200 416h15v15h-15z"/><path d="m1216 416h15v15h-15z"/><path d="m1232 416h15v15h-15z"/><path d="m1248 416h15v15h-15z"/><path d="m1264 416h15v15h-15z"/><path d="m1280 416h15v15h-15z"/><path d="m1296 416h15v15h-15z"/><path d="m1312 416h15v15h-15z"/><path d="m1328 416h15v15h-15z"/><path d="m1344 416h15v15h-15z"/><path d="m1360 416h15v15h-15z"/><path d="m1376 416h15v15h-15z"/><path d="m1392 416h15v15h-15z"/><path d="m1408 416h15v15h-15z"/><path d="m1424 416h15v15h-15z"/><path d="m1440 416h15v15h-15z"/><path d="m1456 416h15v15h-15z"/><path d="m1472 416h15v15h-15z"/><path d="m1488 416h15v15h-15z"/><path d="m1504 416h15v15h-15z"/><path d="m1520 416h15v15h-15z"/><path d="m1536 416h15v15h-15z"/><path d="m1552 416h15v15h-15z"/><path d="m1568 416h15v15h-15z"/><path d="m1584 416h15v15h-15z"/><path d="m1600 416h15v15h-15z"/><path d="m1616 416h15v15h-15z"/><path d="m1632 416h15v15h-15z"/><path d="m1648 416h15v15h-15z"/><path d="m1664 416h15v15h-15z"/><path d="m1680 416h15v15h-15z"/><path d="m1696 416h15v15h-15z"/><path d="m1712 416h15v15h-15z"/><path d="m1728 416h15v15h-15z"/><path d="m1744 416h15v15h-15z"/><path d="m1760 416h15v15h-15z"/><path d="m1776 416h15v15h-15z"/><path d="m1792 416h15v15h-15z"/><path d="m1808 416h15v15h-15z"/><path d="m1824 416h15v15h-15z"/><path d="m1840 416h15v15h-15z"/><path d="m1856 416h15v15h-15z"/><path d="m1872 416h15v15h-15z"/><path d="m1888 416h15v15h-15z"/><path d="m1904 416h15v15h-15z"/><path d="m1920 416h15v15h-15z"/><path d="m1936 416h15v15h-15z"/><path d="m1952 416h15v15h-15z"/><path d="m1968 416h15v15h-15z"/><path d="m1984 416h15v15h-15z"/><path d="m2000 416h15v15h-15z"/><path d="m2016 416h15v15h-15z"/><path d="m2032 416h15v15h-15z"/><path d="m2048 416h15v15h-15z"/><path d="m2064 416h15v15h-15z"/><path d="m48 432h15v15h-15z"/><path d="m64 432h15v15h-15z"/><path d="m160 432h15v15h-15z"/><path d="m192 432h15v15h-15z"/><path d="m208 432h15v15h-15z"/><path d="m224 432h15v15h-15z"/><path d="m240 432h15v15h-15z"/><path d="m256 432h15v15h-15z"/><path d="m272 432h15v15h-15z"/><path d="m288 432h15v15h-15z"/><path d="m304 432h15v15h-15z"/><path d="m320 432h15v15h-15z"/><path d="m336 432h15v15h-15z"/><path d="m352 432h15v15h-15z"/><path d="m368 432h15v15h-15z"/><path d="m384 432h15v15h-15z"/><path d="m400 432h15v15h-15z"/><path d="m416 432h15v15h-15z"/><path d="m432 432h15v15h-15z"/><path d="m448 432h15v15h-15z"/><path d="m528 432h15v15h-15z"/><path d="m544 432h15v15h-15z"/><path d="m560 432h15v15h-15z"/><path d="m576 432h15v15h-15z"/><path d="m592 432h15v15h-15z"/><path d="m608 432h15v15h-15z"/><path d="m624 432h15v15h-15z"/><path d="m640 432h15v15h-15z"/><path d="m656 432h15v15h-15z"/><path d="m672 432h15v15h-15z"/><path d="m688 432h15v15h-15z"/><path d="m704 432h15v15h-15z"/><path d="m720 432h15v15h-15z"/><path d="m736 432h15v15h-15z"/><path d="m752 432h15v15h-15z"/><path d="m768 432h15v15h-15z"/><path d="m784 432h15v15h-15z"/><path d="m800 432h15v15h-15z"/><path d="m816 432h15v15h-15z"/><path d="m832 432h15v15h-15z"/><path d="m848 432h15v15h-15z"/><path d="m864 432h15v15h-15z"/><path d="m880 432h15v15h-15z"/><path d="m896 432h15v15h-15z"/><path d="m912 432h15v15h-15z"/><path d="m928 432h15v15h-15z"/><path d="m944 432h15v15h-15z"/><path d="m960 432h15v15h-15z"/><path d="m976 432h15v15h-15z"/><path d="m992 432h15v15h-15z"/><path d="m1008 432h15v15h-15z"/><path d="m1024 432h15v15h-15z"/><path d="m1040 432h15v15h-15z"/><path d="m1056 432h15v15h-15z"/><path d="m1072 432h15v15h-15z"/><path d="m1088 432h15v15h-15z"/><path d="m1104 432h15v15h-15z"/><path d="m1120 432h15v15h-15z"/><path d="m1136 432h15v15h-15z"/><path d="m1168 432h15v15h-15z"/><path d="m1184 432h15v15h-15z"/><path d="m1200 432h15v15h-15z"/><path d="m1216 432h15v15h-15z"/><path d="m1232 432h15v15h-15z"/><path d="m1248 432h15v15h-15z"/><path d="m1264 432h15v15h-15z"/><path d="m1280 432h15v15h-15z"/><path d="m1296 432h15v15h-15z"/><path d="m1312 432h15v15h-15z"/><path d="m1328 432h15v15h-15z"/><path d="m1344 432h15v15h-15z"/><path d="m1360 432h15v15h-15z"/><path d="m1376 432h15v15h-15z"/><path d="m1392 432h15v15h-15z"/><path d="m1408 432h15v15h-15z"/><path d="m1424 432h15v15h-15z"/><path d="m1440 432h15v15h-15z"/><path d="m1456 432h15v15h-15z"/><path d="m1472 432h15v15h-15z"/><path d="m1488 432h15v15h-15z"/><path d="m1504 432h15v15h-15z"/><path d="m1520 432h15v15h-15z"/><path d="m1536 432h15v15h-15z"/><path d="m1552 432h15v15h-15z"/><path d="m1568 432h15v15h-15z"/><path d="m1584 432h15v15h-15z"/><path d="m1600 432h15v15h-15z"/><path d="m1616 432h15v15h-15z"/><path d="m1632 432h15v15h-15z"/><path d="m1648 432h15v15h-15z"/><path d="m1664 432h15v15h-15z"/><path d="m1680 432h15v15h-15z"/><path d="m1696 432h15v15h-15z"/><path d="m1712 432h15v15h-15z"/><path d="m1728 432h15v15h-15z"/><path d="m1744 432h15v15h-15z"/><path d="m1760 432h15v15h-15z"/><path d="m1776 432h15v15h-15z"/><path d="m1792 432h15v15h-15z"/><path d="m1808 432h15v15h-15z"/><path d="m1824 432h15v15h-15z"/><path d="m1840 432h15v15h-15z"/><path d="m1856 432h15v15h-15z"/><path d="m1872 432h15v15h-15z"/><path d="m1888 432h15v15h-15z"/><path d="m1904 432h15v15h-15z"/><path d="m1920 432h15v15h-15z"/><path d="m1936 432h15v15h-15z"/><path d="m1952 432h15v15h-15z"/><path d="m1968 432h15v15h-15z"/><path d="m1984 432h15v15h-15z"/><path d="m2000 432h15v15h-15z"/><path d="m2016 432h15v15h-15z"/><path d="m2032 432h15v15h-15z"/><path d="m2048 432h15v15h-15z"/><path d="m2064 432h15v15h-15z"/><path d="m48 448h15v15h-15z"/><path d="m64 448h15v15h-15z"/><path d="m80 448h15v15h-15z"/><path d="m96 448h15v15h-15z"/><path d="m128 448h15v15h-15z"/><path d="m144 448h15v15h-15z"/><path d="m160 448h15v15h-15z"/><path d="m192 448h15v15h-15z"/><path d="m208 448h15v15h-15z"/><path d="m224 448h15v15h-15z"/><path d="m240 448h15v15h-15z"/><path d="m256 448h15v15h-15z"/><path d="m272 448h15v15h-15z"/><path d="m288 448h15v15h-15z"/><path d="m304 448h15v15h-15z"/><path d="m320 448h15v15h-15z"/><path d="m336 448h15v15h-15z"/><path d="m352 448h15v15h-15z"/><path d="m368 448h15v15h-15z"/><path d="m384 448h15v15h-15z"/><path d="m400 448h15v15h-15z"/><path d="m416 448h15v15h-15z"/><path d="m432 448h15v15h-15z"/><path d="m448 448h15v15h-15z"/><path d="m480 448h15v15h-15z"/><path d="m496 448h15v15h-15z"/><path d="m512 448h15v15h-15z"/><path d="m544 448h15v15h-15z"/><path d="m560 448h15v15h-15z"/><path d="m576 448h15v15h-15z"/><path d="m592 448h15v15h-15z"/><path d="m608 448h15v15h-15z"/><path d="m624 448h15v15h-15z"/><path d="m640 448h15v15h-15z"/><path d="m656 448h15v15h-15z"/><path d="m672 448h15v15h-15z"/><path d="m688 448h15v15h-15z"/><path d="m704 448h15v15h-15z"/><path d="m720 448h15v15h-15z"/><path d="m736 448h15v15h-15z"/><path d="m752 448h15v15h-15z"/><path d="m768 448h15v15h-15z"/><path d="m784 448h15v15h-15z"/><path d="m800 448h15v15h-15z"/><path d="m816 448h15v15h-15z"/><path d="m832 448h15v15h-15z"/><path d="m848 448h15v15h-15z"/><path d="m864 448h15v15h-15z"/><path d="m880 448h15v15h-15z"/><path d="m896 448h15v15h-15z"/><path d="m912 448h15v15h-15z"/><path d="m928 448h15v15h-15z"/><path d="m944 448h15v15h-15z"/><path d="m960 448h15v15h-15z"/><path d="m976 448h15v15h-15z"/><path d="m992 448h15v15h-15z"/><path d="m1008 448h15v15h-15z"/><path d="m1024 448h15v15h-15z"/><path d="m1040 448h15v15h-15z"/><path d="m1056 448h15v15h-15z"/><path d="m1072 448h15v15h-15z"/><path d="m1088 448h15v15h-15z"/><path d="m1104 448h15v15h-15z"/><path d="m1120 448h15v15h-15z"/><path d="m1136 448h15v15h-15z"/><path d="m1168 448h15v15h-15z"/><path d="m1184 448h15v15h-15z"/><path d="m1200 448h15v15h-15z"/><path d="m1216 448h15v15h-15z"/><path d="m1232 448h15v15h-15z"/><path d="m1248 448h15v15h-15z"/><path d="m1264 448h15v15h-15z"/><path d="m1280 448h15v15h-15z"/><path d="m1296 448h15v15h-15z"/><path d="m1312 448h15v15h-15z"/><path d="m1328 448h15v15h-15z"/><path d="m1344 448h15v15h-15z"/><path d="m1360 448h15v15h-15z"/><path d="m1376 448h15v15h-15z"/><path d="m1392 448h15v15h-15z"/><path d="m1408 448h15v15h-15z"/><path d="m1424 448h15v15h-15z"/><path d="m1440 448h15v15h-15z"/><path d="m1456 448h15v15h-15z"/><path d="m1472 448h15v15h-15z"/><path d="m1488 448h15v15h-15z"/><path d="m1504 448h15v15h-15z"/><path d="m1520 448h15v15h-15z"/><path d="m1536 448h15v15h-15z"/><path d="m1552 448h15v15h-15z"/><path d="m1568 448h15v15h-15z"/><path d="m1584 448h15v15h-15z"/><path d="m1600 448h15v15h-15z"/><path d="m1616 448h15v15h-15z"/><path d="m1632 448h15v15h-15z"/><path d="m1648 448h15v15h-15z"/><path d="m1664 448h15v15h-15z"/><path d="m1680 448h15v15h-15z"/><path d="m1696 448h15v15h-15z"/><path d="m1712 448h15v15h-15z"/><path d="m1728 448h15v15h-15z"/><path d="m1744 448h15v15h-15z"/><path d="m1760 448h15v15h-15z"/><path d="m1776 448h15v15h-15z"/><path d="m1792 448h15v15h-15z"/><path d="m1808 448h15v15h-15z"/><path d="m1824 448h15v15h-15z"/><path d="m1840 448h15v15h-15z"/><path d="m1856 448h15v15h-15z"/><path d="m1872 448h15v15h-15z"/><path d="m1888 448h15v15h-15z"/><path d="m1904 448h15v15h-15z"/><path d="m1920 448h15v15h-15z"/><path d="m1936 448h15v15h-15z"/><path d="m1952 448h15v15h-15z"/><path d="m1968 448h15v15h-15z"/><path d="m1984 448h15v15h-15z"/><path d="m2000 448h15v15h-15z"/><path d="m2016 448h15v15h-15z"/><path d="m2032 448h15v15h-15z"/><path d="m2048 448h15v15h-15z"/><path d="m2064 448h15v15h-15z"/><path d="m48 464h15v15h-15z"/><path d="m64 464h15v15h-15z"/><path d="m80 464h15v15h-15z"/><path d="m96 464h15v15h-15z"/><path d="m128 464h15v15h-15z"/><path d="m144 464h15v15h-15z"/><path d="m160 464h15v15h-15z"/><path d="m192 464h15v15h-15z"/><path d="m240 464h15v15h-15z"/><path d="m256 464h15v15h-15z"/><path d="m272 464h15v15h-15z"/><path d="m336 464h15v15h-15z"/><path d="m352 464h15v15h-15z"/><path d="m368 464h15v15h-15z"/><path d="m384 464h15v15h-15z"/><path d="m400 464h15v15h-15z"/><path d="m416 464h15v15h-15z"/><path d="m432 464h15v15h-15z"/><path d="m448 464h15v15h-15z"/><path d="m480 464h15v15h-15z"/><path d="m496 464h15v15h-15z"/><path d="m512 464h15v15h-15z"/><path d="m544 464h15v15h-15z"/><path d="m560 464h15v15h-15z"/><path d="m624 464h15v15h-15z"/><path d="m640 464h15v15h-15z"/><path d="m656 464h15v15h-15z"/><path d="m720 464h15v15h-15z"/><path d="m736 464h15v15h-15z"/><path d="m752 464h15v15h-15z"/><path d="m816 464h15v15h-15z"/><path d="m832 464h15v15h-15z"/><path d="m880 464h15v15h-15z"/><path d="m912 464h15v15h-15z"/><path d="m928 464h15v15h-15z"/><path d="m944 464h15v15h-15z"/><path d="m1008 464h15v15h-15z"/><path d="m1024 464h15v15h-15z"/><path d="m1056 464h15v15h-15z"/><path d="m1104 464h15v15h-15z"/><path d="m1120 464h15v15h-15z"/><path d="m1184 464h15v15h-15z"/><path d="m1200 464h15v15h-15z"/><path d="m1216 464h15v15h-15z"/><path d="m1232 464h15v15h-15z"/><path d="m1248 464h15v15h-15z"/><path d="m1264 464h15v15h-15z"/><path d="m1280 464h15v15h-15z"/><path d="m1296 464h15v15h-15z"/><path d="m1312 464h15v15h-15z"/><path d="m1328 464h15v15h-15z"/><path d="m1344 464h15v15h-15z"/><path d="m1360 464h15v15h-15z"/><path d="m1376 464h15v15h-15z"/><path d="m1392 464h15v15h-15z"/><path d="m1408 464h15v15h-15z"/><path d="m1424 464h15v15h-15z"/><path d="m1440 464h15v15h-15z"/><path d="m1456 464h15v15h-15z"/><path d="m1472 464h15v15h-15z"/><path d="m1488 464h15v15h-15z"/><path d="m1504 464h15v15h-15z"/><path d="m1520 464h15v15h-15z"/><path d="m1536 464h15v15h-15z"/><path d="m1552 464h15v15h-15z"/><path d="m1568 464h15v15h-15z"/><path d="m1584 464h15v15h-15z"/><path d="m1600 464h15v15h-15z"/><path d="m1616 464h15v15h-15z"/><path d="m1632 464h15v15h-15z"/><path d="m1648 464h15v15h-15z"/><path d="m1664 464h15v15h-15z"/><path d="m1680 464h15v15h-15z"/><path d="m1696 464h15v15h-15z"/><path d="m1712 464h15v15h-15z"/><path d="m1728 464h15v15h-15z"/><path d="m1744 464h15v15h-15z"/><path d="m1760 464h15v15h-15z"/><path d="m1776 464h15v15h-15z"/><path d="m1792 464h15v15h-15z"/><path d="m1808 464h15v15h-15z"/><path d="m1824 464h15v15h-15z"/><path d="m1840 464h15v15h-15z"/><path d="m1856 464h15v15h-15z"/><path d="m1872 464h15v15h-15z"/><path d="m1888 464h15v15h-15z"/><path d="m1904 464h15v15h-15z"/><path d="m1920 464h15v15h-15z"/><path d="m1936 464h15v15h-15z"/><path d="m1952 464h15v15h-15z"/><path d="m1968 464h15v15h-15z"/><path d="m1984 464h15v15h-15z"/><path d="m2000 464h15v15h-15z"/><path d="m2016 464h15v15h-15z"/><path d="m2032 464h15v15h-15z"/><path d="m2048 464h15v15h-15z"/><path d="m2064 464h15v15h-15z"/><path d="m48 480h15v15h-15z"/><path d="m64 480h15v15h-15z"/><path d="m80 480h15v15h-15z"/><path d="m96 480h15v15h-15z"/><path d="m128 480h15v15h-15z"/><path d="m144 480h15v15h-15z"/><path d="m160 480h15v15h-15z"/><path d="m208 480h15v15h-15z"/><path d="m224 480h15v15h-15z"/><path d="m256 480h15v15h-15z"/><path d="m288 480h15v15h-15z"/><path d="m304 480h15v15h-15z"/><path d="m320 480h15v15h-15z"/><path d="m352 480h15v15h-15z"/><path d="m368 480h15v15h-15z"/><path d="m384 480h15v15h-15z"/><path d="m400 480h15v15h-15z"/><path d="m416 480h15v15h-15z"/><path d="m432 480h15v15h-15z"/><path d="m448 480h15v15h-15z"/><path d="m528 480h15v15h-15z"/><path d="m544 480h15v15h-15z"/><path d="m560 480h15v15h-15z"/><path d="m576 480h15v15h-15z"/><path d="m592 480h15v15h-15z"/><path d="m608 480h15v15h-15z"/><path d="m640 480h15v15h-15z"/><path d="m672 480h15v15h-15z"/><path d="m688 480h15v15h-15z"/><path d="m704 480h15v15h-15z"/><path d="m720 480h15v15h-15z"/><path d="m736 480h15v15h-15z"/><path d="m768 480h15v15h-15z"/><path d="m784 480h15v15h-15z"/><path d="m800 480h15v15h-15z"/><path d="m816 480h15v15h-15z"/><path d="m832 480h15v15h-15z"/><path d="m864 480h15v15h-15z"/><path d="m896 480h15v15h-15z"/><path d="m928 480h15v15h-15z"/><path d="m960 480h15v15h-15z"/><path d="m976 480h15v15h-15z"/><path d="m992 480h15v15h-15z"/><path d="m1024 480h15v15h-15z"/><path d="m1072 480h15v15h-15z"/><path d="m1088 480h15v15h-15z"/><path d="m1120 480h15v15h-15z"/><path d="m1136 480h15v15h-15z"/><path d="m1168 480h15v15h-15z"/><path d="m1184 480h15v15h-15z"/><path d="m1200 480h15v15h-15z"/><path d="m1216 480h15v15h-15z"/><path d="m1232 480h15v15h-15z"/><path d="m1248 480h15v15h-15z"/><path d="m1264 480h15v15h-15z"/><path d="m1280 480h15v15h-15z"/><path d="m1296 480h15v15h-15z"/><path d="m1312 480h15v15h-15z"/><path d="m1328 480h15v15h-15z"/><path d="m1344 480h15v15h-15z"/><path d="m1360 480h15v15h-15z"/><path d="m1376 480h15v15h-15z"/><path d="m1392 480h15v15h-15z"/><path d="m1408 480h15v15h-15z"/><path d="m1424 480h15v15h-15z"/><path d="m1440 480h15v15h-15z"/><path d="m1456 480h15v15h-15z"/><path d="m1472 480h15v15h-15z"/><path d="m1488 480h15v15h-15z"/><path d="m1504 480h15v15h-15z"/><path d="m1520 480h15v15h-15z"/><path d="m1536 480h15v15h-15z"/><path d="m1552 480h15v15h-15z"/><path d="m1568 480h15v15h-15z"/><path d="m1584 480h15v15h-15z"/><path d="m1600 480h15v15h-15z"/><path d="m1616 480h15v15h-15z"/><path d="m1632 480h15v15h-15z"/><path d="m1648 480h15v15h-15z"/><path d="m1664 480h15v15h-15z"/><path d="m1680 480h15v15h-15z"/><path d="m1696 480h15v15h-15z"/><path d="m1712 480h15v15h-15z"/><path d="m1728 480h15v15h-15z"/><path d="m1744 480h15v15h-15z"/><path d="m1760 480h15v15h-15z"/><path d="m1776 480h15v15h-15z"/><path d="m1792 480h15v15h-15z"/><path d="m1808 480h15v15h-15z"/><path d="m1824 480h15v15h-15z"/><path d="m1840 480h15v15h-15z"/><path d="m1856 480h15v15h-15z"/><path d="m1872 480h15v15h-15z"/><path d="m1888 480h15v15h-15z"/><path d="m1904 480h15v15h-15z"/><path d="m1920 480h15v15h-15z"/><path d="m1936 480h15v15h-15z"/><path d="m1952 480h15v15h-15z"/><path d="m1968 480h15v15h-15z"/><path d="m1984 480h15v15h-15z"/><path d="m2000 480h15v15h-15z"/><path d="m2016 480h15v15h-15z"/><path d="m2032 480h15v15h-15z"/><path d="m2048 480h15v15h-15z"/><path d="m2064 480h15v15h-15z"/><path d="m48 496h15v15h-15z"/><path d="m64 496h15v15h-15z"/><path d="m80 496h15v15h-15z"/><path d="m96 496h15v15h-15z"/><path d="m128 496h15v15h-15z"/><path d="m144 496h15v15h-15z"/><path d="m160 496h15v15h-15z"/><path d="m192 496h15v15h-15z"/><path d="m208 496h15v15h-15z"/><path d="m224 496h15v15h-15z"/><path d="m256 496h15v15h-15z"/><path d="m352 496h15v15h-15z"/><path d="m368 496h15v15h-15z"/><path d="m384 496h15v15h-15z"/><path d="m400 496h15v15h-15z"/><path d="m416 496h15v15h-15z"/><path d="m432 496h15v15h-15z"/><path d="m448 496h15v15h-15z"/><path d="m480 496h15v15h-15z"/><path d="m496 496h15v15h-15z"/><path d="m512 496h15v15h-15z"/><path d="m544 496h15v15h-15z"/><path d="m560 496h15v15h-15z"/><path d="m640 496h15v15h-15z"/><path d="m656 496h15v15h-15z"/><path d="m720 496h15v15h-15z"/><path d="m736 496h15v15h-15z"/><path d="m752 496h15v15h-15z"/><path d="m816 496h15v15h-15z"/><path d="m832 496h15v15h-15z"/><path d="m864 496h15v15h-15z"/><path d="m896 496h15v15h-15z"/><path d="m928 496h15v15h-15z"/><path d="m1024 496h15v15h-15z"/><path d="m1056 496h15v15h-15z"/><path d="m1072 496h15v15h-15z"/><path d="m1088 496h15v15h-15z"/><path d="m1120 496h15v15h-15z"/><path d="m1136 496h15v15h-15z"/><path d="m1168 496h15v15h-15z"/><path d="m1184 496h15v15h-15z"/><path d="m1200 496h15v15h-15z"/><path d="m1216 496h15v15h-15z"/><path d="m1232 496h15v15h-15z"/><path d="m1248 496h15v15h-15z"/><path d="m1264 496h15v15h-15z"/><path d="m1280 496h15v15h-15z"/><path d="m1296 496h15v15h-15z"/><path d="m1312 496h15v15h-15z"/><path d="m1328 496h15v15h-15z"/><path d="m1344 496h15v15h-15z"/><path d="m1360 496h15v15h-15z"/><path d="m1376 496h15v15h-15z"/><path d="m1392 496h15v15h-15z"/><path d="m1408 496h15v15h-15z"/><path d="m1424 496h15v15h-15z"/><path d="m1440 496h15v15h-15z"/><path d="m1456 496h15v15h-15z"/><path d="m1472 496h15v15h-15z"/><path d="m1488 496h15v15h-15z"/><path d="m1504 496h15v15h-15z"/><path d="m1520 496h15v15h-15z"/><path d="m1536 496h15v15h-15z"/><path d="m1552 496h15v15h-15z"/><path d="m1568 496h15v15h-15z"/><path d="m1584 496h15v15h-15z"/><path d="m1600 496h15v15h-15z"/><path d="m1616 496h15v15h-15z"/><path d="m1632 496h15v15h-15z"/><path d="m1648 496h15v15h-15z"/><path d="m1664 496h15v15h-15z"/><path d="m1680 496h15v15h-15z"/><path d="m1696 496h15v15h-15z"/><path d="m1712 496h15v15h-15z"/><path d="m1728 496h15v15h-15z"/><path d="m1744 496h15v15h-15z"/><path d="m1760 496h15v15h-15z"/><path d="m1776 496h15v15h-15z"/><path d="m1792 496h15v15h-15z"/><path d="m1808 496h15v15h-15z"/><path d="m1824 496h15v15h-15z"/><path d="m1840 496h15v15h-15z"/><path d="m1856 496h15v15h-15z"/><path d="m1872 496h15v15h-15z"/><path d="m1888 496h15v15h-15z"/><path d="m1904 496h15v15h-15z"/><path d="m1920 496h15v15h-15z"/><path d="m1936 496h15v15h-15z"/><path d="m1952 496h15v15h-15z"/><path d="m1968 496h15v15h-15z"/><path d="m1984 496h15v15h-15z"/><path d="m2000 496h15v15h-15z"/><path d="m2016 496h15v15h-15z"/><path d="m2032 496h15v15h-15z"/><path d="m2048 496h15v15h-15z"/><path d="m2064 496h15v15h-15z"/><path d="m48 512h15v15h-15z"/><path d="m64 512h15v15h-15z"/><path d="m80 512h15v15h-15z"/><path d="m96 512h15v15h-15z"/><path d="m128 512h15v15h-15z"/><path d="m144 512h15v15h-15z"/><path d="m160 512h15v15h-15z"/><path d="m192 512h15v15h-15z"/><path d="m208 512h15v15h-15z"/><path d="m224 512h15v15h-15z"/><path d="m256 512h15v15h-15z"/><path d="m288 512h15v15h-15z"/><path d="m304 512h15v15h-15z"/><path d="m320 512h15v15h-15z"/><path d="m336 512h15v15h-15z"/><path d="m352 512h15v15h-15z"/><path d="m368 512h15v15h-15z"/><path d="m384 512h15v15h-15z"/><path d="m400 512h15v15h-15z"/><path d="m416 512h15v15h-15z"/><path d="m432 512h15v15h-15z"/><path d="m448 512h15v15h-15z"/><path d="m480 512h15v15h-15z"/><path d="m496 512h15v15h-15z"/><path d="m512 512h15v15h-15z"/><path d="m544 512h15v15h-15z"/><path d="m576 512h15v15h-15z"/><path d="m592 512h15v15h-15z"/><path d="m608 512h15v15h-15z"/><path d="m640 512h15v15h-15z"/><path d="m656 512h15v15h-15z"/><path d="m672 512h15v15h-15z"/><path d="m688 512h15v15h-15z"/><path d="m704 512h15v15h-15z"/><path d="m736 512h15v15h-15z"/><path d="m752 512h15v15h-15z"/><path d="m768 512h15v15h-15z"/><path d="m784 512h15v15h-15z"/><path d="m800 512h15v15h-15z"/><path d="m832 512h15v15h-15z"/><path d="m864 512h15v15h-15z"/><path d="m880 512h15v15h-15z"/><path d="m896 512h15v15h-15z"/><path d="m928 512h15v15h-15z"/><path d="m960 512h15v15h-15z"/><path d="m976 512h15v15h-15z"/><path d="m992 512h15v15h-15z"/><path d="m1008 512h15v15h-15z"/><path d="m1024 512h15v15h-15z"/><path d="m1056 512h15v15h-15z"/><path d="m1072 512h15v15h-15z"/><path d="m1088 512h15v15h-15z"/><path d="m1120 512h15v15h-15z"/><path d="m1136 512h15v15h-15z"/><path d="m1168 512h15v15h-15z"/><path d="m1184 512h15v15h-15z"/><path d="m1216 512h15v15h-15z"/><path d="m1232 512h15v15h-15z"/><path d="m1248 512h15v15h-15z"/><path d="m1264 512h15v15h-15z"/><path d="m1280 512h15v15h-15z"/><path d="m1296 512h15v15h-15z"/><path d="m1312 512h15v15h-15z"/><path d="m1328 512h15v15h-15z"/><path d="m1344 512h15v15h-15z"/><path d="m1360 512h15v15h-15z"/><path d="m1376 512h15v15h-15z"/><path d="m1392 512h15v15h-15z"/><path d="m1408 512h15v15h-15z"/><path d="m1424 512h15v15h-15z"/><path d="m1440 512h15v15h-15z"/><path d="m1456 512h15v15h-15z"/><path d="m1472 512h15v15h-15z"/><path d="m1488 512h15v15h-15z"/><path d="m1504 512h15v15h-15z"/><path d="m1520 512h15v15h-15z"/><path d="m1536 512h15v15h-15z"/><path d="m1552 512h15v15h-15z"/><path d="m1568 512h15v15h-15z"/><path d="m1584 512h15v15h-15z"/><path d="m1600 512h15v15h-15z"/><path d="m1616 512h15v15h-15z"/><path d="m1632 512h15v15h-15z"/><path d="m1648 512h15v15h-15z"/><path d="m1664 512h15v15h-15z"/><path d="m1680 512h15v15h-15z"/><path d="m1696 512h15v15h-15z"/><path d="m1712 512h15v15h-15z"/><path d="m1728 512h15v15h-15z"/><path d="m1744 512h15v15h-15z"/><path d="m1760 512h15v15h-15z"/><path d="m1776 512h15v15h-15z"/><path d="m1792 512h15v15h-15z"/><path d="m1808 512h15v15h-15z"/><path d="m1824 512h15v15h-15z"/><path d="m1840 512h15v15h-15z"/><path d="m1856 512h15v15h-15z"/><path d="m1872 512h15v15h-15z"/><path d="m1888 512h15v15h-15z"/><path d="m1904 512h15v15h-15z"/><path d="m1920 512h15v15h-15z"/><path d="m1936 512h15v15h-15z"/><path d="m1952 512h15v15h-15z"/><path d="m1968 512h15v15h-15z"/><path d="m1984 512h15v15h-15z"/><path d="m2000 512h15v15h-15z"/><path d="m2016 512h15v15h-15z"/><path d="m2032 512h15v15h-15z"/><path d="m2048 512h15v15h-15z"/><path d="m2064 512h15v15h-15z"/><path d="m48 528h15v15h-15z"/><path d="m64 528h15v15h-15z"/><path d="m80 528h15v15h-15z"/><path d="m96 528h15v15h-15z"/><path d="m128 528h15v15h-15z"/><path d="m144 528h15v15h-15z"/><path d="m160 528h15v15h-15z"/><path d="m192 528h15v15h-15z"/><path d="m208 528h15v15h-15z"/><path d="m224 528h15v15h-15z"/><path d="m256 528h15v15h-15z"/><path d="m272 528h15v15h-15z"/><path d="m336 528h15v15h-15z"/><path d="m352 528h15v15h-15z"/><path d="m448 528h15v15h-15z"/><path d="m528 528h15v15h-15z"/><path d="m544 528h15v15h-15z"/><path d="m560 528h15v15h-15z"/><path d="m640 528h15v15h-15z"/><path d="m720 528h15v15h-15z"/><path d="m736 528h15v15h-15z"/><path d="m816 528h15v15h-15z"/><path d="m832 528h15v15h-15z"/><path d="m864 528h15v15h-15z"/><path d="m880 528h15v15h-15z"/><path d="m896 528h15v15h-15z"/><path d="m928 528h15v15h-15z"/><path d="m944 528h15v15h-15z"/><path d="m1008 528h15v15h-15z"/><path d="m1024 528h15v15h-15z"/><path d="m1056 528h15v15h-15z"/><path d="m1072 528h15v15h-15z"/><path d="m1088 528h15v15h-15z"/><path d="m1120 528h15v15h-15z"/><path d="m1136 528h15v15h-15z"/><path d="m1152 528h15v15h-15z"/><path d="m1200 528h15v15h-15z"/><path d="m1216 528h15v15h-15z"/><path d="m1232 528h15v15h-15z"/><path d="m1248 528h15v15h-15z"/><path d="m1264 528h15v15h-15z"/><path d="m1280 528h15v15h-15z"/><path d="m1296 528h15v15h-15z"/><path d="m1312 528h15v15h-15z"/><path d="m1328 528h15v15h-15z"/><path d="m1344 528h15v15h-15z"/><path d="m1360 528h15v15h-15z"/><path d="m1376 528h15v15h-15z"/><path d="m1392 528h15v15h-15z"/><path d="m1408 528h15v15h-15z"/><path d="m1424 528h15v15h-15z"/><path d="m1440 528h15v15h-15z"/><path d="m1456 528h15v15h-15z"/><path d="m1472 528h15v15h-15z"/><path d="m1488 528h15v15h-15z"/><path d="m1504 528h15v15h-15z"/><path d="m1520 528h15v15h-15z"/><path d="m1536 528h15v15h-15z"/><path d="m1552 528h15v15h-15z"/><path d="m1568 528h15v15h-15z"/><path d="m1584 528h15v15h-15z"/><path d="m1600 528h15v15h-15z"/><path d="m1616 528h15v15h-15z"/><path d="m1632 528h15v15h-15z"/><path d="m1648 528h15v15h-15z"/><path d="m1664 528h15v15h-15z"/><path d="m1680 528h15v15h-15z"/><path d="m1696 528h15v15h-15z"/><path d="m1712 528h15v15h-15z"/><path d="m1728 528h15v15h-15z"/><path d="m1744 528h15v15h-15z"/><path d="m1760 528h15v15h-15z"/><path d="m1776 528h15v15h-15z"/><path d="m1792 528h15v15h-15z"/><path d="m1808 528h15v15h-15z"/><path d="m1824 528h15v15h-15z"/><path d="m1840 528h15v15h-15z"/><path d="m1856 528h15v15h-15z"/><path d="m1872 528h15v15h-15z"/><path d="m1888 528h15v15h-15z"/><path d="m1904 528h15v15h-15z"/><path d="m1920 528h15v15h-15z"/><path d="m1936 528h15v15h-15z"/><path d="m1952 528h15v15h-15z"/><path d="m1968 528h15v15h-15z"/><path d="m1984 528h15v15h-15z"/><path d="m2000 528h15v15h-15z"/><path d="m2016 528h15v15h-15z"/><path d="m2032 528h15v15h-15z"/><path d="m2048 528h15v15h-15z"/><path d="m2064 528h15v15h-15z"/><path d="m48 544h15v15h-15z"/><path d="m64 544h15v15h-15z"/><path d="m80 544h15v15h-15z"/><path d="m96 544h15v15h-15z"/><path d="m112 544h15v15h-15z"/><path d="m128 544h15v15h-15z"/><path d="m144 544h15v15h-15z"/><path d="m160 544h15v15h-15z"/><path d="m176 544h15v15h-15z"/><path d="m192 544h15v15h-15z"/><path d="m208 544h15v15h-15z"/><path d="m224 544h15v15h-15z"/><path d="m240 544h15v15h-15z"/><path d="m256 544h15v15h-15z"/><path d="m272 544h15v15h-15z"/><path d="m288 544h15v15h-15z"/><path d="m304 544h15v15h-15z"/><path d="m320 544h15v15h-15z"/><path d="m336 544h15v15h-15z"/><path d="m352 544h15v15h-15z"/><path d="m368 544h15v15h-15z"/><path d="m384 544h15v15h-15z"/><path d="m400 544h15v15h-15z"/><path d="m416 544h15v15h-15z"/><path d="m432 544h15v15h-15z"/><path d="m448 544h15v15h-15z"/><path d="m464 544h15v15h-15z"/><path d="m480 544h15v15h-15z"/><path d="m496 544h15v15h-15z"/><path d="m512 544h15v15h-15z"/><path d="m528 544h15v15h-15z"/><path d="m544 544h15v15h-15z"/><path d="m560 544h15v15h-15z"/><path d="m576 544h15v15h-15z"/><path d="m592 544h15v15h-15z"/><path d="m608 544h15v15h-15z"/><path d="m624 544h15v15h-15z"/><path d="m640 544h15v15h-15z"/><path d="m656 544h15v15h-15z"/><path d="m672 544h15v15h-15z"/><path d="m688 544h15v15h-15z"/><path d="m704 544h15v15h-15z"/><path d="m720 544h15v15h-15z"/><path d="m736 544h15v15h-15z"/><path d="m752 544h15v15h-15z"/><path d="m768 544h15v15h-15z"/><path d="m784 544h15v15h-15z"/><path d="m800 544h15v15h-15z"/><path d="m816 544h15v15h-15z"/><path d="m832 544h15v15h-15z"/><path d="m848 544h15v15h-15z"/><path d="m864 544h15v15h-15z"/><path d="m880 544h15v15h-15z"/><path d="m896 544h15v15h-15z"/><path d="m912 544h15v15h-15z"/><path d="m928 544h15v15h-15z"/><path d="m944 544h15v15h-15z"/><path d="m960 544h15v15h-15z"/><path d="m976 544h15v15h-15z"/><path d="m992 544h15v15h-15z"/><path d="m1008 544h15v15h-15z"/><path d="m1024 544h15v15h-15z"/><path d="m1040 544h15v15h-15z"/><path d="m1056 544h15v15h-15z"/><path d="m1072 544h15v15h-15z"/><path d="m1088 544h15v15h-15z"/><path d="m1104 544h15v15h-15z"/><path d="m1120 544h15v15h-15z"/><path d="m1136 544h15v15h-15z"/><path d="m1152 544h15v15h-15z"/><path d="m1168 544h15v15h-15z"/><path d="m1184 544h15v15h-15z"/><path d="m1200 544h15v15h-15z"/><path d="m1216 544h15v15h-15z"/><path d="m1232 544h15v15h-15z"/><path d="m1248 544h15v15h-15z"/><path d="m1264 544h15v15h-15z"/><path d="m1280 544h15v15h-15z"/><path d="m1296 544h15v15h-15z"/><path d="m1312 544h15v15h-15z"/><path d="m1328 544h15v15h-15z"/><path d="m1344 544h15v15h-15z"/><path d="m1360 544h15v15h-15z"/><path d="m1376 544h15v15h-15z"/><path d="m1392 544h15v15h-15z"/><path d="m1408 544h15v15h-15z"/><path d="m1424 544h15v15h-15z"/><path d="m1440 544h15v15h-15z"/><path d="m1456 544h15v15h-15z"/><path d="m1472 544h15v15h-15z"/><path d="m1488 544h15v15h-15z"/><path d="m1504 544h15v15h-15z"/><path d="m1520 544h15v15h-15z"/><path d="m1536 544h15v15h-15z"/><path d="m1552 544h15v15h-15z"/><path d="m1568 544h15v15h-15z"/><path d="m1584 544h15v15h-15z"/><path d="m1600 544h15v15h-15z"/><path d="m1616 544h15v15h-15z"/><path d="m1632 544h15v15h-15z"/><path d="m1648 544h15v15h-15z"/><path d="m1664 544h15v15h-15z"/><path d="m1680 544h15v15h-15z"/><path d="m1696 544h15v15h-15z"/><path d="m1712 544h15v15h-15z"/><path d="m1728 544h15v15h-15z"/><path d="m1744 544h15v15h-15z"/><path d="m1760 544h15v15h-15z"/><path d="m1776 544h15v15h-15z"/><path d="m1792 544h15v15h-15z"/><path d="m1808 544h15v15h-15z"/><path d="m1824 544h15v15h-15z"/><path d="m1840 544h15v15h-15z"/><path d="m1856 544h15v15h-15z"/><path d="m1872 544h15v15h-15z"/><path d="m1888 544h15v15h-15z"/><path d="m1904 544h15v15h-15z"/><path d="m1920 544h15v15h-15z"/><path d="m1936 544h15v15h-15z"/><path d="m1952 544h15v15h-15z"/><path d="m1968 544h15v15h-15z"/><path d="m1984 544h15v15h-15z"/><path d="m2000 544h15v15h-15z"/><path d="m2016 544h15v15h-15z"/><path d="m2032 544h15v15h-15z"/><path d="m2048 544h15v15h-15z"/><path d="m2064 544h15v15h-15z"/><path d="m48 560h15v15h-15z"/><path d="m64 560h15v15h-15z"/><path d="m80 560h15v15h-15z"/><path d="m96 560h15v15h-15z"/><path d="m112 560h15v15h-15z"/><path d="m128 560h15v15h-15z"/><path d="m144 560h15v15h-15z"/><path d="m160 560h15v15h-15z"/><path d="m176 560h15v15h-15z"/><path d="m192 560h15v15h-15z"/><path d="m208 560h15v15h-15z"/><path d="m224 560h15v15h-15z"/><path d="m240 560h15v15h-15z"/><path d="m256 560h15v15h-15z"/><path d="m272 560h15v15h-15z"/><path d="m288 560h15v15h-15z"/><path d="m304 560h15v15h-15z"/><path d="m320 560h15v15h-15z"/><path d="m336 560h15v15h-15z"/><path d="m352 560h15v15h-15z"/><path d="m368 560h15v15h-15z"/><path d="m384 560h15v15h-15z"/><path d="m400 560h15v15h-15z"/><path d="m416 560h15v15h-15z"/><path d="m432 560h15v15h-15z"/><path d="m448 560h15v15h-15z"/><path d="m464 560h15v15h-15z"/><path d="m480 560h15v15h-15z"/><path d="m496 560h15v15h-15z"/><path d="m512 560h15v15h-15z"/><path d="m528 560h15v15h-15z"/><path d="m544 560h15v15h-15z"/><path d="m560 560h15v15h-15z"/><path d="m576 560h15v15h-15z"/><path d="m592 560h15v15h-15z"/><path d="m608 560h15v15h-15z"/><path d="m624 560h15v15h-15z"/><path d="m640 560h15v15h-15z"/><path d="m656 560h15v15h-15z"/><path d="m672 560h15v15h-15z"/><path d="m688 560h15v15h-15z"/><path d="m704 560h15v15h-15z"/><path d="m720 560h15v15h-15z"/><path d="m736 560h15v15h-15z"/><path d="m752 560h15v15h-15z"/><path d="m768 560h15v15h-15z"/><path d="m784 560h15v15h-15z"/><path d="m800 560h15v15h-15z"/><path d="m816 560h15v15h-15z"/><path d="m832 560h15v15h-15z"/><path d="m848 560h15v15h-15z"/><path d="m864 560h15v15h-15z"/><path d="m880 560h15v15h-15z"/><path d="m896 560h15v15h-15z"/><path d="m912 560h15v15h-15z"/><path d="m928 560h15v15h-15z"/><path d="m944 560h15v15h-15z"/><path d="m960 560h15v15h-15z"/><path d="m976 560h15v15h-15z"/><path d="m992 560h15v15h-15z"/><path d="m1008 560h15v15h-15z"/><path d="m1024 560h15v15h-15z"/><path d="m1040 560h15v15h-15z"/><path d="m1056 560h15v15h-15z"/><path d="m1072 560h15v15h-15z"/><path d="m1088 560h15v15h-15z"/><path d="m1104 560h15v15h-15z"/><path d="m1120 560h15v15h-15z"/><path d="m1136 560h15v15h-15z"/><path d="m1152 560h15v15h-15z"/><path d="m1168 560h15v15h-15z"/><path d="m1184 560h15v15h-15z"/><path d="m1200 560h15v15h-15z"/><path d="m1216 560h15v15h-15z"/><path d="m1232 560h15v15h-15z"/><path d="m1248 560h15v15h-15z"/><path d="m1264 560h15v15h-15z"/><path d="m1280 560h15v15h-15z"/><path d="m1296 560h15v15h-15z"/><path d="m1312 560h15v15h-15z"/><path d="m1328 560h15v15h-15z"/><path d="m1344 560h15v15h-15z"/><path d="m1360 560h15v15h-15z"/><path d="m1376 560h15v15h-15z"/><path d="m1392 560h15v15h-15z"/><path d="m1408 560h15v15h-15z"/><path d="m1424 560h15v15h-15z"/><path d="m1440 560h15v15h-15z"/><path d="m1456 560h15v15h-15z"/><path d="m1472 560h15v15h-15z"/><path d="m1488 560h15v15h-15z"/><path d="m1504 560h15v15h-15z"/><path d="m1520 560h15v15h-15z"/><path d="m1536 560h15v15h-15z"/><path d="m1552 560h15v15h-15z"/><path d="m1568 560h15v15h-15z"/><path d="m1584 560h15v15h-15z"/><path d="m1600 560h15v15h-15z"/><path d="m1616 560h15v15h-15z"/><path d="m1632 560h15v15h-15z"/><path d="m1648 560h15v15h-15z"/><path d="m1664 560h15v15h-15z"/><path d="m1680 560h15v15h-15z"/><path d="m1696 560h15v15h-15z"/><path d="m1712 560h15v15h-15z"/><path d="m1728 560h15v15h-15z"/><path d="m1744 560h15v15h-15z"/><path d="m1760 560h15v15h-15z"/><path d="m1776 560h15v15h-15z"/><path d="m1792 560h15v15h-15z"/><path d="m1808 560h15v15h-15z"/><path d="m1824 560h15v15h-15z"/><path d="m1840 560h15v15h-15z"/><path d="m1856 560h15v15h-15z"/><path d="m1872 560h15v15h-15z"/><path d="m1888 560h15v15h-15z"/><path d="m1904 560h15v15h-15z"/><path d="m1920 560h15v15h-15z"/><path d="m1936 560h15v15h-15z"/><path d="m1952 560h15v15h-15z"/><path d="m1968 560h15v15h-15z"/><path d="m1984 560h15v15h-15z"/><path d="m2000 560h15v15h-15z"/><path d="m2016 560h15v15h-15z"/><path d="m2032 560h15v15h-15z"/><path d="m2048 560h15v15h-15z"/><path d="m2064 560h15v15h-15z"/><path d="m48 576h15v15h-15z"/><path d="m64 576h15v15h-15z"/><path d="m80 576h15v15h-15z"/><path d="m96 576h15v15h-15z"/><path d="m112 576h15v15h-15z"/><path d="m128 576h15v15h-15z"/><path d="m144 576h15v15h-15z"/><path d="m160 576h15v15h-15z"/><path d="m176 576h15v15h-15z"/><path d="m192 576h15v15h-15z"/><path d="m208 576h15v15h-15z"/><path d="m224 576h15v15h-15z"/><path d="m240 576h15v15h-15z"/><path d="m256 576h15v15h-15z"/><path d="m272 576h15v15h-15z"/><path d="m288 576h15v15h-15z"/><path d="m304 576h15v15h-15z"/><path d="m320 576h15v15h-15z"/><path d="m336 576h15v15h-15z"/><path d="m352 576h15v15h-15z"/><path d="m368 576h15v15h-15z"/><path d="m384 576h15v15h-15z"/><path d="m400 576h15v15h-15z"/><path d="m416 576h15v15h-15z"/><path d="m432 576h15v15h-15z"/><path d="m448 576h15v15h-15z"/><path d="m464 576h15v15h-15z"/><path d="m480 576h15v15h-15z"/><path d="m496 576h15v15h-15z"/><path d="m512 576h15v15h-15z"/><path d="m528 576h15v15h-15z"/><path d="m544 576h15v15h-15z"/><path d="m560 576h15v15h-15z"/><path d="m576 576h15v15h-15z"/><path d="m592 576h15v15h-15z"/><path d="m608 576h15v15h-15z"/><path d="m624 576h15v15h-15z"/><path d="m640 576h15v15h-15z"/><path d="m656 576h15v15h-15z"/><path d="m672 576h15v15h-15z"/><path d="m688 576h15v15h-15z"/><path d="m704 576h15v15h-15z"/><path d="m720 576h15v15h-15z"/><path d="m736 576h15v15h-15z"/><path d="m752 576h15v15h-15z"/><path d="m768 576h15v15h-15z"/><path d="m784 576h15v15h-15z"/><path d="m800 576h15v15h-15z"/><path d="m816 576h15v15h-15z"/><path d="m832 576h15v15h-15z"/><path d="m848 576h15v15h-15z"/><path d="m864 576h15v15h-15z"/><path d="m880 576h15v15h-15z"/><path d="m896 576h15v15h-15z"/><path d="m912 576h15v15h-15z"/><path d="m928 576h15v15h-15z"/><path d="m944 576h15v15h-15z"/><path d="m960 576h15v15h-15z"/><path d="m976 576h15v15h-15z"/><path d="m992 576h15v15h-15z"/><path d="m1008 576h15v15h-15z"/><path d="m1024 576h15v15h-15z"/><path d="m1040 576h15v15h-15z"/><path d="m1056 576h15v15h-15z"/><path d="m1072 576h15v15h-15z"/><path d="m1088 576h15v15h-15z"/><path d="m1104 576h15v15h-15z"/><path d="m1120 576h15v15h-15z"/><path d="m1136 576h15v15h-15z"/><path d="m1152 576h15v15h-15z"/><path d="m1168 576h15v15h-15z"/><path d="m1184 576h15v15h-15z"/><path d="m1200 576h15v15h-15z"/><path d="m1216 576h15v15h-15z"/><path d="m1232 576h15v15h-15z"/><path d="m1248 576h15v15h-15z"/><path d="m1264 576h15v15h-15z"/><path d="m1280 576h15v15h-15z"/><path d="m1296 576h15v15h-15z"/><path d="m1312 576h15v15h-15z"/><path d="m1328 576h15v15h-15z"/><path d="m1344 576h15v15h-15z"/><path d="m1360 576h15v15h-15z"/><path d="m1376 576h15v15h-15z"/><path d="m1392 576h15v15h-15z"/><path d="m1408 576h15v15h-15z"/><path d="m1424 576h15v15h-15z"/><path d="m1440 576h15v15h-15z"/><path d="m1456 576h15v15h-15z"/><path d="m1472 576h15v15h-15z"/><path d="m1488 576h15v15h-15z"/><path d="m1504 576h15v15h-15z"/><path d="m1520 576h15v15h-15z"/><path d="m1536 576h15v15h-15z"/><path d="m1552 576h15v15h-15z"/><path d="m1568 576h15v15h-15z"/><path d="m1584 576h15v15h-15z"/><path d="m1600 576h15v15h-15z"/><path d="m1616 576h15v15h-15z"/><path d="m1632 576h15v15h-15z"/><path d="m1648 576h15v15h-15z"/><path d="m1664 576h15v15h-15z"/><path d="m1680 576h15v15h-15z"/><path d="m1696 576h15v15h-15z"/><path d="m1712 576h15v15h-15z"/><path d="m1728 576h15v15h-15z"/><path d="m1744 576h15v15h-15z"/><path d="m1760 576h15v15h-15z"/><path d="m1776 576h15v15h-15z"/><path d="m1792 576h15v15h-15z"/><path d="m1808 576h15v15h-15z"/><path d="m1824 576h15v15h-15z"/><path d="m1840 576h15v15h-15z"/><path d="m1856 576h15v15h-15z"/><path d="m1872 576h15v15h-15z"/><path d="m1888 576h15v15h-15z"/><path d="m1904 576h15v15h-15z"/><path d="m1920 576h15v15h-15z"/><path d="m1936 576h15v15h-15z"/><path d="m1952 576h15v15h-15z"/><path d="m1968 576h15v15h-15z"/><path d="m1984 576h15v15h-15z"/><path d="m2000 576h15v15h-15z"/><path d="m2016 576h15v15h-15z"/><path d="m2032 576h15v15h-15z"/><path d="m2048 576h15v15h-15z"/><path d="m2064 576h15v15h-15z"/><path d="m112 608h15v15h-15z"/><path d="m128 608h15v15h-15z"/><path d="m208 608h15v15h-15z"/><path d="m224 608h15v15h-15z"/><path d="m96 624h15v15h-15z"/><path d="m144 624h15v15h-15z"/><path d="m192 624h15v15h-15z"/><path d="m240 624h15v15h-15z"/><path d="m96 640h15v15h-15z"/><path d="m192 640h15v15h-15z"/><path d="m80 656h15v15h-15z"/><path d="m96 656h15v15h-15z"/><path d="m112 656h15v15h-15z"/><path d="m176 656h15v15h-15z"/><path d="m192 656h15v15h-15z"/><path d="m208 656h15v15h-15z"/><path d="m96 672h15v15h-15z"/><path d="m192 672h15v15h-15z"/><path d="m96 688h15v15h-15z"/><path d="m192 688h15v15h-15z"/><path d="m289 640h15v15h-15z"/><path d="m305 640h15v15h-15z"/><path d="m321 640h15v15h-15z"/><path d="m273 656h15v15h-15z"/><path d="m337 656h15v15h-15z"/><path d="m273 672h15v15h-15z"/><path d="m337 672h15v15h-15z"/><path d="m273 688h15v15h-15z"/><path d="m337 688h15v15h-15z"/><path d="m289 704h15v15h-15z"/><path d="m305 704h15v15h-15z"/><path d="m321 704h15v15h-15z"/><path d="m96 704h15v15h-15z"/><path d="m192 704h15v15h-15z"/><path d="m370 608h15v15h-15z"/><path d="m386 608h15v15h-15z"/><path d="m466 608h15v15h-15z"/><path d="m482 608h15v15h-15z"/><path d="m386 624h15v15h-15z"/><path d="m482 624h15v15h-15z"/><path d="m386 640h15v15h-15z"/><path d="m482 640h15v15h-15z"/><path d="m386 656h15v15h-15z"/><path d="m482 656h15v15h-15z"/><path d="m386 672h15v15h-15z"/><path d="m482 672h15v15h-15z"/><path d="m386 688h15v15h-15z"/><path d="m482 688h15v15h-15z"/><path d="m370 704h15v15h-15z"/><path d="m386 704h15v15h-15z"/><path d="m402 704h15v15h-15z"/><path d="m466 704h15v15h-15z"/><path d="m482 704h15v15h-15z"/><path d="m498 704h15v15h-15z"/><path d="m543 640h15v15h-15z"/><path d="m559 640h15v15h-15z"/><path d="m575 640h15v15h-15z"/><path d="m623 640h15v15h-15z"/><path d="m687 640h15v15h-15z"/><path d="m527 656h15v15h-15z"/><path d="m591 656h15v15h-15z"/><path d="m623 656h15v15h-15z"/><path d="m687 656h15v15h-15z"/><path d="m527 672h15v15h-15z"/><path d="m591 672h15v15h-15z"/><path d="m623 672h15v15h-15z"/><path d="m655 672h15v15h-15z"/><path d="m687 672h15v15h-15z"/><path d="m527 688h15v15h-15z"/><path d="m591 688h15v15h-15z"/><path d="m623 688h15v15h-15z"/><path d="m655 688h15v15h-15z"/><path d="m687 688h15v15h-15z"/><path d="m543 704h15v15h-15z"/><path d="m559 704h15v15h-15z"/><path d="m575 704h15v15h-15z"/><path d="m639 704h15v15h-15z"/><path d="m671 704h15v15h-15z"/><path d="m390 784h15v15h-15z"/><path d="m406 784h15v15h-15z"/><path d="m486 784h15v15h-15z"/><path d="m502 784h15v15h-15z"/><path d="m406 800h15v15h-15z"/><path d="m502 800h15v15h-15z"/><path d="m294 816h15v15h-15z"/><path d="m310 816h15v15h-15z"/><path d="m326 816h15v15h-15z"/><path d="m406 816h15v15h-15z"/><path d="m502 816h15v15h-15z"/><path d="m101 816h15v15h-15z"/><path d="m117 816h15v15h-15z"/><path d="m133 816h15v15h-15z"/><path d="m278 832h15v15h-15z"/><path d="m342 832h15v15h-15z"/><path d="m406 832h15v15h-15z"/><path d="m502 832h15v15h-15z"/><path d="m85 832h15v15h-15z"/><path d="m149 832h15v15h-15z"/><path d="m278 848h15v15h-15z"/><path d="m294 848h15v15h-15z"/><path d="m310 848h15v15h-15z"/><path d="m326 848h15v15h-15z"/><path d="m342 848h15v15h-15z"/><path d="m406 848h15v15h-15z"/><path d="m502 848h15v15h-15z"/><path d="m85 848h15v15h-15z"/><path d="m149 848h15v15h-15z"/><path d="m278 864h15v15h-15z"/><path d="m406 864h15v15h-15z"/><path d="m502 864h15v15h-15z"/><path d="m85 864h15v15h-15z"/><path d="m149 864h15v15h-15z"/><path d="m567 816h15v15h-15z"/><path d="m583 816h15v15h-15z"/><path d="m599 816h15v15h-15z"/><path d="m551 832h15v15h-15z"/><path d="m567 848h15v15h-15z"/><path d="m583 848h15v15h-15z"/><path d="m599 848h15v15h-15z"/><path d="m615 864h15v15h-15z"/><path d="m551 880h15v15h-15z"/><path d="m567 880h15v15h-15z"/><path d="m583 880h15v15h-15z"/><path d="m599 880h15v15h-15z"/><path d="m662 816h15v15h-15z"/><path d="m678 816h15v15h-15z"/><path d="m694 816h15v15h-15z"/><path d="m742 816h15v15h-15z"/><path d="m774 816h15v15h-15z"/><path d="m790 816h15v15h-15z"/><path d="m646 832h15v15h-15z"/><path d="m710 832h15v15h-15z"/><path d="m742 832h15v15h-15z"/><path d="m758 832h15v15h-15z"/><path d="m806 832h15v15h-15z"/><path d="m646 848h15v15h-15z"/><path d="m710 848h15v15h-15z"/><path d="m742 848h15v15h-15z"/><path d="m806 848h15v15h-15z"/><path d="m646 864h15v15h-15z"/><path d="m710 864h15v15h-15z"/><path d="m742 864h15v15h-15z"/><path d="m806 864h15v15h-15z"/><path d="m662 880h15v15h-15z"/><path d="m678 880h15v15h-15z"/><path d="m694 880h15v15h-15z"/><path d="m742 880h15v15h-15z"/><path d="m806 880h15v15h-15z"/><path d="m294 880h15v15h-15z"/><path d="m310 880h15v15h-15z"/><path d="m326 880h15v15h-15z"/><path d="m390 880h15v15h-15z"/><path d="m406 880h15v15h-15z"/><path d="m422 880h15v15h-15z"/><path d="m486 880h15v15h-15z"/><path d="m502 880h15v15h-15z"/><path d="m518 880h15v15h-15z"/><path d="m101 880h15v15h-15z"/><path d="m117 880h15v15h-15z"/><path d="m133 880h15v15h-15z"/><path d="m181 816h15v15h-15z"/><path d="m245 816h15v15h-15z"/><path d="m181 832h15v15h-15z"/><path d="m245 832h15v15h-15z"/><path d="m181 848h15v15h-15z"/><path d="m213 848h15v15h-15z"/><path d="m245 848h15v15h-15z"/><path d="m181 864h15v15h-15z"/><path d="m213 864h15v15h-15z"/><path d="m245 864h15v15h-15z"/><path d="m197 880h15v15h-15z"/><path d="m229 880h15v15h-15z"/></g></svg>